<svg width="24" height="24" viewBox="0 0 24 24" fill="none" xmlns="http://www.w3.org/2000/svg">
<g clip-path="url(#clip0_58_484)">
<path d="M15.2419 13.5026C17.7563 12.2902 19.5 9.72337 19.5 6.75C19.5 5.02612 18.9011 3.34388 17.814 2.01263C17.7428 1.92563 17.6362 1.875 17.5238 1.875H15.75C15.543 1.875 15.375 2.04263 15.375 2.25C15.375 2.45737 15.543 2.625 15.75 2.625H17.343C18.2516 3.79988 18.75 5.25787 18.75 6.75C18.75 10.4719 15.7219 13.5 12 13.5C8.27812 13.5 5.25 10.4719 5.25 6.75C5.25 5.25787 5.74838 3.79988 6.657 2.625H13.875C14.082 2.625 14.25 2.45737 14.25 2.25C14.25 2.04263 14.082 1.875 13.875 1.875H6.47625C6.36375 1.875 6.25725 1.92563 6.186 2.01263C5.09888 3.34388 4.5 5.02612 4.5 6.75C4.5 9.72337 6.24375 12.2902 8.75812 13.5026C7.62862 13.5169 6.56738 13.9624 5.76488 14.7649C4.94925 15.5809 4.5 16.6631 4.5 17.8125C4.5 20.1904 6.43462 22.125 8.8125 22.125H15.1875C16.3372 22.125 17.4199 21.6757 18.2351 20.8601C19.0507 20.0441 19.5 18.9619 19.5 17.8125C19.5 15.453 17.5946 13.5323 15.2419 13.5026ZM17.7049 20.3299C17.031 21.0037 16.137 21.375 15.1875 21.375H8.8125C6.84825 21.375 5.25 19.7768 5.25 17.8125C5.25 16.8634 5.62125 15.9694 6.29513 15.2951C6.969 14.6212 7.863 14.25 8.8125 14.25H15.1875C17.1517 14.25 18.75 15.8483 18.75 17.8125C18.75 18.7616 18.3788 19.6556 17.7049 20.3299Z" fill="#0AB051"/>
<path d="M8.8125 15.375C7.4685 15.375 6.375 16.4685 6.375 17.8125C6.375 19.1565 7.4685 20.25 8.8125 20.25C10.1565 20.25 11.25 19.1565 11.25 17.8125C11.25 16.4685 10.1565 15.375 8.8125 15.375ZM8.8125 19.5C7.88213 19.5 7.125 18.7429 7.125 17.8125C7.125 16.8821 7.88213 16.125 8.8125 16.125C9.74288 16.125 10.5 16.8821 10.5 17.8125C10.5 18.7429 9.74288 19.5 8.8125 19.5Z" fill="#0AB051"/>
<path d="M11.9999 4.875C11.9999 5.00625 12.022 5.1315 12.0539 5.25262C12.0359 5.25225 11.9639 5.25225 11.9455 5.25262C11.9774 5.13112 11.9999 5.00625 11.9999 4.875C11.9999 4.04775 11.3268 3.375 10.4995 3.375C9.67226 3.375 8.99951 4.04775 8.99951 4.875C8.99951 5.0235 9.02801 5.16375 9.06814 5.29912C8.92489 5.26762 8.77676 5.25 8.62451 5.25C7.48714 5.25 6.56201 6.1755 6.56201 7.3125C6.56201 8.40112 7.41064 9.29325 8.48089 9.36788C8.33389 9.65138 8.24951 9.972 8.24951 10.3125C8.24951 11.4495 9.17464 12.375 10.312 12.375C11.0095 12.375 11.626 12.0259 11.9995 11.4945C12.373 12.0259 12.9895 12.375 13.687 12.375C14.8244 12.375 15.7495 11.4495 15.7495 10.3125C15.7495 9.972 15.6651 9.651 15.5181 9.36788C16.5884 9.29363 17.437 8.40112 17.437 7.3125C17.437 6.1755 16.5119 5.25 15.3745 5.25C15.2223 5.25 15.0741 5.26762 14.9309 5.29912C14.971 5.16375 14.9995 5.02313 14.9995 4.875C14.9995 4.04775 14.3268 3.375 13.4995 3.375C12.6723 3.375 11.9999 4.04775 11.9999 4.875ZM13.3124 7.3125C13.3124 8.03625 12.7236 8.625 11.9999 8.625C11.2761 8.625 10.6874 8.03625 10.6874 7.3125C10.6874 6.58875 11.2761 6 11.9999 6C12.7236 6 13.3124 6.58875 13.3124 7.3125ZM10.4999 4.125C10.9135 4.125 11.2499 4.46137 11.2499 4.875C11.2499 5.28863 10.9135 5.625 10.4999 5.625C10.0863 5.625 9.74989 5.28863 9.74989 4.875C9.74989 4.46137 10.0863 4.125 10.4999 4.125ZM7.31239 7.3125C7.31239 6.58875 7.90114 6 8.62489 6C9.34864 6 9.93739 6.58875 9.93739 7.3125C9.93739 8.03625 9.34864 8.625 8.62489 8.625C7.90114 8.625 7.31239 8.03625 7.31239 7.3125ZM10.3124 11.625C9.58864 11.625 8.99989 11.0363 8.99989 10.3125C8.99989 9.58875 9.58864 9 10.3124 9C11.0361 9 11.6249 9.58875 11.6249 10.3125C11.6249 11.0363 11.0361 11.625 10.3124 11.625ZM13.6874 11.625C12.9636 11.625 12.3749 11.0363 12.3749 10.3125C12.3749 9.58875 12.9636 9 13.6874 9C14.4111 9 14.9999 9.58875 14.9999 10.3125C14.9999 11.0363 14.4111 11.625 13.6874 11.625ZM16.6874 7.3125C16.6874 8.03625 16.0986 8.625 15.3749 8.625C14.6511 8.625 14.0624 8.03625 14.0624 7.3125C14.0624 6.58875 14.6511 6 15.3749 6C16.0986 6 16.6874 6.58875 16.6874 7.3125ZM14.2499 4.875C14.2499 5.28863 13.9135 5.625 13.4999 5.625C13.0863 5.625 12.7499 5.28863 12.7499 4.875C12.7499 4.46137 13.0863 4.125 13.4999 4.125C13.9135 4.125 14.2499 4.46137 14.2499 4.875Z" fill="#0AB051"/>
<path d="M20.685 14.7426C20.3081 14.0054 19.7835 13.3398 19.1554 12.7983C20.8455 10.8036 21.6255 8.18951 21.3007 5.56376C21.0877 3.83651 20.3396 2.14564 19.1396 0.676012C18.7946 0.246262 18.2782 -0.000488281 17.7221 -0.000488281H6.2775C5.72137 -0.000488281 5.205 0.245887 4.8615 0.674512C4.224 1.45976 3.71325 2.30539 3.34387 3.18851C2.95762 4.11251 2.72512 5.07289 2.65237 6.04301C2.46675 8.53001 3.243 10.9128 4.84387 12.7979C3.42862 14.0114 2.625 15.7488 2.625 17.6245C2.625 19.3263 3.28725 20.9279 4.49025 22.135C5.69662 23.3373 7.29825 23.9995 9 23.9995H15C18.5153 23.9995 21.375 21.1398 21.375 17.6245C21.375 16.6218 21.1365 15.6254 20.685 14.7426ZM15 23.2499H9C7.49813 23.2499 6.08475 22.6653 5.02087 21.6051C3.95963 20.5401 3.375 19.1268 3.375 17.6249C3.375 15.8515 4.18988 14.2176 5.61112 13.1429C5.6955 13.0788 5.74913 12.9824 5.7585 12.877C5.76787 12.7716 5.73225 12.667 5.66062 12.589C4.023 10.8153 3.2205 8.51051 3.40013 6.09926C3.46688 5.20939 3.681 4.32739 4.03575 3.47801C4.37775 2.66089 4.85138 1.87676 5.445 1.14551C5.64675 0.893887 5.95012 0.749512 6.2775 0.749512H17.7225C18.0499 0.749512 18.3532 0.893887 18.5573 1.14776C19.6695 2.51014 20.3614 4.06864 20.5568 5.65564C20.871 8.19551 20.0629 10.723 18.3397 12.5886C18.2681 12.6666 18.2325 12.7709 18.2419 12.8766C18.2513 12.9824 18.3045 13.0784 18.3892 13.1425C19.0676 13.6555 19.6309 14.3268 20.0179 15.0839C20.421 15.8729 20.6257 16.7275 20.6257 17.6245C20.6257 20.7261 18.1024 23.2495 15.0007 23.2495L15 23.2499Z" fill="#0AB051"/>
<path d="M15.1875 15.375C13.8435 15.375 12.75 16.4685 12.75 17.8125C12.75 19.1565 13.8435 20.25 15.1875 20.25C16.5315 20.25 17.625 19.1565 17.625 17.8125C17.625 16.4685 16.5315 15.375 15.1875 15.375ZM15.1875 19.5C14.2571 19.5 13.5 18.7429 13.5 17.8125C13.5 16.8821 14.2571 16.125 15.1875 16.125C16.1179 16.125 16.875 16.8821 16.875 17.8125C16.875 18.7429 16.1179 19.5 15.1875 19.5Z" fill="#0AB051"/>
<path d="M8.8125 18.375C9.12316 18.375 9.375 18.1232 9.375 17.8125C9.375 17.5018 9.12316 17.25 8.8125 17.25C8.50184 17.25 8.25 17.5018 8.25 17.8125C8.25 18.1232 8.50184 18.375 8.8125 18.375Z" fill="#0AB051"/>
<path d="M15.1875 18.375C15.4982 18.375 15.75 18.1232 15.75 17.8125C15.75 17.5018 15.4982 17.25 15.1875 17.25C14.8768 17.25 14.625 17.5018 14.625 17.8125C14.625 18.1232 14.8768 18.375 15.1875 18.375Z" fill="#0AB051"/>
</g>
<defs>
<clipPath id="clip0_58_484">
<rect width="24" height="24" fill="white"/>
</clipPath>
</defs>
</svg>
