<svg width="30" height="30" viewBox="0 0 30 30" fill="none" xmlns="http://www.w3.org/2000/svg">
<path d="M5.05713 12.8855H5.89522L5.47618 11.8188L5.05713 12.8855Z" fill="#2FABF7"/>
<path d="M15.457 11.9712C15.3809 11.9331 15.2666 11.9331 15.1523 11.9331H14.3904V12.5426H15.1523C15.2666 12.5426 15.3809 12.5426 15.457 12.5045C15.5332 12.4664 15.5713 12.3522 15.5713 12.2379C15.6094 12.0855 15.5332 12.0093 15.457 11.9712Z" fill="#228FE0"/>
<path d="M23.6095 10.8286V11.2858L23.381 10.8286H21.5905V11.2858L21.3619 10.8286H18.9238C18.5048 10.8286 18.1619 10.9048 17.8571 11.0572V10.8286H16.1429V11.0572C15.9524 10.9048 15.7238 10.8286 15.419 10.8286H9.28571L8.86667 11.781L8.44762 10.8286H6.50476V11.2858L6.27619 10.8286H4.6381L3.87619 12.6191L3 14.6H3.87619H4.94286L5.17143 13.9905H5.70476L5.93333 14.6H8.14286V14.1429L8.33333 14.6H9.4381L9.62857 14.1429V14.6H14.9238V13.6096H15C15.0762 13.6096 15.0762 13.6096 15.0762 13.7239V14.5619H17.819V14.3334C18.0476 14.4477 18.3905 14.5619 18.8476 14.5619H19.9905L20.219 13.9524H20.7524L20.981 14.5619H23.1905V13.9905L23.5333 14.5619H25.3238V10.8286H23.6095ZM10.7333 14.0286H10.0857V11.9334L9.17143 14.0286H8.6L7.68571 11.9334V14.0286H6.39048L6.12381 13.4572H4.82857L4.6 14.0667H3.87619L5.01905 11.3619H5.97143L7.0381 13.9143V11.3619H8.06667L8.90476 13.1905L9.66667 11.3619H10.7333V14.0286ZM13.3238 11.9334H11.8381V12.4286H13.2857V12.9619H11.8381V13.4953H13.3238V14.0667H11.1905V11.3619H13.3238V11.9334ZM16.181 13.0381C16.2571 13.1905 16.2952 13.3048 16.2952 13.5334V14.0667H15.6476V13.7239C15.6476 13.5715 15.6476 13.3429 15.5333 13.1905C15.419 13.0762 15.3048 13.0762 15.0762 13.0762H14.3905V14.0667H13.7429V11.3619H15.1905C15.5333 11.3619 15.7619 11.3619 15.9524 11.4762C16.1429 11.5905 16.2571 11.781 16.2571 12.0858C16.2571 12.5048 15.9905 12.7334 15.8 12.8096C15.9905 12.8477 16.1048 12.9619 16.181 13.0381ZM17.3238 14.0286H16.6762V11.3239H17.3238V14.0286ZM24.8286 14.0286H23.9143L22.6952 12.0096V14.0286H21.4L21.1714 13.4572H19.8381L19.6095 14.0667H18.8857C18.581 14.0667 18.2 13.9905 17.9714 13.7619C17.7429 13.5334 17.6286 13.2286 17.6286 12.7334C17.6286 12.3524 17.7048 11.9715 17.9714 11.6667C18.1619 11.4381 18.5048 11.3619 18.9238 11.3619H19.5333V11.9334H18.9238C18.6952 11.9334 18.581 11.9715 18.4286 12.0858C18.3143 12.2 18.2381 12.4286 18.2381 12.6953C18.2381 13 18.2762 13.1905 18.4286 13.3429C18.5429 13.4572 18.6952 13.4953 18.8857 13.4953H19.1524L20.0286 11.4H20.981L22.0476 13.9524V11.4H23L24.1048 13.2667V11.4H24.7524V14.0286H24.8286Z" fill="#0571C1"/>
<path d="M20.0667 12.8855H20.9428L20.5238 11.8188L20.0667 12.8855Z" fill="#228FE0"/>
<path d="M13.5906 18.3711V16.1997L12.6001 17.2664L13.5906 18.3711Z" fill="#228FE0"/>
<path d="M9.5144 16.4668V16.962H10.9239V17.4954H9.5144V18.0668H11.0763L11.8001 17.2668L11.1144 16.4668H9.5144Z" fill="#2FABF7"/>
<path d="M15.038 16.4668H14.238V17.1525H15.0761C15.3047 17.1525 15.4571 17.0382 15.4571 16.8097C15.419 16.5811 15.2666 16.4668 15.038 16.4668Z" fill="#228FE0"/>
<path d="M26.8095 17.1142V15.3999H26.3523H25.2095C24.8666 15.3999 24.5999 15.4761 24.4095 15.6285V15.3999H22.6571C22.3904 15.3999 22.0475 15.4761 21.8952 15.6285V15.3999H18.8095V15.6285C18.5809 15.438 18.1618 15.3999 17.9714 15.3999H15.9142V15.6285C15.7237 15.438 15.2666 15.3999 15.038 15.3999H12.7523L12.219 15.9713L11.7237 15.3999H8.29517V19.1332H11.6475L12.1809 18.5618L12.6761 19.1332H14.7333V18.257H14.9999C15.2666 18.257 15.6095 18.257 15.8761 18.1428V19.1713H17.5904V18.1809H17.6666C17.7809 18.1809 17.7809 18.1809 17.7809 18.2951V19.1713H22.9618C23.3047 19.1713 23.6475 19.0951 23.838 18.9428V19.1713H25.4761C25.819 19.1713 26.1618 19.1332 26.3904 18.9809C26.7714 18.7523 26.9999 18.3332 26.9999 17.838C26.9999 17.5713 26.9237 17.3047 26.8095 17.1142ZM14.9999 17.7237H14.238V18.638H13.019L12.2571 17.7618L11.4571 18.638H8.94279V15.9332H11.4952L12.2571 16.8094L13.0571 15.9332H15.0761C15.5714 15.9332 16.1428 16.0856 16.1428 16.8094C16.1047 17.5713 15.5714 17.7237 14.9999 17.7237ZM18.8095 17.5713C18.8856 17.6856 18.9237 17.838 18.9237 18.0666V18.5999H18.2761V18.257C18.2761 18.1047 18.2761 17.838 18.1618 17.7237C18.0856 17.6094 17.9333 17.6094 17.7047 17.6094H17.019V18.5999H16.3714V15.8951H17.819C18.1237 15.8951 18.3904 15.8951 18.5809 16.0094C18.7714 16.1237 18.9237 16.3142 18.9237 16.619C18.9237 17.038 18.6571 17.2666 18.4666 17.3428C18.6571 17.419 18.7714 17.4951 18.8095 17.5713ZM21.438 16.4666H19.9523V16.9618H21.3999V17.4951H19.9523V18.0285H21.438V18.5999H19.3047V15.8951H21.438V16.4666ZM23.038 18.5999H21.819V18.0285H23.038C23.1523 18.0285 23.2285 18.0285 23.3047 17.9523C23.3428 17.9142 23.3809 17.838 23.3809 17.7618C23.3809 17.6856 23.3428 17.6094 23.3047 17.5713C23.2666 17.5332 23.1904 17.4951 23.0761 17.4951C22.4666 17.457 21.7428 17.4951 21.7428 16.657C21.7428 16.2761 21.9714 15.857 22.6571 15.857H23.9142V16.5047H22.7333C22.619 16.5047 22.5428 16.5047 22.4666 16.5428C22.3904 16.5809 22.3904 16.657 22.3904 16.7332C22.3904 16.8475 22.4666 16.8856 22.5428 16.9237C22.619 16.9618 22.6952 16.9618 22.7714 16.9618H23.1142C23.4571 16.9618 23.6856 17.038 23.838 17.1904C23.9523 17.3047 24.0285 17.4951 24.0285 17.7618C24.0285 18.3332 23.6856 18.5999 23.038 18.5999ZM26.3142 18.3332C26.1618 18.4856 25.8952 18.5999 25.5142 18.5999H24.2952V18.0285H25.5142C25.6285 18.0285 25.7047 18.0285 25.7809 17.9523C25.819 17.9142 25.8571 17.838 25.8571 17.7618C25.8571 17.6856 25.819 17.6094 25.7809 17.5713C25.7428 17.5332 25.6666 17.4951 25.5523 17.4951C24.9428 17.457 24.219 17.4951 24.219 16.657C24.219 16.2761 24.4475 15.857 25.1333 15.857H26.3904V16.5047H25.2475C25.1333 16.5047 25.0571 16.5047 24.9809 16.5428C24.9047 16.5809 24.9047 16.657 24.9047 16.7332C24.9047 16.8475 24.9428 16.8856 25.0571 16.9237C25.1333 16.9618 25.2095 16.9618 25.2856 16.9618H25.6285C25.9714 16.9618 26.1999 17.038 26.3523 17.1904C26.3904 17.1904 26.3904 17.2285 26.3904 17.2285C26.5047 17.3809 26.5428 17.5713 26.5428 17.7618C26.5428 17.9904 26.4666 18.1809 26.3142 18.3332Z" fill="#0571C1"/>
<path d="M18.1238 16.543C18.0476 16.5049 17.9333 16.5049 17.819 16.5049H17.0571V17.1144H17.819C17.9333 17.1144 18.0476 17.1144 18.1238 17.0763C18.2 17.0382 18.2381 16.9239 18.2381 16.8096C18.2762 16.6573 18.2 16.5811 18.1238 16.543Z" fill="#228FE0"/>
<path d="M15.4573 11.9712C15.3811 11.9331 15.2668 11.9331 15.1525 11.9331H14.3906V12.5426H15.1525C15.2668 12.5426 15.3811 12.5426 15.4573 12.5045C15.5335 12.4664 15.5716 12.3522 15.5716 12.2379C15.6097 12.0855 15.5335 12.0093 15.4573 11.9712Z" fill="#228FE0"/>
<path d="M20.0667 12.8855H20.9428L20.5238 11.8188L20.0667 12.8855Z" fill="#228FE0"/>
<path d="M13.5906 18.3711V16.1997L12.6001 17.2664L13.5906 18.3711Z" fill="#228FE0"/>
<path d="M15.038 16.4668H14.238V17.1525H15.0761C15.3047 17.1525 15.4571 17.0382 15.4571 16.8097C15.419 16.5811 15.2666 16.4668 15.038 16.4668Z" fill="#228FE0"/>
<path d="M18.1238 16.543C18.0476 16.5049 17.9333 16.5049 17.819 16.5049H17.0571V17.1144H17.819C17.9333 17.1144 18.0476 17.1144 18.1238 17.0763C18.2 17.0382 18.2381 16.9239 18.2381 16.8096C18.2762 16.6573 18.2 16.5811 18.1238 16.543Z" fill="#228FE0"/>
<path d="M14.7714 18.5237L14.238 17.9523V18.5999H12.9809L12.219 17.7237L11.3809 18.5999H8.86659V15.9332H11.419L12.219 16.8094L12.5999 16.3523L11.6475 15.3999H8.29517V19.1332H11.6475L12.219 18.5618L12.7142 19.1332H14.7714V18.5237Z" fill="#2FABF7"/>
<path d="M10.8095 14.5619L10.3143 14.0286H10.0857V13.8L9.51429 13.2286L9.13333 14.0286H8.6L7.68571 11.9334V14.0286H6.39048L6.12381 13.4572H4.82857L4.5619 14.0286H3.87619L5.01905 11.3619H5.97143L7.03809 13.9143V11.3619H7.60952L7.07619 10.8286H6.50476V11.2858L6.31429 10.8286H4.6381L3.87619 12.6191L3 14.5619H3.87619H4.98095L5.20952 13.9905H5.74286L6.00952 14.5619H8.14286V14.1048L8.33333 14.5619H9.43809L9.62857 14.1048V14.5619H10.8095Z" fill="#2FABF7"/>
<path d="M9.05703 12.8097L8.44751 12.2002L8.90465 13.1907L9.05703 12.8097Z" fill="#2FABF7"/>
<path d="M26.3906 18.9428C26.7335 18.7142 26.9621 18.3333 27.0002 17.9142L26.4668 17.3809C26.5049 17.4952 26.543 17.6095 26.543 17.7618C26.543 17.9904 26.4668 18.1809 26.3145 18.3333C26.1621 18.4856 25.8954 18.5999 25.5145 18.5999H24.2954V18.0285H25.5145C25.6287 18.0285 25.7049 18.0285 25.7811 17.9523C25.8192 17.9142 25.8573 17.838 25.8573 17.7618C25.8573 17.6856 25.8192 17.6095 25.7811 17.5714C25.743 17.5333 25.6668 17.4952 25.5526 17.4952C24.943 17.4571 24.2192 17.4952 24.2192 16.6571C24.2192 16.2761 24.4478 15.9333 25.0192 15.8571L24.6002 15.438C24.524 15.4761 24.4859 15.5142 24.4478 15.5142V15.2856H22.6954C22.4287 15.2856 22.0859 15.3618 21.9335 15.5142V15.2856H18.8097V15.5142C18.5811 15.3237 18.1621 15.2856 17.9716 15.2856H15.9145V15.5142C15.724 15.3237 15.2668 15.2856 15.0383 15.2856H12.7526L12.2192 15.8571L11.724 15.2856H11.3049L12.4478 16.4285L13.0192 15.819H15.0383C15.5335 15.819 16.1049 15.9714 16.1049 16.6952C16.1049 17.4571 15.5716 17.6095 15.0002 17.6095H14.2383V18.1809L14.8097 18.7523V18.1809H15.0002C15.2668 18.1809 15.6097 18.1809 15.8764 18.0666V19.0952H17.5906V18.1047H17.6668C17.7811 18.1047 17.7811 18.1047 17.7811 18.219V19.0952H22.9621C23.3049 19.0952 23.6478 19.019 23.8383 18.8666V19.0952H25.4764C25.7811 19.1333 26.124 19.0952 26.3906 18.9428ZM18.8097 17.5714C18.8859 17.6856 18.924 17.838 18.924 18.0666V18.5999H18.2764V18.2571C18.2764 18.1047 18.2764 17.838 18.1621 17.7237C18.0859 17.6095 17.9335 17.6095 17.7049 17.6095H17.0192V18.5999H16.3716V15.8952H17.8192C18.124 15.8952 18.3906 15.8952 18.5811 16.0095C18.7716 16.1237 18.924 16.3142 18.924 16.619C18.924 17.038 18.6573 17.2666 18.4668 17.3428C18.6573 17.419 18.7716 17.4952 18.8097 17.5714ZM21.4383 16.4666H19.9526V16.9618H21.4002V17.4952H19.9526V18.0285H21.4383V18.5999H19.3049V15.8952H21.4383V16.4666ZM23.0383 18.5999H21.8192V18.0285H23.0383C23.1526 18.0285 23.2287 18.0285 23.3049 17.9523C23.343 17.9142 23.3811 17.838 23.3811 17.7618C23.3811 17.6856 23.343 17.6095 23.3049 17.5714C23.2668 17.5333 23.1906 17.4952 23.0764 17.4952C22.4668 17.4571 21.743 17.4952 21.743 16.6571C21.743 16.2761 21.9716 15.8571 22.6573 15.8571H23.9145V16.5047H22.7335C22.6192 16.5047 22.543 16.5047 22.4668 16.5428C22.3906 16.5809 22.3906 16.6571 22.3906 16.7333C22.3906 16.8475 22.4668 16.8856 22.543 16.9237C22.6192 16.9618 22.6954 16.9618 22.7716 16.9618H23.1145C23.4573 16.9618 23.6859 17.038 23.8383 17.1904C23.9526 17.3047 24.0287 17.4952 24.0287 17.7618C24.0287 18.3333 23.6859 18.5999 23.0383 18.5999Z" fill="#228FE0"/>
<path d="M24.8667 16.7335C24.8667 16.8477 24.9048 16.8858 25.0191 16.9239C25.0953 16.962 25.1715 16.962 25.2477 16.962H25.5905C25.8191 16.962 25.9715 17.0001 26.1238 17.0763L25.5524 16.5049H25.2096C25.0953 16.5049 25.0191 16.5049 24.9429 16.543C24.9048 16.5811 24.8667 16.6573 24.8667 16.7335Z" fill="#228FE0"/>
<path d="M23.5334 14.4478L23.6096 14.562H23.6477L23.5334 14.4478Z" fill="#228FE0"/>
<path d="M21.4382 12.3525L22.0859 13.9144V13.0002L21.4382 12.3525Z" fill="#228FE0"/>
<path d="M14.9239 13.6096H15.0001C15.0762 13.6096 15.0762 13.6096 15.0762 13.7238V14.5619H17.8191V14.3334C18.0477 14.4477 18.3905 14.5619 18.8477 14.5619H19.9905L20.2191 13.9524H20.7524L20.981 14.5619H23.1905V14.181L22.6572 13.6477V14.0667H21.362L21.1715 13.4572H19.8382L19.6096 14.0667H18.8858C18.581 14.0667 18.2001 13.9905 17.9715 13.7619C17.7429 13.5334 17.6286 13.2286 17.6286 12.7334C17.6286 12.3524 17.7048 11.9715 17.9715 11.6667C18.162 11.4381 18.5048 11.3619 18.9239 11.3619H19.5334V11.9334H18.9239C18.6953 11.9334 18.581 11.9715 18.4286 12.0857C18.3143 12.2 18.2382 12.4286 18.2382 12.6953C18.2382 13 18.2762 13.1905 18.4286 13.3429C18.5429 13.4572 18.6953 13.4953 18.8858 13.4953H19.1524L20.0286 11.4H20.4096L19.8762 10.8667H18.8858C18.4667 10.8667 18.1239 10.9429 17.8191 11.0953V10.8667H16.1429V11.0953C15.9524 10.9429 15.7239 10.8667 15.4191 10.8667H9.28577L8.86672 11.8191L8.44767 10.8667H6.77148L7.30482 11.4H8.06672L8.71434 12.8096L8.94291 13.0381L9.62863 11.3619H10.6953V14.0667H10.0477V11.9715L9.40006 13.4953L10.5048 14.6H14.8858L14.9239 13.6096ZM16.6762 11.3619H17.3239V14.0667H16.6762V11.3619ZM13.3239 11.9334H11.8382V12.4286H13.2858V12.9619H11.8382V13.4953H13.3239V14.0667H11.1905V11.3619H13.3239V11.9334ZM14.3905 14.0286H13.7429V11.3238H15.1905C15.5334 11.3238 15.762 11.3238 15.9524 11.4381C16.1429 11.5524 16.2572 11.7429 16.2572 12.0477C16.2572 12.4667 15.9905 12.6953 15.8001 12.7715C15.9524 12.8096 16.0667 12.9238 16.1048 13C16.181 13.1524 16.2191 13.2667 16.2191 13.4953V14.0286H15.5715V13.6857C15.5715 13.5334 15.5715 13.3048 15.4572 13.1524C15.4191 13.0762 15.3048 13.0762 15.0762 13.0762H14.3905V14.0286Z" fill="#228FE0"/>
<rect x="0.25" y="0.25" width="29.5" height="29.5" rx="3.75" stroke="#2FABF7" stroke-width="0.5"/>
</svg>
