<svg width="37" height="37" viewBox="0 0 37 37" fill="none" xmlns="http://www.w3.org/2000/svg">
<path d="M2.31247 5.20264H34.6875C35.964 5.20264 37 6.23859 37 7.51625V29.485C37 30.7615 35.964 31.7975 34.6875 31.7975H2.31247C1.03481 31.7976 0 30.7615 0 29.4851V7.51625C0 6.23859 1.03595 5.20264 2.31247 5.20264Z" fill="#26A6D1"/>
<path d="M5.96629 14.4526L2.3125 22.5383H6.6866L7.22886 21.2491H8.46834L9.0106 22.5383H13.8253V21.5544L14.2543 22.5383H16.7448L17.1738 21.5336V22.5383H27.187L28.4045 21.2826L29.5446 22.5383L34.6876 22.5487L31.0222 18.5181L34.6876 14.4526H29.6244L28.4391 15.6851L27.335 14.4526H16.442L15.5066 16.5396L14.5492 14.4526H10.1843V15.4031L9.6987 14.4526H5.96629ZM6.81265 15.6008H8.94479L11.3683 21.0838V15.6008H13.704L15.5759 19.5321L17.3011 15.6008H19.6251V21.4029H18.211L18.1995 16.8564L16.1379 21.4029H14.8729L12.7997 16.8564V21.4029H9.89057L9.33905 20.1021H6.35941L5.80904 21.4017H4.25036L6.81265 15.6008ZM20.9189 15.6008H26.6689L28.4276 17.5005L30.243 15.6008H32.0016L29.3295 18.5169L32.0016 21.3994H30.1632L28.4045 19.4777L26.5799 21.3994H20.9189V15.6008ZM7.84987 16.5825L6.8682 18.8997H8.8304L7.84987 16.5825ZM22.3388 16.8021V17.8613H25.4757V19.0418H22.3388V20.1981H25.8573L27.4922 18.495L25.9267 16.8011H22.3388V16.8021Z" fill="white"/>
</svg>
