<svg width="50" height="51" viewBox="0 0 50 51" fill="none" xmlns="http://www.w3.org/2000/svg">
<g filter="url(#filter0_d_127_698)">
<circle cx="23" cy="23.4285" r="15" fill="white"/>
</g>
<path d="M24.5237 28.8332C24.2804 28.8332 24.0387 28.7274 23.8737 28.5224L19.8504 23.5224C19.6021 23.2132 19.6054 22.7716 19.8596 22.4666L24.0262 17.4666C24.3204 17.1132 24.8462 17.0657 25.2004 17.3599C25.5537 17.6541 25.6012 18.1799 25.3062 18.5332L21.5771 23.0091L25.1729 27.4774C25.4612 27.8357 25.4046 28.3607 25.0454 28.6491C24.8921 28.7732 24.7071 28.8332 24.5237 28.8332Z" fill="#383B46"/>
<mask id="mask0_127_698" style="mask-type:luminance" maskUnits="userSpaceOnUse" x="19" y="17" width="7" height="12">
<path d="M24.5237 28.8332C24.2804 28.8332 24.0387 28.7274 23.8737 28.5224L19.8504 23.5224C19.6021 23.2132 19.6054 22.7716 19.8596 22.4666L24.0262 17.4666C24.3204 17.1132 24.8462 17.0657 25.2004 17.3599C25.5537 17.6541 25.6012 18.1799 25.3062 18.5332L21.5771 23.0091L25.1729 27.4774C25.4612 27.8357 25.4046 28.3607 25.0454 28.6491C24.8921 28.7732 24.7071 28.8332 24.5237 28.8332Z" fill="white"/>
</mask>
<g mask="url(#mask0_127_698)">
</g>
<defs>
<filter id="filter0_d_127_698" x="0" y="0.428467" width="50" height="50" filterUnits="userSpaceOnUse" color-interpolation-filters="sRGB">
<feFlood flood-opacity="0" result="BackgroundImageFix"/>
<feColorMatrix in="SourceAlpha" type="matrix" values="0 0 0 0 0 0 0 0 0 0 0 0 0 0 0 0 0 0 127 0" result="hardAlpha"/>
<feOffset dx="2" dy="2"/>
<feGaussianBlur stdDeviation="5"/>
<feComposite in2="hardAlpha" operator="out"/>
<feColorMatrix type="matrix" values="0 0 0 0 0 0 0 0 0 0 0 0 0 0 0 0 0 0 0.2 0"/>
<feBlend mode="normal" in2="BackgroundImageFix" result="effect1_dropShadow_127_698"/>
<feBlend mode="normal" in="SourceGraphic" in2="effect1_dropShadow_127_698" result="shape"/>
</filter>
</defs>
</svg>
