<svg width="21" height="20" viewBox="0 0 21 20" fill="none" xmlns="http://www.w3.org/2000/svg">
<path fill-rule="evenodd" clip-rule="evenodd" d="M3.83325 9.99984C3.83325 7.48568 3.83325 6.2286 4.6143 5.44755C5.39535 4.6665 6.65243 4.6665 9.16658 4.6665H10.1666C12.6807 4.6665 13.9378 4.6665 14.7189 5.44755C15.4999 6.2286 15.4999 7.48568 15.4999 9.99984C15.4999 12.514 15.4999 13.7711 14.7189 14.5521C13.9378 15.3332 12.6807 15.3332 10.1666 15.3332H9.16658C6.65243 15.3332 5.39535 15.3332 4.6143 14.5521C3.83325 13.7711 3.83325 12.514 3.83325 9.99984ZM10.4867 7.61573C10.6988 7.79251 10.7275 8.10779 10.5507 8.31993L9.56744 9.49984H10.8333C11.0273 9.49984 11.2038 9.61207 11.286 9.78776C11.3683 9.96345 11.3416 10.1709 11.2174 10.3199L9.5507 12.3199C9.37391 12.5321 9.05863 12.5607 8.84649 12.3839C8.63435 12.2072 8.60569 11.8919 8.78247 11.6797L9.76573 10.4998H8.49992C8.30591 10.4998 8.12941 10.3876 8.04712 10.2119C7.96483 10.0362 7.99161 9.82879 8.11581 9.67975L9.78247 7.67975C9.95926 7.46761 10.2745 7.43894 10.4867 7.61573Z" fill="#088F42"/>
<path d="M16.6666 11.3332C16.6666 11.6093 16.8904 11.8332 17.1666 11.8332C17.4427 11.8332 17.6666 11.6093 17.6666 11.3332V8.6665C17.6666 8.39036 17.4427 8.1665 17.1666 8.1665C16.8904 8.1665 16.6666 8.39036 16.6666 8.6665V11.3332Z" fill="#088F42"/>
</svg>
