<svg width="20" height="20" viewBox="0 0 20 20" fill="none" xmlns="http://www.w3.org/2000/svg">
<path fill-rule="evenodd" clip-rule="evenodd" d="M10.0002 3.33325C6.31826 3.33325 3.3335 6.31802 3.3335 9.99992C3.3335 13.6818 6.31826 16.6666 10.0002 16.6666C13.6821 16.6666 16.6668 13.6818 16.6668 9.99992C16.6668 6.31802 13.6821 3.33325 10.0002 3.33325ZM9.4851 7.71261L8.14174 8.78239C7.57813 9.23121 7.29632 9.45562 7.35133 9.70618L7.35425 9.71859C7.41692 9.96761 7.77413 10.0633 8.48855 10.2548C8.88556 10.3611 9.08406 10.4143 9.1772 10.5648L9.18199 10.5727C9.27181 10.725 9.2207 10.9157 9.11849 11.2972L9.09178 11.3968C8.80839 12.4544 8.66669 12.9832 8.93958 13.154C9.21246 13.3248 9.64664 12.979 10.515 12.2875L11.8584 11.2177C12.422 10.7689 12.7038 10.5445 12.6488 10.2939L12.6459 10.2815C12.5832 10.0325 12.226 9.9368 11.5116 9.74537C11.1146 9.639 10.9161 9.58581 10.8229 9.43534L10.8181 9.42742C10.7283 9.27513 10.7794 9.08441 10.8816 8.70296L10.9083 8.60325C11.1917 7.54568 11.3334 7.0169 11.0605 6.84613C10.7876 6.67536 10.3535 7.02111 9.4851 7.71261Z" fill="#088F42"/>
</svg>
