<svg width="42" height="42" viewBox="0 0 42 42" fill="none" xmlns="http://www.w3.org/2000/svg">
<path fill-rule="evenodd" clip-rule="evenodd" d="M7.35128 20.8332C7.33657 21.0797 7.37152 21.3788 7.44143 21.9768L8.00238 26.7761C8.25555 28.9421 9.41294 30.8999 11.1886 32.1659C12.4968 33.0986 14.0635 33.6 15.6703 33.6H20.7297C22.3364 33.6 23.9031 33.0986 25.2114 32.1659C26.3362 31.3639 27.213 30.2843 27.7689 29.05H30.8C33.6995 29.05 36.05 26.6994 36.05 23.8C36.05 20.9005 33.6995 18.55 30.8 18.55H27.6098C27.3455 18.4036 27.0542 18.2984 26.7438 18.2432C26.5006 18.2 26.1995 18.2 25.5974 18.2H10.8026C10.2004 18.2 9.89933 18.2 9.65617 18.2432C8.38149 18.4698 7.4284 19.5408 7.35128 20.8332ZM29.0317 20.65C29.0393 20.7105 29.045 20.7716 29.0487 20.8332C29.0634 21.0797 29.0284 21.3787 28.9585 21.9768L28.3976 26.7761C28.3908 26.8342 28.3833 26.8922 28.3752 26.95H30.8C32.5397 26.95 33.95 25.5396 33.95 23.8C33.95 22.0603 32.5397 20.65 30.8 20.65H29.0317Z" fill="#088F42"/>
<path fill-rule="evenodd" clip-rule="evenodd" d="M18.9427 6.25749C19.3527 6.66754 19.3527 7.33236 18.9427 7.74241C18.5795 8.10556 18.5795 8.69434 18.9427 9.05749C20.1259 10.2407 20.1259 12.1592 18.9427 13.3424C18.5326 13.7525 17.8678 13.7525 17.4578 13.3424C17.0477 12.9324 17.0477 12.2675 17.4578 11.8575C17.8209 11.4943 17.8209 10.9056 17.4578 10.5424C16.2745 9.35916 16.2745 7.44074 17.4578 6.25749C17.8678 5.84744 18.5326 5.84744 18.9427 6.25749Z" fill="#088F42"/>
<path fill-rule="evenodd" clip-rule="evenodd" d="M12.6425 8.35749C13.0525 8.76754 13.0525 9.43236 12.6425 9.84241L12.4799 10.005C12.1394 10.3455 12.101 10.8847 12.39 11.27C13.306 12.4913 13.1846 14.2003 12.105 15.2799L11.9425 15.4424C11.5324 15.8525 10.8676 15.8525 10.4576 15.4424C10.0475 15.0324 10.0475 14.3675 10.4576 13.9575L10.6201 13.7949C10.9607 13.4544 10.999 12.9152 10.71 12.53C9.79401 11.3086 9.91546 9.59957 10.995 8.52005L11.1576 8.35749C11.5676 7.94744 12.2324 7.94744 12.6425 8.35749Z" fill="#088F42"/>
<path fill-rule="evenodd" clip-rule="evenodd" d="M25.9425 8.35749C26.3525 8.76754 26.3525 9.43236 25.9425 9.84241L25.7799 10.005C25.4394 10.3455 25.401 10.8847 25.69 11.27C26.606 12.4913 26.4846 14.2003 25.405 15.2799L25.2425 15.4424C24.8324 15.8525 24.1676 15.8525 23.7576 15.4424C23.3475 15.0324 23.3475 14.3675 23.7576 13.9575L23.9201 13.7949C24.2607 13.4544 24.299 12.9152 24.01 12.53C23.094 11.3086 23.2155 9.59957 24.295 8.52005L24.4576 8.35749C24.8676 7.94744 25.5324 7.94744 25.9425 8.35749Z" fill="#088F42"/>
</svg>
