<svg width="20" height="21" viewBox="0 0 20 21" fill="none" xmlns="http://www.w3.org/2000/svg">
<path d="M13.3335 11.8332C13.7017 11.8332 14.0002 11.5347 14.0002 11.1665C14.0002 10.7983 13.7017 10.4998 13.3335 10.4998C12.9653 10.4998 12.6668 10.7983 12.6668 11.1665C12.6668 11.5347 12.9653 11.8332 13.3335 11.8332Z" fill="#1C274C"/>
<path d="M13.3335 14.4998C13.7017 14.4998 14.0002 14.2014 14.0002 13.8332C14.0002 13.465 13.7017 13.1665 13.3335 13.1665C12.9653 13.1665 12.6668 13.465 12.6668 13.8332C12.6668 14.2014 12.9653 14.4998 13.3335 14.4998Z" fill="#1C274C"/>
<path d="M10.6668 11.1665C10.6668 11.5347 10.3684 11.8332 10.0002 11.8332C9.63197 11.8332 9.3335 11.5347 9.3335 11.1665C9.3335 10.7983 9.63197 10.4998 10.0002 10.4998C10.3684 10.4998 10.6668 10.7983 10.6668 11.1665Z" fill="#1C274C"/>
<path d="M10.6668 13.8332C10.6668 14.2014 10.3684 14.4998 10.0002 14.4998C9.63197 14.4998 9.3335 14.2014 9.3335 13.8332C9.3335 13.465 9.63197 13.1665 10.0002 13.1665C10.3684 13.1665 10.6668 13.465 10.6668 13.8332Z" fill="#1C274C"/>
<path d="M6.66683 11.8332C7.03502 11.8332 7.3335 11.5347 7.3335 11.1665C7.3335 10.7983 7.03502 10.4998 6.66683 10.4998C6.29864 10.4998 6.00016 10.7983 6.00016 11.1665C6.00016 11.5347 6.29864 11.8332 6.66683 11.8332Z" fill="#1C274C"/>
<path d="M6.66683 14.4998C7.03502 14.4998 7.3335 14.2014 7.3335 13.8332C7.3335 13.465 7.03502 13.1665 6.66683 13.1665C6.29864 13.1665 6.00016 13.465 6.00016 13.8332C6.00016 14.2014 6.29864 14.4998 6.66683 14.4998Z" fill="#1C274C"/>
<path fill-rule="evenodd" clip-rule="evenodd" d="M6.66683 3.6665C6.94297 3.6665 7.16683 3.89036 7.16683 4.1665V4.67498C7.60816 4.6665 8.09438 4.6665 8.62914 4.6665H11.3711C11.9059 4.6665 12.3922 4.6665 12.8335 4.67498V4.1665C12.8335 3.89036 13.0574 3.6665 13.3335 3.6665C13.6096 3.6665 13.8335 3.89036 13.8335 4.1665V4.7179C14.0068 4.73111 14.1709 4.74772 14.3262 4.76859C15.1078 4.87368 15.7404 5.09509 16.2393 5.594C16.7382 6.09291 16.9597 6.72554 17.0647 7.50716C17.1668 8.26663 17.1668 9.23704 17.1668 10.4622V11.8708C17.1668 13.0959 17.1668 14.0664 17.0647 14.8259C16.9597 15.6075 16.7382 16.2401 16.2393 16.739C15.7404 17.2379 15.1078 17.4593 14.3262 17.5644C13.5667 17.6665 12.5963 17.6665 11.3711 17.6665H8.62922C7.40406 17.6665 6.43362 17.6665 5.67415 17.5644C4.89253 17.4593 4.2599 17.2379 3.76099 16.739C3.26208 16.2401 3.04067 15.6075 2.93559 14.8259C2.83348 14.0664 2.83349 13.096 2.8335 11.8708V10.4622C2.83349 9.23705 2.83348 8.26663 2.93559 7.50716C3.04067 6.72554 3.26208 6.09291 3.76099 5.594C4.2599 5.09509 4.89253 4.87368 5.67415 4.76859C5.82943 4.74772 5.99353 4.73111 6.16683 4.7179V4.1665C6.16683 3.89036 6.39069 3.6665 6.66683 3.6665ZM5.8074 5.75968C5.13667 5.84985 4.75024 6.01897 4.4681 6.30111C4.18596 6.58325 4.01685 6.96968 3.92667 7.6404C3.9114 7.75399 3.89863 7.87358 3.88795 7.99984H16.1124C16.1017 7.87358 16.0889 7.75399 16.0737 7.6404C15.9835 6.96968 15.8144 6.58325 15.5322 6.30111C15.2501 6.01897 14.8637 5.84985 14.1929 5.75968C13.5078 5.66757 12.6047 5.6665 11.3335 5.6665H8.66683C7.39562 5.6665 6.49251 5.66757 5.8074 5.75968ZM3.8335 10.4998C3.8335 9.93049 3.83371 9.43499 3.84222 8.99984H16.1581C16.1666 9.43499 16.1668 9.93049 16.1668 10.4998V11.8332C16.1668 13.1044 16.1658 14.0075 16.0737 14.6926C15.9835 15.3633 15.8144 15.7498 15.5322 16.0319C15.2501 16.314 14.8637 16.4832 14.1929 16.5733C13.5078 16.6654 12.6047 16.6665 11.3335 16.6665H8.66683C7.39562 16.6665 6.4925 16.6654 5.8074 16.5733C5.13667 16.4832 4.75024 16.314 4.4681 16.0319C4.18596 15.7498 4.01685 15.3633 3.92667 14.6926C3.83456 14.0075 3.8335 13.1044 3.8335 11.8332V10.4998Z" fill="#1C274C"/>
</svg>
