<svg width="24" height="24" viewBox="0 0 24 24" fill="none" xmlns="http://www.w3.org/2000/svg">
<path d="M8.6 4.3998C8.6 4.06843 8.33137 3.7998 8 3.7998C7.66863 3.7998 7.4 4.06843 7.4 4.3998V5.66321C6.24854 5.75542 5.49262 5.9817 4.93726 6.53706C4.3819 7.09242 4.15561 7.84834 4.06341 8.9998H19.9366C19.8444 7.84834 19.6181 7.09242 19.0627 6.53706C18.5074 5.9817 17.7515 5.75542 16.6 5.66321V4.3998C16.6 4.06843 16.3314 3.7998 16 3.7998C15.6686 3.7998 15.4 4.06843 15.4 4.3998V5.61013C14.8678 5.5998 14.2712 5.5998 13.6 5.5998H10.4C9.72877 5.5998 9.13221 5.5998 8.6 5.61013V4.3998Z" fill="#1C274C"/>
<path fill-rule="evenodd" clip-rule="evenodd" d="M4 11.9998C4 11.3286 4 10.732 4.01032 10.1998H19.9897C20 10.732 20 11.3286 20 11.9998V13.5998C20 16.6168 20 18.1253 19.0627 19.0625C18.1255 19.9998 16.617 19.9998 13.6 19.9998H10.4C7.38301 19.9998 5.87452 19.9998 4.93726 19.0625C4 18.1253 4 16.6168 4 13.5998V11.9998ZM16 13.5998C16.4418 13.5998 16.8 13.2416 16.8 12.7998C16.8 12.358 16.4418 11.9998 16 11.9998C15.5582 11.9998 15.2 12.358 15.2 12.7998C15.2 13.2416 15.5582 13.5998 16 13.5998ZM16 16.7998C16.4418 16.7998 16.8 16.4416 16.8 15.9998C16.8 15.558 16.4418 15.1998 16 15.1998C15.5582 15.1998 15.2 15.558 15.2 15.9998C15.2 16.4416 15.5582 16.7998 16 16.7998ZM12.8 12.7998C12.8 13.2416 12.4418 13.5998 12 13.5998C11.5582 13.5998 11.2 13.2416 11.2 12.7998C11.2 12.358 11.5582 11.9998 12 11.9998C12.4418 11.9998 12.8 12.358 12.8 12.7998ZM12.8 15.9998C12.8 16.4416 12.4418 16.7998 12 16.7998C11.5582 16.7998 11.2 16.4416 11.2 15.9998C11.2 15.558 11.5582 15.1998 12 15.1998C12.4418 15.1998 12.8 15.558 12.8 15.9998ZM8 13.5998C8.44183 13.5998 8.8 13.2416 8.8 12.7998C8.8 12.358 8.44183 11.9998 8 11.9998C7.55817 11.9998 7.2 12.358 7.2 12.7998C7.2 13.2416 7.55817 13.5998 8 13.5998ZM8 16.7998C8.44183 16.7998 8.8 16.4416 8.8 15.9998C8.8 15.558 8.44183 15.1998 8 15.1998C7.55817 15.1998 7.2 15.558 7.2 15.9998C7.2 16.4416 7.55817 16.7998 8 16.7998Z" fill="#1C274C"/>
</svg>
