<svg width="30" height="30" viewBox="0 0 30 30" fill="none" xmlns="http://www.w3.org/2000/svg">
<circle cx="15" cy="15" r="14.875" fill="white" stroke="black" stroke-width="0.25"/>
<path d="M13.2222 22.1998H16.7778C19.2746 22.1998 20.523 22.1998 21.4198 21.6115C21.808 21.3568 22.1414 21.0295 22.4008 20.6483C23 19.7679 23 18.5421 23 16.0907C23 13.6393 23 12.4136 22.4008 11.5331C22.1414 11.1519 21.808 10.8246 21.4198 10.5699C20.8436 10.1919 20.1221 10.0568 19.0176 10.0085C18.4905 10.0085 18.0367 9.61635 17.9333 9.1089C17.7783 8.34772 17.0976 7.7998 16.3069 7.7998H13.6931C12.9024 7.7998 12.2217 8.34772 12.0667 9.1089C11.9633 9.61635 11.5095 10.0085 10.9824 10.0085C9.87787 10.0568 9.15644 10.1919 8.58019 10.5699C8.19196 10.8246 7.85863 11.1519 7.59922 11.5331C7 12.4136 7 13.6393 7 16.0907C7 18.5421 7 19.7679 7.59922 20.6483C7.85863 21.0295 8.19196 21.3568 8.58019 21.6115C9.47699 22.1998 10.7254 22.1998 13.2222 22.1998Z" fill="#088F42"/>
<path fill-rule="evenodd" clip-rule="evenodd" d="M15 14.1271C13.8954 14.1271 13 15.0062 13 16.0907C13 17.1752 13.8954 18.0543 15 18.0543C16.1046 18.0543 17 17.1752 17 16.0907C17 15.0062 16.1046 14.1271 15 14.1271ZM11.6667 16.0907C11.6667 14.2832 13.1591 12.818 15 12.818C16.8409 12.818 18.3333 14.2832 18.3333 16.0907C18.3333 17.8982 16.8409 19.3634 15 19.3634C13.1591 19.3634 11.6667 17.8982 11.6667 16.0907Z" fill="white"/>
<path fill-rule="evenodd" clip-rule="evenodd" d="M18.7778 13.4725C18.7778 13.111 19.0763 12.818 19.4444 12.818H20.3333C20.7015 12.818 21 13.111 21 13.4725C21 13.834 20.7015 14.1271 20.3333 14.1271H19.4444C19.0763 14.1271 18.7778 13.834 18.7778 13.4725Z" fill="white"/>
</svg>
