<svg width="24" height="24" viewBox="0 0 24 24" fill="none" xmlns="http://www.w3.org/2000/svg">
<path d="M10.2222 19.2H13.7778C16.2746 19.2 17.523 19.2 18.4198 18.6222C18.808 18.3721 19.1414 18.0506 19.4008 17.6763C20 16.8115 20 15.6076 20 13.2C20 10.7923 19.9999 9.58861 19.4006 8.72383C19.1412 8.34946 18.8079 8.02802 18.4197 7.77788C17.5229 7.20005 16.2745 7.20005 13.7776 7.20005H10.2221C7.72527 7.20005 6.47686 7.20005 5.58006 7.77788C5.19183 8.02802 4.8585 8.34946 4.59909 8.72383C4 9.58842 4 10.7917 4 13.1984L4 13.2C4 15.6076 4 16.8115 4.59922 17.6763C4.85863 18.0506 5.19196 18.3721 5.58019 18.6222C6.47699 19.2 7.7254 19.2 10.2222 19.2Z" fill="#088F42"/>
<path fill-rule="evenodd" clip-rule="evenodd" d="M12 11.2714C10.8954 11.2714 10 12.1348 10 13.2C10 14.2651 10.8954 15.1286 12 15.1286C13.1046 15.1286 14 14.2651 14 13.2C14 12.1348 13.1046 11.2714 12 11.2714ZM8.66667 13.2C8.66667 11.4247 10.1591 9.98562 12 9.98562C13.841 9.98562 15.3333 11.4247 15.3333 13.2C15.3333 14.9752 13.841 16.4143 12 16.4143C10.1591 16.4143 8.66667 14.9752 8.66667 13.2Z" fill="white"/>
<path fill-rule="evenodd" clip-rule="evenodd" d="M16.2222 10.6285C16.2222 10.2734 16.5207 9.98562 16.8889 9.98562H17.3333C17.7015 9.98562 18 10.2734 18 10.6285C18 10.9835 17.7015 11.2714 17.3333 11.2714H16.8889C16.5207 11.2714 16.2222 10.9835 16.2222 10.6285Z" fill="white"/>
<path fill-rule="evenodd" clip-rule="evenodd" d="M8.8 5.60005C8.8 5.15822 9.13062 4.80005 9.53846 4.80005H14.4615C14.8694 4.80005 15.2 5.15822 15.2 5.60005C15.2 6.04188 14.8694 6.40005 14.4615 6.40005H9.53846C9.13062 6.40005 8.8 6.04188 8.8 5.60005Z" fill="#088F42"/>
</svg>
