<svg width="25" height="24" viewBox="0 0 25 24" fill="none" xmlns="http://www.w3.org/2000/svg">
<path d="M23.7936 12.9478C23.6249 11.0536 23.3469 10.6847 23.2419 10.5459C23.0005 10.2253 22.6143 10.0158 22.2055 9.79594C22.1824 9.78371 22.1624 9.76629 22.1472 9.74503C22.132 9.72378 22.1219 9.69927 22.1178 9.67345C22.1136 9.64763 22.1156 9.62121 22.1234 9.59626C22.1312 9.57131 22.1447 9.54852 22.1629 9.52969C22.2386 9.45292 22.2967 9.36067 22.3334 9.25928C22.37 9.15789 22.3843 9.04977 22.3752 8.94234C22.3576 8.75185 22.269 8.57494 22.127 8.44669C21.9851 8.31845 21.8001 8.24825 21.6088 8.25H20.8776C20.8462 8.25019 20.8149 8.25222 20.7838 8.25609C20.7625 8.24683 20.7403 8.23946 20.7177 8.23406C20.2846 7.31859 19.6916 6.06516 18.4626 5.45344C16.6396 4.54687 13.2815 4.5 12.6252 4.5C11.969 4.5 8.61083 4.54687 6.79021 5.45203C5.56115 6.06375 4.96818 7.31719 4.53505 8.23266L4.5313 8.24016C4.5097 8.24319 4.48849 8.24854 4.46802 8.25609C4.43692 8.25222 4.40561 8.25019 4.37427 8.25H3.64162C3.45031 8.24825 3.26534 8.31845 3.12338 8.44669C2.98142 8.57494 2.89284 8.75185 2.87521 8.94234C2.86688 9.04952 2.8818 9.15723 2.91893 9.25811C2.95606 9.359 3.01454 9.45067 3.09037 9.52688C3.10851 9.54571 3.12202 9.5685 3.12985 9.59345C3.13767 9.6184 3.13959 9.64482 3.13545 9.67064C3.13132 9.69646 3.12124 9.72096 3.10601 9.74222C3.09078 9.76348 3.07082 9.7809 3.04771 9.79313C2.63896 10.0144 2.25083 10.2239 2.0113 10.5431C1.9063 10.6838 1.6288 11.0508 1.45958 12.945C1.36583 14.0109 1.35177 15.1144 1.42537 15.825C1.57958 17.3016 1.8688 18.1941 1.88099 18.2311C1.92537 18.3659 2.00707 18.4853 2.11659 18.5755C2.22611 18.6656 2.35897 18.7229 2.49974 18.7406V18.75C2.49974 18.9489 2.57876 19.1397 2.71941 19.2803C2.86006 19.421 3.05083 19.5 3.24974 19.5H5.87474C6.07365 19.5 6.26442 19.421 6.40507 19.2803C6.54572 19.1397 6.62474 18.9489 6.62474 18.75C7.02833 18.75 7.30912 18.6778 7.60677 18.6009C8.03651 18.4851 8.47577 18.4081 8.91927 18.3708C10.3494 18.2344 11.7716 18.1875 12.6252 18.1875C13.4615 18.1875 14.9465 18.2344 16.379 18.3708C16.8242 18.4082 17.2652 18.4855 17.6966 18.6019C17.9816 18.675 18.2521 18.7425 18.6266 18.7495C18.6266 18.9484 18.7056 19.1392 18.8463 19.2799C18.9869 19.4205 19.1777 19.4995 19.3766 19.4995H22.0016C22.2005 19.4995 22.3913 19.4205 22.5319 19.2799C22.6726 19.1392 22.7516 18.9484 22.7516 18.7495V18.7439C22.8927 18.7265 23.026 18.6694 23.1359 18.5792C23.2457 18.489 23.3277 18.3694 23.3722 18.2344C23.3844 18.1973 23.6736 17.3048 23.8279 15.8283C23.9015 15.1172 23.8883 14.0156 23.7936 12.9478ZM5.89068 8.87391C6.26568 8.07703 6.69458 7.17516 7.45818 6.795C8.56162 6.24563 10.8486 5.99812 12.6252 5.99812C14.4018 5.99812 16.6888 6.24375 17.7922 6.795C18.5558 7.17516 18.9829 8.0775 19.3597 8.87391L19.4066 8.97563C19.434 9.03353 19.4461 9.0975 19.4418 9.16142C19.4375 9.22534 19.4168 9.28708 19.3819 9.34076C19.3469 9.39445 19.2988 9.43827 19.242 9.46806C19.1853 9.49785 19.1219 9.51261 19.0579 9.51094C17.5002 9.46875 14.219 9.33375 12.6252 9.33375C11.0315 9.33375 7.75021 9.47203 6.19021 9.51422C6.12616 9.51589 6.06276 9.50113 6.00604 9.47134C5.94932 9.44155 5.90117 9.39773 5.8662 9.34405C5.83123 9.29037 5.81059 9.22862 5.80626 9.1647C5.80193 9.10078 5.81405 9.03681 5.84146 8.97891C5.85787 8.94422 5.87521 8.90906 5.89068 8.87391ZM6.4499 12.6066C5.64356 12.7036 4.83206 12.7515 4.0199 12.75C3.52302 12.75 3.01068 12.6094 2.91552 12.1669C2.85037 11.8692 2.8574 11.7019 2.89255 11.5336C2.92208 11.3906 2.96896 11.2866 3.20333 11.25C3.81271 11.1562 4.15349 11.2739 5.15099 11.5678C5.8124 11.7623 6.28958 12.0216 6.56146 12.2269C6.69787 12.3281 6.62521 12.5925 6.4499 12.6066ZM16.8271 16.4503C16.2102 16.5206 14.9765 16.4948 12.6393 16.4948C10.3021 16.4948 9.0688 16.5206 8.45193 16.4503C7.81537 16.3795 7.00396 15.7777 7.55802 15.2414C7.92693 14.888 8.78755 14.6236 9.93365 14.475C11.0797 14.3264 11.5649 14.25 12.6346 14.25C13.7043 14.25 14.1402 14.2969 15.3355 14.4755C16.5308 14.6541 17.4341 14.9217 17.7111 15.2419C18.2165 15.8156 17.4632 16.3758 16.8271 16.4531V16.4503ZM22.3349 12.1664C22.2411 12.6108 21.7255 12.7495 21.2305 12.7495C20.4028 12.7497 19.5758 12.7018 18.7536 12.6061C18.6102 12.5925 18.5436 12.3408 18.689 12.2264C18.9566 12.0159 19.439 11.7619 20.0994 11.5673C21.0969 11.2734 21.6721 11.1558 22.1661 11.2537C22.2866 11.2777 22.3504 11.407 22.3579 11.4881C22.3909 11.7139 22.3831 11.9438 22.3349 12.1669V12.1664Z" fill="black"/>
</svg>
