<svg width="24" height="24" viewBox="0 0 24 24" fill="none" xmlns="http://www.w3.org/2000/svg">
<path fill-rule="evenodd" clip-rule="evenodd" d="M10.3549 5H13.6451C15.1153 4.99999 16.2798 4.99998 17.1912 5.12251C18.1291 5.24861 18.8883 5.5143 19.487 6.11299C20.0857 6.71169 20.3514 7.47084 20.4775 8.40878C20.5499 8.94708 20.5795 9.57368 20.5916 10.2994C20.5971 10.3321 20.6 10.3657 20.6 10.4C20.6 10.4282 20.598 10.456 20.5943 10.4831C20.6 10.9357 20.6 11.4255 20.6 11.9549V12.0451C20.6 13.5153 20.6 14.6798 20.4775 15.5912C20.3514 16.5292 20.0857 17.2883 19.487 17.887C18.8883 18.4857 18.1291 18.7514 17.1912 18.8775C16.2798 19 15.1153 19 13.6451 19H10.3549C8.88466 19 7.72015 19 6.80878 18.8775C5.87084 18.7514 5.11168 18.4857 4.51299 17.887C3.9143 17.2883 3.6486 16.5292 3.5225 15.5912C3.39997 14.6798 3.39998 13.5153 3.39999 12.0451V11.9549C3.39999 11.4255 3.39999 10.9357 3.4057 10.4831C3.40194 10.4559 3.39999 10.4282 3.39999 10.4C3.39999 10.3657 3.40287 10.3321 3.40839 10.2994C3.42051 9.57369 3.45013 8.94708 3.5225 8.40878C3.6486 7.47084 3.9143 6.71169 4.51299 6.11299C5.11168 5.5143 5.87084 5.24861 6.80878 5.12251C7.72015 4.99998 8.88465 4.99999 10.3549 5ZM4.60158 11C4.60006 11.3107 4.59999 11.6433 4.59999 12C4.59999 13.5255 4.60127 14.6092 4.7118 15.4313C4.82001 16.2362 5.02295 16.6999 5.36152 17.0385C5.70008 17.377 6.1638 17.58 6.96867 17.6882C7.7908 17.7987 8.87454 17.8 10.4 17.8H13.6C15.1255 17.8 16.2092 17.7987 17.0313 17.6882C17.8362 17.58 18.2999 17.377 18.6385 17.0385C18.977 16.6999 19.18 16.2362 19.2882 15.4313C19.3987 14.6092 19.4 13.5255 19.4 12C19.4 11.6433 19.3999 11.3107 19.3984 11H4.60158ZM19.3791 9.8H4.62085C4.6365 9.33062 4.66389 8.92507 4.7118 8.56868C4.82001 7.76381 5.02295 7.30009 5.36152 6.96152C5.70008 6.62296 6.1638 6.42002 6.96867 6.31181C7.7908 6.20127 8.87454 6.2 10.4 6.2H13.6C15.1255 6.2 16.2092 6.20127 17.0313 6.31181C17.8362 6.42002 18.2999 6.62296 18.6385 6.96152C18.977 7.30009 19.18 7.76381 19.2882 8.56868C19.3361 8.92507 19.3635 9.33062 19.3791 9.8ZM6.59999 15.2C6.59999 14.8686 6.86862 14.6 7.19999 14.6H10.4C10.7314 14.6 11 14.8686 11 15.2C11 15.5314 10.7314 15.8 10.4 15.8H7.19999C6.86862 15.8 6.59999 15.5314 6.59999 15.2ZM11.8 15.2C11.8 14.8686 12.0686 14.6 12.4 14.6H13.6C13.9314 14.6 14.2 14.8686 14.2 15.2C14.2 15.5314 13.9314 15.8 13.6 15.8H12.4C12.0686 15.8 11.8 15.5314 11.8 15.2Z" fill="#1C274C"/>
</svg>
