<svg width="24" height="24" viewBox="0 0 24 24" fill="none" xmlns="http://www.w3.org/2000/svg">
<path d="M16.8751 12V3.375C16.8743 2.67905 16.5975 2.01183 16.1054 1.51972C15.6132 1.02761 14.946 0.750794 14.2501 0.75H9.75008C9.05413 0.750794 8.38691 1.02761 7.8948 1.51972C7.40269 2.01183 7.12587 2.67905 7.12508 3.375V12C7.10594 12.4097 7.17829 12.8186 7.33688 13.1969C7.49548 13.5752 7.73633 13.9134 8.04196 14.187L8.97046 14.8057L8.63296 17.1765C8.60112 17.3815 8.61325 17.5908 8.66853 17.7907C8.72381 17.9907 8.82097 18.1765 8.95358 18.336C9.08566 18.5019 9.26213 18.6269 9.46246 18.6964L10.2297 21H10.8751V23.25H13.1251V21H13.7705L14.5381 18.6964C14.7384 18.6269 14.9149 18.5019 15.047 18.336C15.178 18.1795 15.2746 17.9972 15.3305 17.8009C15.3863 17.6046 15.4003 17.3988 15.3713 17.1968L15.0297 14.8054L15.9845 14.1679C16.2828 13.8939 16.5172 13.5577 16.6711 13.1831C16.825 12.8084 16.8946 12.4045 16.8751 12ZM12.3751 22.5H11.6251V21H12.3751V22.5ZM13.2297 20.25H10.7705L10.2702 18.75H13.73L13.2297 20.25ZM15.542 13.563L14.2205 14.4443L14.633 17.3235C14.6422 17.4195 14.6323 17.5165 14.6039 17.6087C14.5755 17.7009 14.5292 17.7866 14.4676 17.8609C14.4427 17.8977 14.4106 17.929 14.3732 17.9529C14.3358 17.9769 14.2939 17.9929 14.2501 18H9.75008C9.70632 17.9928 9.66449 17.9768 9.62715 17.9529C9.58982 17.9289 9.55776 17.8976 9.53296 17.8609C9.46958 17.7838 9.42257 17.6946 9.39478 17.5987C9.367 17.5028 9.35902 17.4023 9.37133 17.3032L9.77971 14.4443L8.48446 13.5817C8.27434 13.378 8.11102 13.131 8.0058 12.8579C7.90059 12.5848 7.85598 12.2921 7.87508 12V3.375C7.87568 2.8779 8.07341 2.40133 8.42491 2.04983C8.77641 1.69833 9.25298 1.5006 9.75008 1.5H14.2501C14.7472 1.5006 15.2237 1.69833 15.5752 2.04983C15.9267 2.40133 16.1245 2.8779 16.1251 3.375V12C16.1442 12.287 16.1021 12.5747 16.0016 12.8442C15.9011 13.1137 15.7444 13.3587 15.542 13.563Z" fill="#0AB051"/>
<path d="M10.2638 16.1516L9.9856 16.8484C10.6529 17.0891 11.3571 17.2115 12.0665 17.2099C12.7336 17.2146 13.3954 17.0919 14.0165 16.8484L13.7375 16.1516C12.6137 16.5488 11.3877 16.5488 10.2638 16.1516Z" fill="#0AB051"/>
<path d="M13.3325 14.6626C12.9131 14.8499 12.4589 14.9468 11.9996 14.9468C11.5402 14.9468 11.086 14.8499 10.6666 14.6626L10.3325 15.3376C10.8734 15.5837 11.4606 15.7116 12.0549 15.7126C12.6143 15.7155 13.1666 15.587 13.6674 15.3376L13.3325 14.6626Z" fill="#0AB051"/>
<path d="M10.875 12C11.2892 12 11.625 11.6642 11.625 11.25C11.625 10.8358 11.2892 10.5 10.875 10.5C10.4608 10.5 10.125 10.8358 10.125 11.25C10.125 11.6642 10.4608 12 10.875 12Z" fill="#0AB051"/>
<path d="M13.125 12C13.5392 12 13.875 11.6642 13.875 11.25C13.875 10.8358 13.5392 10.5 13.125 10.5C12.7108 10.5 12.375 10.8358 12.375 11.25C12.375 11.6642 12.7108 12 13.125 12Z" fill="#0AB051"/>
<path d="M8.625 11.25C8.6256 11.8466 8.86284 12.4185 9.28467 12.8403C9.7065 13.2622 10.2784 13.4994 10.875 13.5H13.125C13.7217 13.5 14.294 13.2629 14.716 12.841C15.1379 12.419 15.375 11.8467 15.375 11.25C15.375 10.6533 15.1379 10.081 14.716 9.65901C14.294 9.23705 13.7217 9 13.125 9H10.875C10.2784 9.0006 9.7065 9.23784 9.28467 9.65967C8.86284 10.0815 8.6256 10.6534 8.625 11.25ZM13.125 9.75C13.5228 9.75 13.9044 9.90804 14.1857 10.1893C14.467 10.4706 14.625 10.8522 14.625 11.25C14.625 11.6478 14.467 12.0294 14.1857 12.3107C13.9044 12.592 13.5228 12.75 13.125 12.75H10.875C10.4772 12.75 10.0956 12.592 9.81434 12.3107C9.53304 12.0294 9.375 11.6478 9.375 11.25C9.375 10.8522 9.53304 10.4706 9.81434 10.1893C10.0956 9.90804 10.4772 9.75 10.875 9.75H13.125Z" fill="#0AB051"/>
<path d="M15.375 5.625C15.375 4.95749 15.1771 4.30497 14.8062 3.74995C14.4354 3.19494 13.9083 2.76235 13.2916 2.50691C12.6749 2.25146 11.9963 2.18463 11.3416 2.31485C10.6869 2.44508 10.0855 2.76651 9.61352 3.23852C9.14151 3.71052 8.82008 4.31189 8.68985 4.96657C8.55963 5.62126 8.62646 6.29986 8.88191 6.91656C9.13735 7.53326 9.56994 8.06036 10.125 8.43121C10.68 8.80206 11.3325 9 12 9C12.8948 8.99901 13.7527 8.64311 14.3854 8.01039C15.0181 7.37767 15.374 6.5198 15.375 5.625ZM12 8.25C11.4808 8.25 10.9733 8.09605 10.5416 7.80761C10.11 7.51917 9.7735 7.1092 9.57482 6.62955C9.37614 6.14989 9.32415 5.62209 9.42544 5.11289C9.52673 4.60369 9.77673 4.13596 10.1438 3.76885C10.511 3.40173 10.9787 3.15173 11.4879 3.05044C11.9971 2.94915 12.5249 3.00114 13.0045 3.19982C13.4842 3.3985 13.8942 3.73495 14.1826 4.16663C14.471 4.59831 14.625 5.10583 14.625 5.625C14.6242 6.32095 14.3474 6.98817 13.8553 7.48028C13.3632 7.97239 12.696 8.24921 12 8.25Z" fill="#0AB051"/>
<path d="M10.875 5.25C11.2892 5.25 11.625 4.91421 11.625 4.5C11.625 4.08579 11.2892 3.75 10.875 3.75C10.4608 3.75 10.125 4.08579 10.125 4.5C10.125 4.91421 10.4608 5.25 10.875 5.25Z" fill="#0AB051"/>
<path d="M13.125 5.25C13.5392 5.25 13.875 4.91421 13.875 4.5C13.875 4.08579 13.5392 3.75 13.125 3.75C12.7108 3.75 12.375 4.08579 12.375 4.5C12.375 4.91421 12.7108 5.25 13.125 5.25Z" fill="#0AB051"/>
<path d="M12 7.125C12.4142 7.125 12.75 6.78921 12.75 6.375C12.75 5.96079 12.4142 5.625 12 5.625C11.5858 5.625 11.25 5.96079 11.25 6.375C11.25 6.78921 11.5858 7.125 12 7.125Z" fill="#0AB051"/>
<path d="M12.75 6.75H13.5V7.5H12.75V6.75Z" fill="#0AB051"/>
<path d="M10.5 6.75H11.25V7.5H10.5V6.75Z" fill="#0AB051"/>
</svg>
