<svg width="20" height="21" viewBox="0 0 20 21" fill="none" xmlns="http://www.w3.org/2000/svg">
<path d="M10.0002 3.8335C6.31826 3.8335 3.3335 6.8224 3.3335 10.5094C3.3335 14.028 6.05189 16.9109 9.50034 17.1668L9.50012 13.126C8.45175 12.8968 7.66683 11.9618 7.66683 10.8432V10.5094C7.66683 10.1407 7.96531 9.84181 8.3335 9.84181H8.50016V8.50663C8.50016 8.23011 8.72402 8.00594 9.00016 8.00594C9.2763 8.00594 9.50016 8.23011 9.50016 8.50663V9.84181H10.5002V8.50663C10.5002 8.23011 10.724 8.00594 11.0002 8.00594C11.2763 8.00594 11.5002 8.23011 11.5002 8.50663V9.84181H11.6668C12.035 9.84181 12.3335 10.1407 12.3335 10.5094V10.8432C12.3335 11.9618 11.5485 12.8968 10.5001 13.126L10.5 17.1668C13.9484 16.9109 16.6668 14.028 16.6668 10.5094C16.6668 6.8224 13.6821 3.8335 10.0002 3.8335Z" fill="#088F42"/>
</svg>
