<svg width="42" height="42" viewBox="0 0 42 42" fill="none" xmlns="http://www.w3.org/2000/svg">
<path d="M17.7899 10.9101C17.3799 10.5001 16.7199 10.5001 15.4 10.5001H15.05V8.4001C15.05 7.8202 14.5799 7.3501 14 7.3501C13.4201 7.3501 12.95 7.8202 12.95 8.4001V10.5001H12.6C11.2801 10.5001 10.6201 10.5001 10.2101 10.9101C9.8 11.3202 9.8 11.9802 9.8 13.3001V13.5854C10.0835 13.5109 10.3679 13.459 10.6478 13.4213C11.5517 13.2998 12.6628 13.2999 13.8747 13.3001H14.1253C15.3372 13.2999 16.4483 13.2998 17.3522 13.4213C17.6321 13.459 17.9165 13.5109 18.2 13.5854L18.2 13.3001C18.2 11.9802 18.2 11.3202 17.7899 10.9101Z" fill="#088F42"/>
<path fill-rule="evenodd" clip-rule="evenodd" d="M7 33.9501C6.4201 33.9501 5.95 34.4202 5.95 35.0001C5.95 35.58 6.4201 36.0501 7 36.0501H35C35.5799 36.0501 36.05 35.58 36.05 35.0001C36.05 34.4202 35.5799 33.9501 35 33.9501H33.6V15.0808C33.6 13.2036 33.6 12.2651 33.1014 11.5456C32.6028 10.8261 31.724 10.4965 29.9663 9.83738C26.5289 8.54838 24.8103 7.90387 23.6051 8.73903C22.4 9.57419 22.4 11.4097 22.4 15.0808V18.9001L22.5253 18.9001C23.7372 18.8999 24.8483 18.8998 25.7522 19.0213C26.7475 19.1552 27.7996 19.47 28.6648 20.3353C29.5301 21.2005 29.8449 22.2526 29.9788 23.2479C30.1003 24.1518 30.1002 25.2629 30.1 26.4748L30.1 26.6001V33.9501H28V26.6001C28 23.9602 28 22.6403 27.1799 21.8202C26.3598 21.0001 25.0399 21.0001 22.4 21.0001H19.6C16.9601 21.0001 15.6402 21.0001 14.8201 21.8202C14 22.6403 14 23.9602 14 26.6001V33.9501H11.9V26.6001L11.9 26.4748C11.8998 25.2629 11.8997 24.1518 12.0212 23.2479C12.1551 22.2526 12.4699 21.2005 13.3352 20.3353C14.2004 19.47 15.2525 19.1552 16.2478 19.0213C17.1517 18.8998 18.2628 18.8999 19.4747 18.9001L19.5755 18.9001C19.5211 17.5895 19.3456 16.7859 18.7799 16.2202C17.9598 15.4001 16.6399 15.4001 14 15.4001C11.3601 15.4001 10.0402 15.4001 9.2201 16.2202C8.4 17.0403 8.4 18.3602 8.4 21.0001V33.9501H7ZM17.15 25.2001C17.15 24.6202 17.6201 24.1501 18.2 24.1501H23.8C24.3799 24.1501 24.85 24.6202 24.85 25.2001C24.85 25.78 24.3799 26.2501 23.8 26.2501H18.2C17.6201 26.2501 17.15 25.78 17.15 25.2001ZM17.15 29.4001C17.15 28.8202 17.6201 28.3501 18.2 28.3501H23.8C24.3799 28.3501 24.85 28.8202 24.85 29.4001C24.85 29.98 24.3799 30.4501 23.8 30.4501H18.2C17.6201 30.4501 17.15 29.98 17.15 29.4001Z" fill="#088F42"/>
</svg>
