<svg width="16" height="17" viewBox="0 0 16 17" fill="none" xmlns="http://www.w3.org/2000/svg">
<path d="M13.3334 8.50008C13.3334 11.4456 10.9456 13.8334 8.00008 13.8334C5.05456 13.8334 2.66675 11.4456 2.66675 8.50008C2.66675 5.55456 5.05456 3.16675 8.00008 3.16675C10.9456 3.16675 13.3334 5.55456 13.3334 8.50008Z" fill="#088F42"/>
<path fill-rule="evenodd" clip-rule="evenodd" d="M8.00008 5.96675C8.221 5.96675 8.40008 6.14583 8.40008 6.36675V8.3344L9.61626 9.55057C9.77247 9.70678 9.77247 9.96005 9.61626 10.1163C9.46005 10.2725 9.20678 10.2725 9.05057 10.1163L7.71724 8.78292C7.64222 8.70791 7.60008 8.60617 7.60008 8.50008V6.36675C7.60008 6.14583 7.77917 5.96675 8.00008 5.96675Z" fill="white"/>
</svg>
