<svg width="24" height="24" viewBox="0 0 24 24" fill="none" xmlns="http://www.w3.org/2000/svg">
<path d="M4.875 18.375C4.87599 19.2698 5.23189 20.1277 5.86461 20.7604C6.49733 21.3931 7.3552 21.749 8.25 21.75H15.75C16.6451 21.75 17.5035 21.3944 18.1365 20.7615C18.7694 20.1286 19.125 19.2701 19.125 18.375C19.125 17.4799 18.7694 16.6215 18.1365 15.9885C17.5035 15.3556 16.6451 15 15.75 15H8.25C7.3552 15.001 6.49733 15.3569 5.86461 15.9896C5.23189 16.6223 4.87599 17.4802 4.875 18.375ZM15.75 15.75C16.4462 15.75 17.1139 16.0266 17.6062 16.5188C18.0984 17.0111 18.375 17.6788 18.375 18.375C18.375 19.0712 18.0984 19.7389 17.6062 20.2312C17.1139 20.7234 16.4462 21 15.75 21H8.25C7.55381 21 6.88613 20.7234 6.39384 20.2312C5.90156 19.7389 5.625 19.0712 5.625 18.375C5.625 17.6788 5.90156 17.0111 6.39384 16.5188C6.88613 16.0266 7.55381 15.75 8.25 15.75H15.75Z" fill="#0AB051"/>
<path d="M6.375 18.375C6.375 18.8942 6.52895 19.4017 6.81739 19.8334C7.10583 20.2651 7.5158 20.6015 7.99546 20.8002C8.47511 20.9989 9.00291 21.0508 9.51211 20.9496C10.0213 20.8483 10.489 20.5983 10.8562 20.2312C11.2233 19.864 11.4733 19.3963 11.5746 18.8871C11.6758 18.3779 11.6239 17.8501 11.4252 17.3705C11.2265 16.8908 10.8901 16.4808 10.4584 16.1924C10.0267 15.904 9.51918 15.75 9 15.75C8.30408 15.7509 7.63692 16.0277 7.14483 16.5198C6.65274 17.0119 6.37589 17.6791 6.375 18.375ZM9 16.5C9.37084 16.5 9.73335 16.61 10.0417 16.816C10.35 17.022 10.5904 17.3149 10.7323 17.6575C10.8742 18.0001 10.9113 18.3771 10.839 18.7408C10.7666 19.1045 10.588 19.4386 10.3258 19.7008C10.0636 19.963 9.72951 20.1416 9.36579 20.214C9.00208 20.2863 8.62508 20.2492 8.28247 20.1073C7.93986 19.9654 7.64702 19.725 7.44099 19.4167C7.23497 19.1084 7.125 18.7458 7.125 18.375C7.1256 17.8779 7.32333 17.4013 7.67483 17.0498C8.02633 16.6983 8.5029 16.5006 9 16.5Z" fill="#0AB051"/>
<path d="M9 19.5C9.2225 19.5 9.44001 19.434 9.62502 19.3104C9.81002 19.1868 9.95422 19.0111 10.0394 18.8055C10.1245 18.6 10.1468 18.3738 10.1034 18.1555C10.06 17.9373 9.95283 17.7368 9.7955 17.5795C9.63816 17.4222 9.43771 17.315 9.21948 17.2716C9.00125 17.2282 8.77505 17.2505 8.56948 17.3356C8.36391 17.4208 8.18821 17.565 8.0646 17.75C7.94098 17.935 7.875 18.1525 7.875 18.375C7.875 18.6734 7.99353 18.9595 8.2045 19.1705C8.41548 19.3815 8.70163 19.5 9 19.5ZM9 18C9.07417 18 9.14667 18.022 9.20834 18.0632C9.27001 18.1044 9.31807 18.163 9.34645 18.2315C9.37484 18.3 9.38226 18.3754 9.36779 18.4482C9.35333 18.5209 9.31761 18.5877 9.26517 18.6402C9.21272 18.6926 9.1459 18.7283 9.07316 18.7428C9.00042 18.7573 8.92502 18.7498 8.85649 18.7215C8.78797 18.6931 8.7294 18.645 8.6882 18.5833C8.64699 18.5217 8.625 18.4492 8.625 18.375C8.625 18.2755 8.66451 18.1802 8.73483 18.1098C8.80516 18.0395 8.90054 18 9 18Z" fill="#0AB051"/>
<path d="M12.375 18.375C12.375 18.8942 12.529 19.4017 12.8174 19.8334C13.1058 20.2651 13.5158 20.6015 13.9955 20.8002C14.4751 20.9989 15.0029 21.0508 15.5121 20.9496C16.0213 20.8483 16.489 20.5983 16.8562 20.2312C17.2233 19.864 17.4733 19.3963 17.5746 18.8871C17.6758 18.3779 17.6239 17.8501 17.4252 17.3705C17.2265 16.8908 16.8901 16.4808 16.4584 16.1924C16.0267 15.904 15.5192 15.75 15 15.75C14.3041 15.7509 13.6369 16.0277 13.1448 16.5198C12.6527 17.0119 12.3759 17.6791 12.375 18.375ZM15 16.5C15.3708 16.5 15.7334 16.61 16.0417 16.816C16.35 17.022 16.5904 17.3149 16.7323 17.6575C16.8742 18.0001 16.9113 18.3771 16.839 18.7408C16.7666 19.1045 16.588 19.4386 16.3258 19.7008C16.0636 19.963 15.7295 20.1416 15.3658 20.214C15.0021 20.2863 14.6251 20.2492 14.2825 20.1073C13.9399 19.9654 13.647 19.725 13.441 19.4167C13.235 19.1084 13.125 18.7458 13.125 18.375C13.1256 17.8779 13.3233 17.4013 13.6748 17.0498C14.0263 16.6983 14.5029 16.5006 15 16.5Z" fill="#0AB051"/>
<path d="M15 19.5C15.2225 19.5 15.44 19.434 15.625 19.3104C15.81 19.1868 15.9542 19.0111 16.0394 18.8055C16.1245 18.6 16.1468 18.3738 16.1034 18.1555C16.06 17.9373 15.9528 17.7368 15.7955 17.5795C15.6382 17.4222 15.4377 17.315 15.2195 17.2716C15.0012 17.2282 14.775 17.2505 14.5695 17.3356C14.3639 17.4208 14.1882 17.565 14.0646 17.75C13.941 17.935 13.875 18.1525 13.875 18.375C13.875 18.6734 13.9935 18.9595 14.2045 19.1705C14.4155 19.3815 14.7016 19.5 15 19.5ZM15 18C15.0742 18 15.1467 18.022 15.2083 18.0632C15.27 18.1044 15.3181 18.163 15.3465 18.2315C15.3748 18.3 15.3823 18.3754 15.3678 18.4482C15.3533 18.5209 15.3176 18.5877 15.2652 18.6402C15.2127 18.6926 15.1459 18.7283 15.0732 18.7428C15.0004 18.7573 14.925 18.7498 14.8565 18.7215C14.788 18.6931 14.7294 18.645 14.6882 18.5833C14.647 18.5217 14.625 18.4492 14.625 18.375C14.625 18.2755 14.6645 18.1802 14.7348 18.1098C14.8052 18.0395 14.9005 18 15 18Z" fill="#0AB051"/>
<path d="M12 7.125C12.2225 7.125 12.44 7.05902 12.625 6.9354C12.81 6.81179 12.9542 6.63609 13.0394 6.43052C13.1245 6.22495 13.1468 5.99875 13.1034 5.78052C13.06 5.5623 12.9528 5.36184 12.7955 5.20451C12.6382 5.04717 12.4377 4.94003 12.2195 4.89662C12.0012 4.85321 11.775 4.87549 11.5695 4.96064C11.3639 5.04578 11.1882 5.18998 11.0646 5.37498C10.941 5.55999 10.875 5.7775 10.875 6C10.875 6.29837 10.9935 6.58452 11.2045 6.7955C11.4155 7.00647 11.7016 7.125 12 7.125ZM12 5.625C12.0742 5.625 12.1467 5.64699 12.2083 5.6882C12.27 5.72941 12.3181 5.78797 12.3465 5.85649C12.3748 5.92502 12.3823 6.00042 12.3678 6.07316C12.3533 6.1459 12.3176 6.21272 12.2652 6.26517C12.2127 6.31761 12.1459 6.35333 12.0732 6.3678C12.0004 6.38226 11.925 6.37484 11.8565 6.34646C11.788 6.31807 11.7294 6.27001 11.6882 6.20834C11.647 6.14667 11.625 6.07417 11.625 6C11.625 5.90054 11.6645 5.80516 11.7348 5.73484C11.8052 5.66451 11.9005 5.625 12 5.625Z" fill="#0AB051"/>
<path d="M10.125 6.375C10.125 6.1525 10.059 5.93499 9.9354 5.74998C9.81179 5.56498 9.63609 5.42078 9.43052 5.33564C9.22495 5.25049 8.99875 5.22821 8.78052 5.27162C8.5623 5.31503 8.36184 5.42217 8.20451 5.57951C8.04717 5.73684 7.94003 5.9373 7.89662 6.15552C7.85321 6.37375 7.87549 6.59995 7.96064 6.80552C8.04578 7.01109 8.18998 7.18679 8.37498 7.3104C8.55999 7.43402 8.7775 7.5 9 7.5C9.29837 7.5 9.58452 7.38147 9.7955 7.1705C10.0065 6.95952 10.125 6.67337 10.125 6.375ZM9 6.75C8.92583 6.75 8.85333 6.72801 8.79166 6.6868C8.72999 6.6456 8.68193 6.58703 8.65355 6.51851C8.62516 6.44998 8.61774 6.37458 8.63221 6.30184C8.64668 6.2291 8.68239 6.16228 8.73484 6.10984C8.78728 6.05739 8.8541 6.02168 8.92684 6.00721C8.99958 5.99274 9.07498 6.00016 9.14351 6.02855C9.21203 6.05693 9.2706 6.10499 9.3118 6.16666C9.35301 6.22833 9.375 6.30083 9.375 6.375C9.375 6.47446 9.33549 6.56984 9.26517 6.64017C9.19484 6.71049 9.09946 6.75 9 6.75Z" fill="#0AB051"/>
<path d="M10.5 7.125C10.2775 7.125 10.06 7.19098 9.87498 7.3146C9.68998 7.43821 9.54578 7.61391 9.46064 7.81948C9.37549 8.02505 9.35321 8.25125 9.39662 8.46948C9.44003 8.68771 9.54717 8.88816 9.70451 9.0455C9.86184 9.20283 10.0623 9.30998 10.2805 9.35338C10.4988 9.39679 10.725 9.37451 10.9305 9.28936C11.1361 9.20422 11.3118 9.06002 11.4354 8.87502C11.559 8.69001 11.625 8.4725 11.625 8.25C11.625 7.95163 11.5065 7.66548 11.2955 7.4545C11.0845 7.24353 10.7984 7.125 10.5 7.125ZM10.5 8.625C10.4258 8.625 10.3533 8.60301 10.2917 8.5618C10.23 8.5206 10.1819 8.46203 10.1535 8.39351C10.1252 8.32498 10.1177 8.24958 10.1322 8.17684C10.1467 8.1041 10.1824 8.03728 10.2348 7.98483C10.2873 7.93239 10.3541 7.89667 10.4268 7.88221C10.4996 7.86774 10.575 7.87516 10.6435 7.90355C10.712 7.93193 10.7706 7.97999 10.8118 8.04166C10.853 8.10333 10.875 8.17583 10.875 8.25C10.875 8.34946 10.8355 8.44484 10.7652 8.51517C10.6948 8.58549 10.5995 8.625 10.5 8.625Z" fill="#0AB051"/>
<path d="M13.875 6.375C13.875 6.5975 13.941 6.81501 14.0646 7.00002C14.1882 7.18502 14.3639 7.32922 14.5695 7.41436C14.775 7.49951 15.0012 7.52179 15.2195 7.47838C15.4377 7.43498 15.6382 7.32783 15.7955 7.1705C15.9528 7.01316 16.06 6.81271 16.1034 6.59448C16.1468 6.37625 16.1245 6.15005 16.0394 5.94448C15.9542 5.73891 15.81 5.56321 15.625 5.4396C15.44 5.31598 15.2225 5.25 15 5.25C14.7016 5.25 14.4155 5.36853 14.2045 5.5795C13.9935 5.79048 13.875 6.07663 13.875 6.375ZM15 6C15.0742 6 15.1467 6.02199 15.2083 6.0632C15.27 6.1044 15.3181 6.16297 15.3465 6.23149C15.3748 6.30002 15.3823 6.37542 15.3678 6.44816C15.3533 6.5209 15.3176 6.58772 15.2652 6.64017C15.2127 6.69261 15.1459 6.72833 15.0732 6.74279C15.0004 6.75726 14.925 6.74984 14.8565 6.72145C14.788 6.69307 14.7294 6.64501 14.6882 6.58334C14.647 6.52167 14.625 6.44917 14.625 6.375C14.625 6.27554 14.6645 6.18016 14.7348 6.10983C14.8052 6.03951 14.9005 6 15 6Z" fill="#0AB051"/>
<path d="M13.5 7.125C13.2775 7.125 13.06 7.19098 12.875 7.3146C12.69 7.43821 12.5458 7.61391 12.4606 7.81948C12.3755 8.02505 12.3532 8.25125 12.3966 8.46948C12.44 8.68771 12.5472 8.88816 12.7045 9.0455C12.8618 9.20283 13.0623 9.30998 13.2805 9.35338C13.4988 9.39679 13.725 9.37451 13.9305 9.28936C14.1361 9.20422 14.3118 9.06002 14.4354 8.87502C14.559 8.69001 14.625 8.4725 14.625 8.25C14.625 7.95163 14.5065 7.66548 14.2955 7.4545C14.0845 7.24353 13.7984 7.125 13.5 7.125ZM13.5 8.625C13.4258 8.625 13.3533 8.60301 13.2917 8.5618C13.23 8.5206 13.1819 8.46203 13.1535 8.39351C13.1252 8.32498 13.1177 8.24958 13.1322 8.17684C13.1467 8.1041 13.1824 8.03728 13.2348 7.98483C13.2873 7.93239 13.3541 7.89667 13.4268 7.88221C13.4996 7.86774 13.575 7.87516 13.6435 7.90355C13.712 7.93193 13.7706 7.97999 13.8118 8.04166C13.853 8.10333 13.875 8.17583 13.875 8.25C13.875 8.34946 13.8355 8.44484 13.7652 8.51517C13.6948 8.58549 13.5995 8.625 13.5 8.625Z" fill="#0AB051"/>
<path d="M10.125 5.25C10.5392 5.25 10.875 4.91421 10.875 4.5C10.875 4.08579 10.5392 3.75 10.125 3.75C9.71079 3.75 9.375 4.08579 9.375 4.5C9.375 4.91421 9.71079 5.25 10.125 5.25Z" fill="#0AB051"/>
<path d="M13.875 5.25C14.2892 5.25 14.625 4.91421 14.625 4.5C14.625 4.08579 14.2892 3.75 13.875 3.75C13.4608 3.75 13.125 4.08579 13.125 4.5C13.125 4.91421 13.4608 5.25 13.875 5.25Z" fill="#0AB051"/>
<path d="M16.0127 9.39525C16.5953 8.64463 17.007 7.77588 17.2192 6.84967C17.4313 5.92346 17.4387 4.96212 17.2408 4.03275L17.008 3.10013C16.9466 2.85675 16.8057 2.64088 16.6075 2.48683C16.4094 2.33279 16.1654 2.24942 15.9145 2.25H8.08595C7.83504 2.24995 7.59132 2.33377 7.39352 2.48815C7.19572 2.64252 7.05521 2.85859 6.99433 3.102L6.75695 4.0545C6.56233 4.98083 6.57178 5.93842 6.78465 6.86073C6.99751 7.78303 7.40868 8.64791 7.98958 9.39525C8.47655 9.98498 9.08975 10.4578 9.78391 10.7788C10.4781 11.0999 11.2355 11.2609 12.0002 11.25C12.7652 11.2612 13.523 11.1003 14.2175 10.7792C14.912 10.4582 15.5255 9.98523 16.0127 9.39525ZM8.56745 8.91675C8.05807 8.25797 7.69782 7.49643 7.51161 6.68477C7.3254 5.87311 7.31767 5.03069 7.48895 4.21575L7.72183 3.28425C7.74208 3.20303 7.78894 3.13092 7.85493 3.07941C7.92091 3.02789 8.00224 2.99994 8.08595 3H15.9145C15.9981 2.99992 16.0794 3.02782 16.1454 3.07926C16.2114 3.1307 16.2582 3.20272 16.2786 3.28388L16.507 4.1955C16.6812 5.01325 16.6754 5.85914 16.49 6.67442C16.3045 7.48971 15.9438 8.25486 15.433 8.91675C15.0186 9.42402 14.4941 9.83023 13.8993 10.1046C13.3045 10.3789 12.6551 10.5141 12.0002 10.5C11.3454 10.5141 10.6959 10.3789 10.1011 10.1046C9.50631 9.83023 8.98183 9.42402 8.56745 8.91675Z" fill="#0AB051"/>
<path d="M9.75012 13.5H8.40012C7.10462 13.4865 5.8549 13.9786 4.91656 14.872C3.97822 15.7653 3.42523 16.9893 3.37512 18.2839C3.36301 18.9317 3.48016 19.5755 3.71972 20.1775C3.95929 20.7795 4.31645 21.3277 4.77035 21.7901C5.22425 22.2525 5.76577 22.6198 6.36325 22.8704C6.96073 23.1211 7.60218 23.2501 8.25012 23.25H15.7501C16.3981 23.2501 17.0395 23.1211 17.637 22.8704C18.2345 22.6198 18.776 22.2525 19.2299 21.7901C19.6838 21.3277 20.041 20.7795 20.2805 20.1775C20.5201 19.5755 20.6372 18.9317 20.6251 18.2839C20.575 16.9893 20.022 15.7653 19.0837 14.872C18.1453 13.9786 16.8956 13.4865 15.6001 13.5H14.2501C14.1508 13.5039 14.0518 13.4873 13.9592 13.4511C13.8666 13.415 13.7825 13.3601 13.7121 13.2899C13.6417 13.2198 13.5865 13.1359 13.5501 13.0434C13.5136 12.951 13.4966 12.852 13.5001 12.7527V12.7065C13.5028 12.6286 13.5335 12.5543 13.5865 12.4971C13.6395 12.4399 13.7114 12.4038 13.7889 12.3953C17.0251 11.8984 18.7501 8.14428 18.7501 5.62503C18.7446 4.36148 18.5047 3.10992 18.0425 1.9339C17.9056 1.5834 17.6657 1.28263 17.3544 1.07128C17.0431 0.859922 16.675 0.747913 16.2987 0.750029H7.70149C7.32522 0.747913 6.95715 0.859922 6.64584 1.07128C6.33453 1.28263 6.09461 1.5834 5.95774 1.9339C5.49558 3.10992 5.25565 4.36148 5.25012 5.62503C5.25012 8.14428 6.97512 11.8984 10.2114 12.3953C10.2889 12.4038 10.3607 12.4399 10.4137 12.4971C10.4668 12.5543 10.4974 12.6286 10.5001 12.7065V12.7527C10.5037 12.852 10.4866 12.951 10.4502 13.0434C10.4137 13.1359 10.3585 13.2198 10.2881 13.2899C10.2177 13.3601 10.1336 13.415 10.041 13.4511C9.94847 13.4873 9.84943 13.5039 9.75012 13.5ZM10.325 11.6539C7.54024 11.2268 6.00012 7.81803 6.00012 5.62503C6.00534 4.45553 6.22761 3.29716 6.65562 2.20878C6.73778 1.99871 6.88174 1.8185 7.06847 1.69196C7.25521 1.56542 7.47593 1.49849 7.70149 1.50003H16.2987C16.5243 1.49849 16.745 1.56542 16.9318 1.69196C17.1185 1.8185 17.2625 1.99871 17.3446 2.20878C17.7726 3.29716 17.9949 4.45553 18.0001 5.62503C18.0001 7.81803 16.46 11.2268 13.6752 11.6539C13.4202 11.6887 13.1863 11.8143 13.0164 12.0077C12.8464 12.201 12.7519 12.4491 12.7501 12.7065V12.7527C12.7461 12.9506 12.7821 13.1474 12.8561 13.331C12.9301 13.5147 13.0405 13.6815 13.1806 13.8214C13.3208 13.9613 13.4878 14.0714 13.6716 14.1451C13.8554 14.2187 14.0522 14.2544 14.2501 14.25H15.6001C16.6994 14.2356 17.7609 14.6504 18.5592 15.4062C19.3574 16.1621 19.8295 17.1994 19.8751 18.2978C19.8854 18.8459 19.7863 19.3907 19.5836 19.9001C19.3809 20.4095 19.0787 20.8734 18.6946 21.2647C18.3105 21.6559 17.8523 21.9667 17.3467 22.1788C16.8412 22.3909 16.2984 22.5001 15.7501 22.5H8.25012C7.70185 22.5001 7.15907 22.3909 6.6535 22.1788C6.14793 21.9667 5.68972 21.6559 5.30565 21.2647C4.92158 20.8734 4.61936 20.4095 4.41666 19.9001C4.21396 19.3907 4.11485 18.8459 4.12512 18.2978C4.17071 17.1994 4.6428 16.1621 5.44107 15.4062C6.23934 14.6504 7.30088 14.2356 8.40012 14.25H9.75012C9.94808 14.2544 10.1449 14.2187 10.3287 14.1451C10.5125 14.0714 10.6795 13.9613 10.8196 13.8214C10.9598 13.6815 11.0701 13.5147 11.1441 13.331C11.2181 13.1474 11.2542 12.9506 11.2501 12.7527V12.7065C11.2483 12.4491 11.1538 12.201 10.9839 12.0077C10.814 11.8143 10.58 11.6887 10.325 11.6539Z" fill="#0AB051"/>
</svg>
