<svg width="20" height="20" viewBox="0 0 20 20" fill="none" xmlns="http://www.w3.org/2000/svg">
<path d="M9.50016 7.23157C8.87623 7.40218 8.50016 7.88095 8.50016 8.33325C8.50016 8.78556 8.87623 9.26432 9.50016 9.43493V7.23157Z" fill="#088F42"/>
<path d="M10.5002 10.5649V12.7683C11.1241 12.5977 11.5002 12.1189 11.5002 11.6666C11.5002 11.2143 11.1241 10.7355 10.5002 10.5649Z" fill="#088F42"/>
<path fill-rule="evenodd" clip-rule="evenodd" d="M16.6668 9.99992C16.6668 13.6818 13.6821 16.6666 10.0002 16.6666C6.31826 16.6666 3.3335 13.6818 3.3335 9.99992C3.3335 6.31802 6.31826 3.33325 10.0002 3.33325C13.6821 3.33325 16.6668 6.31802 16.6668 9.99992ZM10.0002 5.49992C10.2763 5.49992 10.5002 5.72378 10.5002 5.99992V6.21107C11.5871 6.4057 12.5002 7.22232 12.5002 8.33325C12.5002 8.60939 12.2763 8.83325 12.0002 8.83325C11.724 8.83325 11.5002 8.60939 11.5002 8.33325C11.5002 7.88095 11.1241 7.40218 10.5002 7.23157V9.54441C11.5871 9.73903 12.5002 10.5557 12.5002 11.6666C12.5002 12.7775 11.5871 13.5941 10.5002 13.7888V13.9999C10.5002 14.2761 10.2763 14.4999 10.0002 14.4999C9.72402 14.4999 9.50016 14.2761 9.50016 13.9999V13.7888C8.41321 13.5941 7.50016 12.7775 7.50016 11.6666C7.50016 11.3904 7.72402 11.1666 8.00016 11.1666C8.27631 11.1666 8.50016 11.3904 8.50016 11.6666C8.50016 12.1189 8.87623 12.5977 9.50016 12.7683V10.4554C8.41321 10.2608 7.50016 9.44418 7.50016 8.33325C7.50016 7.22232 8.41321 6.4057 9.50016 6.21107V5.99992C9.50016 5.72378 9.72402 5.49992 10.0002 5.49992Z" fill="#088F42"/>
</svg>
