<svg width="30" height="31" viewBox="0 0 30 31" fill="none" xmlns="http://www.w3.org/2000/svg">
<path fill-rule="evenodd" clip-rule="evenodd" d="M13 5.5H12C9.17157 5.5 7.75736 5.5 6.87868 6.37868C6 7.25736 6 8.67157 6 11.5V24.75H5C4.58579 24.75 4.25 25.0858 4.25 25.5C4.25 25.9142 4.58579 26.25 5 26.25H20.25C20.6642 26.25 21 25.9142 21 25.5C21 25.0858 20.6642 24.75 20.25 24.75H19V21.25H20.5714C20.9462 21.25 21.25 21.5538 21.25 21.9286V22C21.25 23.2427 22.2574 24.25 23.5 24.25C24.7426 24.25 25.75 23.2427 25.75 22V11.1018C25.75 10.9451 25.75 10.837 25.7441 10.7316C25.6884 9.74063 25.2422 8.81214 24.5031 8.14962C24.4245 8.07915 24.3401 8.01163 24.2178 7.91378L22.9685 6.91438C22.6451 6.65562 22.1731 6.70806 21.9143 7.03151C21.6556 7.35495 21.708 7.82692 22.0315 8.08568L23.2646 9.07215C23.4091 9.18774 23.4585 9.22768 23.5019 9.26653C23.9453 9.66405 24.2131 10.2211 24.2465 10.8157C24.2497 10.8738 24.25 10.9374 24.25 11.1225V11.5H23.5C22.6716 11.5 22 12.1716 22 13V15.4189C22 16.0645 22.4131 16.6377 23.0257 16.8419L24.25 17.25V22C24.25 22.4142 23.9142 22.75 23.5 22.75C23.0858 22.75 22.75 22.4142 22.75 22V21.9286C22.75 20.7254 21.7746 19.75 20.5714 19.75H19V11.5C19 8.67157 19 7.25736 18.1213 6.37868C17.2426 5.5 15.8284 5.5 13 5.5ZM12.8859 12.8569C13.2411 13.07 13.3562 13.5307 13.1431 13.8859L12.3246 15.25H14C14.2702 15.25 14.5195 15.3953 14.6527 15.6305C14.7858 15.8656 14.7821 16.1542 14.6431 16.3859L13.1431 18.8859C12.93 19.2411 12.4693 19.3562 12.1141 19.1431C11.7589 18.93 11.6438 18.4693 11.8569 18.1141L12.6754 16.75H11C10.7298 16.75 10.4805 16.6047 10.3474 16.3695C10.2142 16.1344 10.2179 15.8458 10.3569 15.6141L11.8569 13.1141C12.07 12.7589 12.5307 12.6438 12.8859 12.8569Z" fill="#088F42"/>
</svg>
