<svg width="42" height="42" viewBox="0 0 42 42" fill="none" xmlns="http://www.w3.org/2000/svg">
<g filter="url(#filter0_d_149_873)">
<circle cx="21" cy="21" r="14" fill="#077335" fill-opacity="0.7" shape-rendering="crispEdges"/>
</g>
<circle cx="21" cy="21" r="10" fill="#0AB051" fill-opacity="0.8"/>
<path fill-rule="evenodd" clip-rule="evenodd" d="M19.9333 15.6665H19.3999C17.8914 15.6665 17.1372 15.6665 16.6686 16.1351C16.1999 16.6038 16.1999 17.358 16.1999 18.8665V25.9332H15.6666C15.4457 25.9332 15.2666 26.1123 15.2666 26.3332C15.2666 26.5541 15.4457 26.7332 15.6666 26.7332H23.7999C24.0208 26.7332 24.1999 26.5541 24.1999 26.3332C24.1999 26.1123 24.0208 25.9332 23.7999 25.9332H23.1333V24.0665H23.9714C24.1712 24.0665 24.3333 24.2285 24.3333 24.4284V24.4665C24.3333 25.1293 24.8705 25.6665 25.5333 25.6665C26.196 25.6665 26.7333 25.1293 26.7333 24.4665V18.6541C26.7333 18.5706 26.7333 18.5129 26.7301 18.4567C26.7004 17.9282 26.4624 17.433 26.0683 17.0796C26.0263 17.0421 25.9813 17.006 25.9161 16.9539L25.2498 16.4208C25.0773 16.2828 24.8256 16.3108 24.6876 16.4833C24.5496 16.6558 24.5776 16.9075 24.7501 17.0455L25.4077 17.5716C25.4848 17.6333 25.5112 17.6546 25.5343 17.6753C25.7708 17.8873 25.9136 18.1844 25.9314 18.5016C25.9331 18.5325 25.9333 18.5665 25.9333 18.6652V18.8665H25.5333C25.0914 18.8665 24.7333 19.2247 24.7333 19.6665V20.9566C24.7333 21.3009 24.9536 21.6066 25.2803 21.7155L25.9333 21.9332V24.4665C25.9333 24.6874 25.7542 24.8665 25.5333 24.8665C25.3124 24.8665 25.1333 24.6874 25.1333 24.4665V24.4284C25.1333 23.7867 24.6131 23.2665 23.9714 23.2665H23.1333V18.8665C23.1333 17.358 23.1333 16.6038 22.6646 16.1351C22.196 15.6665 21.4418 15.6665 19.9333 15.6665ZM19.8724 19.5902C20.0618 19.7038 20.1233 19.9495 20.0096 20.139L19.5731 20.8665H20.4666C20.6107 20.8665 20.7437 20.944 20.8147 21.0694C20.8857 21.1948 20.8837 21.3487 20.8096 21.4723L20.0096 22.8056C19.8959 22.9951 19.6502 23.0565 19.4608 22.9428C19.2714 22.8292 19.2099 22.5835 19.3236 22.394L19.7601 21.6665H18.8666C18.7225 21.6665 18.5895 21.589 18.5185 21.4636C18.4475 21.3382 18.4495 21.1843 18.5236 21.0607L19.3236 19.7274C19.4373 19.5379 19.683 19.4765 19.8724 19.5902Z" fill="white"/>
<defs>
<filter id="filter0_d_149_873" x="0" y="0" width="42" height="42" filterUnits="userSpaceOnUse" color-interpolation-filters="sRGB">
<feFlood flood-opacity="0" result="BackgroundImageFix"/>
<feColorMatrix in="SourceAlpha" type="matrix" values="0 0 0 0 0 0 0 0 0 0 0 0 0 0 0 0 0 0 127 0" result="hardAlpha"/>
<feMorphology radius="3" operator="dilate" in="SourceAlpha" result="effect1_dropShadow_149_873"/>
<feOffset/>
<feGaussianBlur stdDeviation="2"/>
<feComposite in2="hardAlpha" operator="out"/>
<feColorMatrix type="matrix" values="0 0 0 0 0.0392157 0 0 0 0 0.690196 0 0 0 0 0.317647 0 0 0 0.5 0"/>
<feBlend mode="normal" in2="BackgroundImageFix" result="effect1_dropShadow_149_873"/>
<feBlend mode="normal" in="SourceGraphic" in2="effect1_dropShadow_149_873" result="shape"/>
</filter>
</defs>
</svg>
