<svg width="24" height="24" viewBox="0 0 24 24" fill="none" xmlns="http://www.w3.org/2000/svg">
<path fill-rule="evenodd" clip-rule="evenodd" d="M10.1658 4.32696C9.59998 4.82855 9.59998 5.74607 9.59998 7.58112V16.4189C9.59998 18.2539 9.59998 19.1715 10.1658 19.673C10.7316 20.1746 11.5964 20.0238 13.3261 19.7221L15.1891 19.3972C17.1047 19.0631 18.0625 18.896 18.6312 18.1934C19.2 17.4908 19.2 16.4746 19.2 14.4423V9.55769C19.2 7.52537 19.2 6.50921 18.6312 5.8066C18.0625 5.104 17.1047 4.93694 15.1891 4.60283L13.3261 4.27788C11.5964 3.9762 10.7316 3.82536 10.1658 4.32696ZM12 10.5349C12.3313 10.5349 12.6 10.816 12.6 11.1628V12.8372C12.6 13.184 12.3313 13.4651 12 13.4651C11.6686 13.4651 11.4 13.184 11.4 12.8372V11.1628C11.4 10.816 11.6686 10.5349 12 10.5349Z" fill="#FF0000"/>
<path d="M8.43778 6C6.79116 6.0024 5.93284 6.03861 5.38584 6.58562C4.80005 7.1714 4.80005 8.11421 4.80005 9.99983V13.9998C4.80005 15.8854 4.80005 16.8283 5.38584 17.414C5.93284 17.9611 6.79116 17.9973 8.43778 17.9997C8.39993 17.501 8.39999 16.9245 8.40005 16.3015V7.69816C8.39999 7.07511 8.39993 6.49864 8.43778 6Z" fill="#FF0000"/>
</svg>
