<svg width="24" height="25" viewBox="0 0 24 25" fill="none" xmlns="http://www.w3.org/2000/svg">
<path d="M17.6 5.30005H6.4C5.26863 5.30005 4.70294 5.30005 4.35147 5.62981C4 5.95956 4 6.4903 4 7.55178V8.10363C4 8.93391 4 9.34904 4.20768 9.69318C4.41536 10.0373 4.79478 10.2509 5.55361 10.6781L7.88404 11.99C8.39317 12.2766 8.64774 12.4199 8.83001 12.5781C9.20959 12.9076 9.44326 13.2949 9.54915 13.7698C9.6 13.9978 9.6 14.2647 9.6 14.7984L9.6 16.934C9.6 17.6616 9.6 18.0254 9.80154 18.3091C10.0031 18.5927 10.361 18.7326 11.0769 19.0125C12.5798 19.6 13.3313 19.8938 13.8656 19.5596C14.4 19.2253 14.4 18.4615 14.4 16.934V14.7984C14.4 14.2647 14.4 13.9978 14.4508 13.7698C14.5567 13.2949 14.7904 12.9076 15.17 12.5781C15.3523 12.4199 15.6068 12.2766 16.116 11.99L18.4464 10.6781C19.2052 10.2509 19.5846 10.0373 19.7923 9.69318C20 9.34904 20 8.93391 20 8.10363V7.55178C20 6.4903 20 5.95956 19.6485 5.62981C19.2971 5.30005 18.7314 5.30005 17.6 5.30005Z" stroke="#0AB051" stroke-width="1.5"/>
</svg>
