<svg width="200" height="80" viewBox="0 0 200 80" fill="none" xmlns="http://www.w3.org/2000/svg">
<path d="M89.9817 12.9821C89.3757 10.8515 88.3789 9.21942 86.9911 8.08573C85.6033 6.93249 83.9712 6.35588 82.0947 6.35588C79.6905 6.35588 77.7554 7.27456 76.2894 9.11192C74.843 10.9297 74.1198 13.4805 74.1198 16.7643C74.1198 19.794 74.8137 22.1885 76.2015 23.9476C77.6088 25.6873 79.368 26.5571 81.479 26.5571C83.3554 26.5571 84.8605 25.8339 85.9942 24.3874C87.1279 22.9214 87.6947 21.1036 87.6947 18.934H87.079C87.079 20.3609 86.6295 21.5043 85.7303 22.3644C84.8312 23.2049 83.6877 23.6251 82.2999 23.6251C80.7753 23.6251 79.5341 22.9996 78.5764 21.7487C77.6186 20.4781 77.1397 18.7287 77.1397 16.5005C77.1397 14.194 77.5893 12.4153 78.4884 11.1643C79.3875 9.89377 80.6385 9.25851 82.2413 9.25851C84.7041 9.25851 86.3167 10.6952 87.079 13.5685L89.9817 12.9821ZM80.3648 16.1193V18.934H87.079V20.8984L88.1639 21.2795L87.079 25.9707H90.0696V16.1193H80.3648ZM92.1692 12.513H95.1598L94.2802 16.002L95.1598 16.3245V26H92.1692V12.513ZM98.9713 15.1811C97.9354 15.1811 97.0362 15.484 96.2739 16.09C95.5312 16.6764 95.1598 17.4387 95.1598 18.3769L94.72 17.6439C94.72 16.0411 95.1305 14.7608 95.9514 13.8031C96.7919 12.8453 97.8963 12.3664 99.2645 12.3664H100.349V15.1811H98.9713ZM103.998 20.0481C104.095 21.2991 104.476 22.2569 105.141 22.9214C105.806 23.586 106.705 23.9183 107.838 23.9183C108.738 23.9183 109.48 23.6935 110.067 23.244C110.673 22.7944 111.054 22.1689 111.21 21.3675L114.113 21.8366C113.781 23.3026 113.048 24.4558 111.914 25.2963C110.8 26.1368 109.441 26.5571 107.838 26.5571C105.688 26.5571 103.998 25.9023 102.766 24.5927C101.554 23.2831 100.948 21.4848 100.948 19.1979C100.948 16.9305 101.535 15.1518 102.708 13.8617C103.88 12.5521 105.483 11.8973 107.516 11.8973C109.568 11.8973 111.181 12.5521 112.354 13.8617C113.526 15.1713 114.113 16.8914 114.113 19.0219V20.0481H103.998ZM104.056 17.9371H111.064C111.064 16.9402 110.722 16.1193 110.037 15.4743C109.373 14.8292 108.532 14.5067 107.516 14.5067C106.539 14.5067 105.747 14.8097 105.141 15.4156C104.555 16.002 104.193 16.8425 104.056 17.9371ZM118.801 20.0481C118.898 21.2991 119.279 22.2569 119.944 22.9214C120.609 23.586 121.508 23.9183 122.641 23.9183C123.541 23.9183 124.283 23.6935 124.87 23.244C125.476 22.7944 125.857 22.1689 126.013 21.3675L128.916 21.8366C128.584 23.3026 127.851 24.4558 126.717 25.2963C125.603 26.1368 124.244 26.5571 122.641 26.5571C120.491 26.5571 118.801 25.9023 117.569 24.5927C116.357 23.2831 115.751 21.4848 115.751 19.1979C115.751 16.9305 116.338 15.1518 117.51 13.8617C118.683 12.5521 120.286 11.8973 122.319 11.8973C124.371 11.8973 125.984 12.5521 127.157 13.8617C128.329 15.1713 128.916 16.8914 128.916 19.0219V20.0481H118.801ZM118.859 17.9371H125.867C125.867 16.9402 125.524 16.1193 124.84 15.4743C124.176 14.8292 123.335 14.5067 122.319 14.5067C121.342 14.5067 120.55 14.8097 119.944 15.4156C119.358 16.002 118.996 16.8425 118.859 17.9371ZM140.083 17.5853C140.083 16.6666 139.809 15.9336 139.262 15.3863C138.715 14.8195 138.001 14.536 137.122 14.536C136.223 14.536 135.48 14.8292 134.894 15.4156C134.307 15.9825 134.014 16.7252 134.014 17.6439H133.545C133.545 16.0411 133.994 14.6924 134.894 13.5978C135.793 12.5032 136.965 11.9559 138.412 11.9559C139.741 11.9559 140.855 12.4739 141.754 13.5099C142.653 14.5263 143.103 15.7772 143.103 17.2628V26H140.083V17.5853ZM131.023 12.513H134.014L133.193 16.0313L134.014 16.3245V26H131.023V12.513ZM167.346 12.9821C166.741 10.8515 165.744 9.21942 164.356 8.08573C162.968 6.93249 161.336 6.35588 159.459 6.35588C157.055 6.35588 155.12 7.27456 153.654 9.11192C152.208 10.9297 151.485 13.4805 151.485 16.7643C151.485 19.794 152.178 22.1885 153.566 23.9476C154.974 25.6873 156.733 26.5571 158.844 26.5571C160.72 26.5571 162.225 25.8339 163.359 24.3874C164.493 22.9214 165.06 21.1036 165.06 18.934H164.444C164.444 20.3609 163.994 21.5043 163.095 22.3644C162.196 23.2049 161.053 23.6251 159.665 23.6251C158.14 23.6251 156.899 22.9996 155.941 21.7487C154.983 20.4781 154.504 18.7287 154.504 16.5005C154.504 14.194 154.954 12.4153 155.853 11.1643C156.752 9.89377 158.003 9.25851 159.606 9.25851C162.069 9.25851 163.681 10.6952 164.444 13.5685L167.346 12.9821ZM157.73 16.1193V18.934H164.444V20.8984L165.529 21.2795L164.444 25.9707H167.434V16.1193H157.73ZM169.534 12.513H172.525L171.645 16.002L172.525 16.3245V26H169.534V12.513ZM176.336 15.1811C175.3 15.1811 174.401 15.484 173.639 16.09C172.896 16.6764 172.525 17.4387 172.525 18.3769L172.085 17.6439C172.085 16.0411 172.495 14.7608 173.316 13.8031C174.157 12.8453 175.261 12.3664 176.629 12.3664H177.714V15.1811H176.336ZM179.646 10.1674C179.294 9.81559 179.118 9.39534 179.118 8.90668C179.118 8.41802 179.294 7.99777 179.646 7.64594C179.998 7.2941 180.408 7.11818 180.877 7.11818C181.366 7.11818 181.786 7.2941 182.138 7.64594C182.49 7.99777 182.666 8.41802 182.666 8.90668C182.666 9.39534 182.49 9.81559 182.138 10.1674C181.786 10.5193 181.366 10.6952 180.877 10.6952C180.408 10.6952 179.998 10.5193 179.646 10.1674ZM179.441 12.513H182.431V26H179.441V12.513ZM193.793 22.7162C194.419 21.8953 194.732 20.7322 194.732 19.2272C194.732 17.7221 194.419 16.5591 193.793 15.7381C193.168 14.9172 192.288 14.5067 191.155 14.5067C189.982 14.5067 189.073 14.9172 188.428 15.7381C187.783 16.5395 187.46 17.7026 187.46 19.2272C187.46 20.7322 187.783 21.8953 188.428 22.7162C189.073 23.5176 189.982 23.9183 191.155 23.9183C192.288 23.9183 193.168 23.5176 193.793 22.7162ZM194.028 13.8031C194.947 15.0736 195.406 16.8816 195.406 19.2272C195.406 21.5727 194.937 23.3808 193.999 24.6513C193.08 25.9218 191.78 26.5571 190.099 26.5571C188.418 26.5571 187.05 25.912 185.994 24.622C184.958 23.3124 184.44 21.5434 184.44 19.3151C184.44 16.9891 184.998 15.1713 186.112 13.8617C187.226 12.5521 188.604 11.8973 190.246 11.8973C191.868 11.8973 193.129 12.5325 194.028 13.8031ZM197.898 5.85744V26H194.732L195.582 22.511L194.732 22.1885V16.3245L195.641 16.002L194.732 12.513V5.85744H197.898Z" fill="#0AB051"/>
<path d="M15.598 61.6345C18.6082 61.6345 20.6801 61.2045 23.182 60.149L21.7747 54.4023C19.7419 55.1451 18.1391 55.5751 16.2235 55.5751C13.8779 55.5751 11.9233 54.8714 10.516 53.4641C8.99134 51.9395 8.09221 49.7112 8.09221 46.8965C8.09221 44.1991 9.03043 41.8926 10.4378 40.4462C11.806 39.078 13.6434 38.3743 15.8717 38.3743C18.1781 38.3743 19.7809 38.8825 21.7747 39.6253L23.1429 33.6832C20.6801 32.8622 18.8818 32.3149 15.6762 32.3149C11.7278 32.3149 8.09221 33.7222 5.4339 36.3806C2.97105 38.8434 1.40734 42.5572 1.40734 46.9747C1.40734 51.8613 2.93196 55.2233 5.4339 57.7252C8.09221 60.3835 11.7278 61.6345 15.598 61.6345Z" fill="#0AB051"/>
<mask id="mask0_161_3370" style="mask-type:alpha" maskUnits="userSpaceOnUse" x="24" y="39" width="20" height="23">
<path d="M24.5048 50.454C24.5048 57.647 28.6877 61.7127 34.1607 61.7127C39.6337 61.7127 43.8166 57.6079 43.8166 50.4149C43.8166 43.2218 39.6337 39.1952 34.1607 39.1952C28.6877 39.1952 24.5048 43.3 24.5048 50.454ZM30.1732 50.4149C30.1732 46.3883 31.5024 44.3946 34.1216 44.3946C36.819 44.3946 38.1482 46.4274 38.1482 50.454C38.1482 54.4805 36.819 56.5133 34.1998 56.5133C31.5024 56.5133 30.1732 54.4805 30.1732 50.4149Z" fill="#0AB051"/>
</mask>
<g mask="url(#mask0_161_3370)">
</g>
<g clip-path="url(#clip0_161_3370)">
<path d="M33.9618 61.0826C30.892 61.0826 28.2176 59.3808 26.8331 56.8679C23.7785 51.3272 27.9917 44.6011 34.142 44.7982C38.0544 44.8776 41.3593 47.7633 41.9897 51.6007C42.8171 56.5532 38.9932 61.0826 33.9618 61.0826Z" fill="url(#paint0_radial_161_3370)"/>
<g opacity="0.75">
<path d="M37.1934 54.2557C36.856 54.1716 36.7629 54.5917 36.9537 54.6865C37.1445 54.7827 37.6238 55.0699 37.72 54.8774C37.8162 54.6865 37.5765 54.3519 37.1934 54.2557Z" fill="#056DB1"/>
<path d="M40.5441 50.711C40.2174 50.7858 39.8266 50.9508 40.1609 51.1907C40.4968 51.4305 41.0219 51.3343 41.0707 51.0471C41.1181 50.7583 41.1669 50.5674 40.5441 50.711Z" fill="#056DB1"/>
<path d="M33.986 58.4224C33.2838 58.0008 32.2626 57.848 32.1664 58.2788C32.0703 58.7096 32.7404 59.3802 33.554 59.284C34.3692 59.1893 34.4653 58.7096 33.986 58.4224Z" fill="#056DB1"/>
<path d="M36.2761 60.7476C35.6426 60.9355 34.977 61.0485 34.2886 61.0745C34.4458 60.077 35.3938 60.3917 35.9006 60.5291C36.0486 60.5704 36.1723 60.6514 36.2761 60.7476Z" fill="#056DB1"/>
<path d="M29.5347 58.3753C29.8446 58.5113 30.0614 57.8483 29.6309 57.2739C29.2004 56.6995 29.0081 55.98 28.4815 55.8364C27.9548 55.6928 27.6678 57.5611 29.5347 58.3753Z" fill="#056DB1"/>
<path d="M27.4284 56.0277C27.259 56.0582 27.1887 56.4111 27.5719 56.4584C27.955 56.5073 27.955 55.9329 27.4284 56.0277Z" fill="#056DB1"/>
<path d="M31.6888 54.0645C31.3515 54.0339 31.0187 54.208 31.066 54.5915C31.1134 54.9749 31.64 54.5915 31.8797 54.5915C32.1193 54.5915 32.2155 54.1118 31.6888 54.0645Z" fill="#056DB1"/>
<path d="M34.992 49.6097C34.7019 49.4722 34.6561 50.0894 34.8958 50.1841C35.1355 50.2804 35.8056 49.9916 34.992 49.6097Z" fill="#056DB1"/>
</g>
<path d="M31.9291 52.7244C30.3019 53.0115 30.0622 53.0589 28.5785 54.3054C27.5969 55.1288 26.5726 54.863 25.9926 54.588C25.8842 54.0564 25.8262 53.505 25.8262 52.9397C25.8262 50.6239 26.7924 48.5326 28.3434 47.0508C28.6624 47.2402 28.9921 47.4968 29.2486 47.839C29.966 48.7968 29.8226 49.1803 31.9291 50.2817C34.0342 51.3831 33.5564 52.4372 31.9291 52.7244Z" fill="url(#paint1_linear_161_3370)"/>
<path d="M41.3172 49.4512C39.8152 49.1366 38.7909 50.8368 37.7681 50.7131C36.5713 50.5695 36.9072 48.7974 35.9012 46.9292C35.3975 45.9942 35.3623 45.3465 35.4524 44.9341C38.052 45.4138 40.2166 47.1308 41.3172 49.4512Z" fill="url(#paint2_linear_161_3370)"/>
<path d="M42.1003 52.9391C42.1003 56.0998 40.3021 58.8388 37.6735 60.1892C37.0736 59.2406 38.046 58.5363 39.2046 57.8015C40.641 56.8911 39.3007 56.5076 39.5389 55.0228C39.7785 53.538 38.8687 53.4417 39.2992 52.1967C39.606 51.3076 41.2058 52.1509 42.0958 52.7069C42.0988 52.7833 42.1003 52.8612 42.1003 52.9391Z" fill="url(#paint3_linear_161_3370)"/>
<path d="M34.4658 55.4066C33.5957 55.677 33.1255 54.6397 32.0249 54.8796C30.9243 55.1194 30.0145 57.0824 31.4983 57.035C32.982 56.9877 33.3652 56.7952 34.4658 57.5621C35.5664 58.3289 36.8593 57.8019 37.2425 56.6042C37.6241 55.4066 37.3845 54.4961 34.4658 55.4066Z" fill="url(#paint4_linear_161_3370)"/>
<path d="M36.2847 51.8134C35.8268 51.96 35.7108 52.1968 35.8543 52.484C35.9977 52.7712 36.5717 52.7238 36.8587 53.1546C37.1457 53.5854 37.8647 54.1125 38.0555 53.1546C38.2478 52.1968 37.338 51.4773 36.2847 51.8134Z" fill="url(#paint5_linear_161_3370)"/>
<path opacity="0.5" d="M34.61 49.3229C34.5246 49.9615 33.9399 49.3229 32.9828 49.132C32.0257 48.941 31.6425 48.3651 32.073 47.9817C32.5035 47.5982 33.0774 47.311 33.6529 47.6456C34.2269 47.9817 34.7047 48.6049 34.61 49.3229Z" fill="#056DB1"/>
<path d="M33.6033 45.5383C32.4066 45.5383 31.8326 46.2089 30.732 46.5924C30.0756 46.82 29.5566 46.5557 29.2437 46.3052C30.5748 45.355 32.2035 44.7959 33.9636 44.7959C34.0247 44.7959 34.0842 44.7959 34.1437 44.799C34.2277 45.1442 34.1971 45.5383 33.6033 45.5383Z" fill="url(#paint6_linear_161_3370)"/>
<path opacity="0.45" d="M41.712 55.4303C41.0479 57.5002 39.5779 59.2096 37.6728 60.1888C37.2286 60.4164 36.7615 60.6043 36.2761 60.7494C35.6426 60.9373 34.9771 61.0504 34.2886 61.0763C34.1802 61.0809 34.0718 61.0825 33.9619 61.0825C30.8921 61.0825 28.2177 59.3807 26.8332 56.8678C26.4454 56.1651 26.1585 55.3982 25.9921 54.587C25.8837 54.0554 25.8257 53.504 25.8257 52.9387C25.8257 51.9549 25.9997 51.0124 26.3187 50.1401C27.2392 52.8914 29.3458 56.4416 34.1344 57.1C35.0686 57.2283 35.9418 57.2451 36.7569 57.1748C38.7567 56.9991 40.4022 56.2995 41.712 55.4303Z" fill="url(#paint7_linear_161_3370)"/>
<path opacity="0.45" d="M42.0995 52.9386C42.0995 53.8078 41.9637 54.645 41.7118 55.4302C41.0478 57.5001 39.5778 59.2095 37.6727 60.1887C37.2285 60.4163 36.7614 60.6042 36.2759 60.7493C35.6424 60.9372 34.9769 61.0503 34.2884 61.0762C34.1801 61.0808 34.0717 61.0823 33.9618 61.0823C30.892 61.0823 28.2175 59.3806 26.833 56.8676C28.2404 57.4466 29.9165 57.8423 31.904 57.9202C33.832 57.9966 35.4318 57.6987 36.7568 57.1732C39.6052 56.0458 41.1928 53.8643 42.0537 52.0679C42.0766 52.2772 42.0904 52.491 42.0965 52.7049C42.098 52.7828 42.0995 52.8607 42.0995 52.9386Z" fill="url(#paint8_linear_161_3370)"/>
<path d="M41.9914 51.6052C41.9914 51.6052 40.8328 47.3584 35.5053 45.9607C32.3119 45.122 30.0954 45.8782 28.833 46.6175C32.8645 43.324 39.03 44.6316 41.3167 49.4497C41.848 50.5664 41.9533 51.4494 41.9914 51.6052Z" fill="url(#paint9_linear_161_3370)"/>
</g>
<path d="M45.9705 39.4298V61.3608H51.9517V47.4047L51.248 44.6291L51.4826 44.2382H51.8735C54.9618 44.2382 56.4473 44.7073 57.2683 45.5283C58.0501 46.3101 58.3238 47.4438 58.3238 49.4375V61.3608H64.305V48.9293C64.305 47.4047 64.0313 45.9583 63.5231 44.59L63.7577 44.2382H64.2268C67.3151 44.2382 68.8007 44.7073 69.6216 45.5283C70.4035 46.3101 70.6771 47.4438 70.6771 49.4375V61.3608H76.6583V48.9293C76.6583 45.7237 75.8765 43.3391 74.3518 41.8144C72.749 40.1726 70.4817 39.3516 67.5888 39.3516C66.4942 39.3516 65.5169 39.4689 64.6177 39.7425L62.1549 41.9708C60.4739 40.2116 58.1674 39.3516 55.2746 39.3516C54.3754 39.3516 53.6327 39.3907 52.8899 39.6643L50.7789 41.6581H50.3098L49.6452 39.4298H45.9705Z" fill="#0AB051"/>
<path d="M79.3416 39.4298V61.3608H85.3228V47.4047L84.6191 44.6291L84.8537 44.2382H85.2446C88.3329 44.2382 89.8184 44.7073 90.6394 45.5283C91.4212 46.3101 91.6949 47.4438 91.6949 49.4375V61.3608H97.6761V48.9293C97.6761 47.4047 97.4024 45.9583 96.8942 44.59L97.1288 44.2382H97.5979C100.686 44.2382 102.172 44.7073 102.993 45.5283C103.775 46.3101 104.048 47.4438 104.048 49.4375V61.3608H110.029V48.9293C110.029 45.7237 109.248 43.3391 107.723 41.8144C106.12 40.1726 103.853 39.3516 100.96 39.3516C99.8653 39.3516 98.888 39.4689 97.9888 39.7425L95.526 41.9708C93.845 40.2116 91.5385 39.3516 88.6457 39.3516C87.7465 39.3516 87.0038 39.3907 86.261 39.6643L84.15 41.6581H83.6809L83.0163 39.4298H79.3416Z" fill="#0AB051"/>
<path d="M112.361 39.5471V51.9786C112.361 55.106 113.143 57.5688 114.706 59.0935C116.348 60.7354 118.616 61.5563 121.469 61.5563C122.369 61.5563 123.19 61.439 123.893 61.2045L125.965 59.2498H126.434L127.138 61.4781H130.813V39.5471H124.792V53.4641L125.535 56.2397L125.261 56.6697H124.949C121.86 56.6697 120.258 56.1615 119.437 55.3406C118.655 54.5587 118.381 53.3859 118.381 51.4704V39.5471H112.361Z" fill="#0AB051"/>
<path d="M134.084 61.3608H140.065V47.4047L139.361 44.6291L139.596 44.2382H139.948C143.036 44.2382 144.639 44.7073 145.46 45.5283C146.242 46.3101 146.515 47.4438 146.515 49.4375V61.3608H152.496V48.9293C152.496 45.7237 151.715 43.3391 150.19 41.8144C148.509 40.1335 146.359 39.3516 143.388 39.3516C142.489 39.3516 141.746 39.3907 141.003 39.6643L138.892 41.6581H138.423L137.758 39.4298H134.084V61.3608Z" fill="#0AB051"/>
<path d="M155.729 39.5471V61.3608H161.71V39.5471L159.99 39.938H157.449L155.729 39.5471ZM155.22 31.8067V36.8888L157.136 36.3806H160.302L162.257 36.8888V31.8067H155.22Z" fill="#0AB051"/>
<path d="M178.079 56.3961C177.649 56.4351 177.375 56.4351 176.945 56.4351C173.935 56.4351 172.215 55.1451 172.215 51.8222V46.8183L171.472 44.0427L171.824 43.6909L174.6 44.4337H178.079V39.6253H174.6L171.824 40.368L171.472 40.0162L172.215 37.2406V32.9404H166.312V37.2406L167.055 40.0162L166.703 40.368L164.084 39.6253H163.341V44.4337H164.084L166.703 43.6909L167.055 44.0427L166.312 46.8183V52.2913C166.312 59.0153 170.299 61.6345 176.632 61.6345C177.219 61.6345 177.61 61.5954 178.079 61.5563V56.3961Z" fill="#0AB051"/>
<path d="M181.018 67.733C187.86 65.9738 191.183 63.0809 193.802 54.7542L198.493 39.5471H192.473L190.283 49.4766L189.384 55.9269H188.212L187.312 49.4766L184.693 39.5471H178.595L184.498 57.7643L186.179 59.0544V59.758C184.928 61.1654 182.426 62.4945 179.103 63.2764L181.018 67.733Z" fill="#0AB051"/>
<defs>
<radialGradient id="paint0_radial_161_3370" cx="0" cy="0" r="1" gradientUnits="userSpaceOnUse" gradientTransform="translate(34.3658 49.752) scale(9.87559 9.88281)">
<stop stop-color="#00B3DC"/>
<stop offset="1" stop-color="#056DB0"/>
</radialGradient>
<linearGradient id="paint1_linear_161_3370" x1="28.6159" y1="40.3846" x2="30.4853" y2="63.8069" gradientUnits="userSpaceOnUse">
<stop stop-color="#F2F236"/>
<stop offset="1" stop-color="#F2F236" stop-opacity="0"/>
</linearGradient>
<linearGradient id="paint2_linear_161_3370" x1="37.7472" y1="39.6564" x2="39.6166" y2="63.0787" gradientUnits="userSpaceOnUse">
<stop stop-color="#F2F236"/>
<stop offset="1" stop-color="#F2F236" stop-opacity="0"/>
</linearGradient>
<linearGradient id="paint3_linear_161_3370" x1="38.4722" y1="39.5973" x2="40.3417" y2="63.0196" gradientUnits="userSpaceOnUse">
<stop stop-color="#F2F236"/>
<stop offset="1" stop-color="#F2F236" stop-opacity="0"/>
</linearGradient>
<linearGradient id="paint4_linear_161_3370" x1="32.7699" y1="40.0528" x2="34.6393" y2="63.4751" gradientUnits="userSpaceOnUse">
<stop stop-color="#F2F236"/>
<stop offset="1" stop-color="#F2F236" stop-opacity="0"/>
</linearGradient>
<linearGradient id="paint5_linear_161_3370" x1="35.9216" y1="39.801" x2="37.7911" y2="63.2234" gradientUnits="userSpaceOnUse">
<stop stop-color="#F2F236"/>
<stop offset="1" stop-color="#F2F236" stop-opacity="0"/>
</linearGradient>
<linearGradient id="paint6_linear_161_3370" x1="31.2728" y1="40.1724" x2="33.1422" y2="63.5947" gradientUnits="userSpaceOnUse">
<stop stop-color="#F2F236"/>
<stop offset="1" stop-color="#F2F236" stop-opacity="0"/>
</linearGradient>
<linearGradient id="paint7_linear_161_3370" x1="32.725" y1="63.4812" x2="33.9473" y2="52.345" gradientUnits="userSpaceOnUse">
<stop stop-color="#00ACD8"/>
<stop offset="1" stop-color="#0983BD"/>
</linearGradient>
<linearGradient id="paint8_linear_161_3370" x1="33.5455" y1="63.0024" x2="34.9116" y2="51.3632" gradientUnits="userSpaceOnUse">
<stop stop-color="#056EB1"/>
<stop offset="1" stop-color="#00A9D7" stop-opacity="0.3"/>
</linearGradient>
<linearGradient id="paint9_linear_161_3370" x1="39.8719" y1="40.31" x2="34.7442" y2="50.4142" gradientUnits="userSpaceOnUse">
<stop stop-color="#E2FFB5"/>
<stop offset="1" stop-color="#FFFFB3" stop-opacity="0"/>
</linearGradient>
<clipPath id="clip0_161_3370">
<rect width="16.2887" height="16.2887" fill="white" transform="translate(25.814 44.7939)"/>
</clipPath>
</defs>
</svg>
