<svg width="245" height="97" viewBox="0 0 245 97" fill="none" xmlns="http://www.w3.org/2000/svg">
<path d="M110.484 15.016C109.74 12.4 108.516 10.396 106.812 9.004C105.108 7.588 103.104 6.88 100.8 6.88C97.848 6.88 95.472 8.008 93.672 10.264C91.896 12.496 91.008 15.628 91.008 19.66C91.008 23.38 91.86 26.32 93.564 28.48C95.292 30.616 97.452 31.684 100.044 31.684C102.348 31.684 104.196 30.796 105.588 29.02C106.98 27.22 107.676 24.988 107.676 22.324H106.92C106.92 24.076 106.368 25.48 105.264 26.536C104.16 27.568 102.756 28.084 101.052 28.084C99.18 28.084 97.656 27.316 96.48 25.78C95.304 24.22 94.716 22.072 94.716 19.336C94.716 16.504 95.268 14.32 96.372 12.784C97.476 11.224 99.012 10.444 100.98 10.444C104.004 10.444 105.984 12.208 106.92 15.736L110.484 15.016ZM98.676 18.868V22.324H106.92V24.736L108.252 25.204L106.92 30.964H110.592V18.868H98.676ZM113.17 14.44H116.842L115.762 18.724L116.842 19.12V31H113.17V14.44ZM121.522 17.716C120.25 17.716 119.146 18.088 118.21 18.832C117.298 19.552 116.842 20.488 116.842 21.64L116.302 20.74C116.302 18.772 116.806 17.2 117.814 16.024C118.846 14.848 120.202 14.26 121.882 14.26H123.214V17.716H121.522ZM127.693 23.692C127.813 25.228 128.281 26.404 129.097 27.22C129.913 28.036 131.017 28.444 132.409 28.444C133.513 28.444 134.425 28.168 135.145 27.616C135.889 27.064 136.357 26.296 136.549 25.312L140.113 25.888C139.705 27.688 138.805 29.104 137.413 30.136C136.045 31.168 134.377 31.684 132.409 31.684C129.769 31.684 127.693 30.88 126.181 29.272C124.693 27.664 123.949 25.456 123.949 22.648C123.949 19.864 124.669 17.68 126.109 16.096C127.549 14.488 129.517 13.684 132.013 13.684C134.533 13.684 136.513 14.488 137.953 16.096C139.393 17.704 140.113 19.816 140.113 22.432V23.692H127.693ZM127.765 21.1H136.369C136.369 19.876 135.949 18.868 135.109 18.076C134.293 17.284 133.261 16.888 132.013 16.888C130.813 16.888 129.841 17.26 129.097 18.004C128.377 18.724 127.933 19.756 127.765 21.1ZM145.869 23.692C145.989 25.228 146.457 26.404 147.273 27.22C148.089 28.036 149.193 28.444 150.585 28.444C151.689 28.444 152.601 28.168 153.321 27.616C154.065 27.064 154.533 26.296 154.725 25.312L158.289 25.888C157.881 27.688 156.981 29.104 155.589 30.136C154.221 31.168 152.553 31.684 150.585 31.684C147.945 31.684 145.869 30.88 144.357 29.272C142.869 27.664 142.125 25.456 142.125 22.648C142.125 19.864 142.845 17.68 144.285 16.096C145.725 14.488 147.693 13.684 150.189 13.684C152.709 13.684 154.689 14.488 156.129 16.096C157.569 17.704 158.289 19.816 158.289 22.432V23.692H145.869ZM145.941 21.1H154.545C154.545 19.876 154.125 18.868 153.285 18.076C152.469 17.284 151.437 16.888 150.189 16.888C148.989 16.888 148.017 17.26 147.273 18.004C146.553 18.724 146.109 19.756 145.941 21.1ZM172.001 20.668C172.001 19.54 171.665 18.64 170.993 17.968C170.321 17.272 169.445 16.924 168.365 16.924C167.261 16.924 166.349 17.284 165.629 18.004C164.909 18.7 164.549 19.612 164.549 20.74H163.973C163.973 18.772 164.525 17.116 165.629 15.772C166.733 14.428 168.173 13.756 169.949 13.756C171.581 13.756 172.949 14.392 174.053 15.664C175.157 16.912 175.709 18.448 175.709 20.272V31H172.001V20.668ZM160.877 14.44H164.549L163.541 18.76L164.549 19.12V31H160.877V14.44ZM205.476 15.016C204.732 12.4 203.508 10.396 201.804 9.004C200.1 7.588 198.096 6.88 195.792 6.88C192.84 6.88 190.464 8.008 188.664 10.264C186.888 12.496 186 15.628 186 19.66C186 23.38 186.852 26.32 188.556 28.48C190.284 30.616 192.444 31.684 195.036 31.684C197.34 31.684 199.188 30.796 200.58 29.02C201.972 27.22 202.668 24.988 202.668 22.324H201.912C201.912 24.076 201.36 25.48 200.256 26.536C199.152 27.568 197.748 28.084 196.044 28.084C194.172 28.084 192.648 27.316 191.472 25.78C190.296 24.22 189.708 22.072 189.708 19.336C189.708 16.504 190.26 14.32 191.364 12.784C192.468 11.224 194.004 10.444 195.972 10.444C198.996 10.444 200.976 12.208 201.912 15.736L205.476 15.016ZM193.668 18.868V22.324H201.912V24.736L203.244 25.204L201.912 30.964H205.584V18.868H193.668ZM208.162 14.44H211.834L210.754 18.724L211.834 19.12V31H208.162V14.44ZM216.514 17.716C215.242 17.716 214.138 18.088 213.202 18.832C212.29 19.552 211.834 20.488 211.834 21.64L211.294 20.74C211.294 18.772 211.798 17.2 212.806 16.024C213.838 14.848 215.194 14.26 216.874 14.26H218.206V17.716H216.514ZM220.578 11.56C220.146 11.128 219.93 10.612 219.93 10.012C219.93 9.412 220.146 8.896 220.578 8.464C221.01 8.032 221.514 7.816 222.09 7.816C222.69 7.816 223.206 8.032 223.638 8.464C224.07 8.896 224.286 9.412 224.286 10.012C224.286 10.612 224.07 11.128 223.638 11.56C223.206 11.992 222.69 12.208 222.09 12.208C221.514 12.208 221.01 11.992 220.578 11.56ZM220.326 14.44H223.998V31H220.326V14.44ZM237.949 26.968C238.717 25.96 239.101 24.532 239.101 22.684C239.101 20.836 238.717 19.408 237.949 18.4C237.181 17.392 236.101 16.888 234.709 16.888C233.269 16.888 232.153 17.392 231.361 18.4C230.569 19.384 230.173 20.812 230.173 22.684C230.173 24.532 230.569 25.96 231.361 26.968C232.153 27.952 233.269 28.444 234.709 28.444C236.101 28.444 237.181 27.952 237.949 26.968ZM238.237 16.024C239.365 17.584 239.929 19.804 239.929 22.684C239.929 25.564 239.353 27.784 238.201 29.344C237.073 30.904 235.477 31.684 233.413 31.684C231.349 31.684 229.669 30.892 228.373 29.308C227.101 27.7 226.465 25.528 226.465 22.792C226.465 19.936 227.149 17.704 228.517 16.096C229.885 14.488 231.577 13.684 233.593 13.684C235.585 13.684 237.133 14.464 238.237 16.024ZM242.989 6.268V31H239.101L240.145 26.716L239.101 26.32V19.12L240.217 18.724L239.101 14.44V6.268H242.989Z" fill="white"/>
<path d="M19.152 75.336C22.848 75.336 25.392 74.808 28.464 73.512L26.736 66.456C24.24 67.368 22.272 67.896 19.92 67.896C17.04 67.896 14.64 67.032 12.912 65.304C11.04 63.432 9.936 60.696 9.936 57.24C9.936 53.928 11.088 51.096 12.816 49.32C14.496 47.64 16.752 46.776 19.488 46.776C22.32 46.776 24.288 47.4 26.736 48.312L28.416 41.016C25.392 40.008 23.184 39.336 19.248 39.336C14.4 39.336 9.936 41.064 6.672 44.328C3.648 47.352 1.728 51.912 1.728 57.336C1.728 63.336 3.6 67.464 6.672 70.536C9.936 73.8 14.4 75.336 19.152 75.336Z" fill="white"/>
<mask id="mask0_163_561" style="mask-type:alpha" maskUnits="userSpaceOnUse" x="30" y="47" width="25" height="29">
<path d="M30.392 61.608C30.392 70.44 35.528 75.432 42.248 75.432C48.968 75.432 54.104 70.392 54.104 61.56C54.104 52.728 48.968 47.784 42.248 47.784C35.528 47.784 30.392 52.824 30.392 61.608ZM37.352 61.56C37.352 56.616 38.984 54.168 42.2 54.168C45.512 54.168 47.144 56.664 47.144 61.608C47.144 66.552 45.512 69.048 42.296 69.048C38.984 69.048 37.352 66.552 37.352 61.56Z" fill="#0AB051"/>
</mask>
<g mask="url(#mask0_163_561)">
</g>
<g clip-path="url(#clip0_163_561)">
<path d="M42.0043 75C38.2351 75 34.9513 72.9105 33.2513 69.825C29.5008 63.0219 34.6739 54.7632 42.2255 55.0052C47.0294 55.1027 51.0872 58.6459 51.8613 63.3576C52.8772 69.4386 48.1821 75 42.0043 75Z" fill="url(#paint0_radial_163_561)"/>
<g opacity="0.75">
<path d="M45.9719 66.6173C45.5577 66.5141 45.4433 67.0299 45.6776 67.1462C45.9119 67.2644 46.5004 67.617 46.6185 67.3807C46.7366 67.1462 46.4423 66.7354 45.9719 66.6173Z" fill="#056DB1"/>
<path d="M50.0863 62.2656C49.6852 62.3575 49.2054 62.5601 49.6158 62.8546C50.0282 63.149 50.6729 63.0309 50.7329 62.6782C50.791 62.3237 50.851 62.0893 50.0863 62.2656Z" fill="#056DB1"/>
<path d="M42.0341 71.7341C41.1719 71.2164 39.918 71.0288 39.7999 71.5578C39.6818 72.0867 40.5046 72.9101 41.5036 72.792C42.5045 72.6757 42.6226 72.0867 42.0341 71.7341Z" fill="#056DB1"/>
<path d="M44.8456 74.5889C44.0678 74.8196 43.2506 74.9584 42.4053 74.9903C42.5983 73.7655 43.7623 74.1519 44.3845 74.3207C44.5664 74.3713 44.7182 74.4707 44.8456 74.5889Z" fill="#056DB1"/>
<path d="M36.5683 71.6759C36.9488 71.8428 37.215 71.0288 36.6864 70.3235C36.1579 69.6183 35.9217 68.7348 35.2751 68.5585C34.6284 68.3822 34.2761 70.6762 36.5683 71.6759Z" fill="#056DB1"/>
<path d="M33.9819 68.793C33.7739 68.8305 33.6877 69.2638 34.1581 69.3219C34.6286 69.382 34.6286 68.6767 33.9819 68.793Z" fill="#056DB1"/>
<path d="M39.2131 66.3828C38.7989 66.3453 38.3903 66.5591 38.4484 67.0299C38.5065 67.5007 39.1532 67.0299 39.4474 67.0299C39.7417 67.0299 39.8598 66.4409 39.2131 66.3828Z" fill="#056DB1"/>
<path d="M43.2692 60.9133C42.9131 60.7445 42.8569 61.5022 43.1511 61.6185C43.4454 61.7367 44.2682 61.3822 43.2692 60.9133Z" fill="#056DB1"/>
</g>
<path d="M39.5077 64.7367C37.5096 65.0894 37.2154 65.1475 35.3935 66.6781C34.1884 67.6891 32.9307 67.3627 32.2185 67.0251C32.0854 66.3723 32.0142 65.6952 32.0142 65.0012C32.0142 62.1577 33.2006 59.5899 35.1049 57.7704C35.4966 58.003 35.9015 58.3181 36.2164 58.7383C37.0973 59.9144 36.9211 60.3851 39.5077 61.7375C42.0923 63.0899 41.5057 64.3841 39.5077 64.7367Z" fill="url(#paint1_linear_163_561)"/>
<path d="M51.0349 60.7171C49.1906 60.3307 47.9329 62.4184 46.6772 62.2664C45.2077 62.0901 45.62 59.9143 44.3849 57.6204C43.7663 56.4724 43.7232 55.6771 43.8338 55.1707C47.0258 55.7597 49.6836 57.8679 51.0349 60.7171Z" fill="url(#paint2_linear_163_561)"/>
<path d="M51.9963 65.0012C51.9963 68.882 49.7884 72.2451 46.5608 73.9032C45.8242 72.7384 47.0182 71.8737 48.4408 70.9715C50.2045 69.8536 48.5589 69.3828 48.8512 67.5597C49.1455 65.7365 48.0284 65.6183 48.557 64.0897C48.9337 62.998 50.898 64.0334 51.9907 64.7161C51.9945 64.8099 51.9963 64.9056 51.9963 65.0012Z" fill="url(#paint3_linear_163_561)"/>
<path d="M42.6228 68.0304C41.5545 68.3624 40.9772 67.0888 39.6258 67.3833C38.2744 67.6777 37.1574 70.088 38.9792 70.0298C40.801 69.9717 41.2715 69.7354 42.6228 70.677C43.9742 71.6185 45.5618 70.9714 46.0322 69.5009C46.5008 68.0304 46.2065 66.9125 42.6228 68.0304Z" fill="url(#paint4_linear_163_561)"/>
<path d="M44.8555 63.6188C44.2932 63.7989 44.1507 64.0896 44.3269 64.4422C44.5031 64.7949 45.2078 64.7367 45.5602 65.2657C45.9126 65.7946 46.7954 66.4417 47.0297 65.2657C47.2658 64.0896 46.1487 63.2062 44.8555 63.6188Z" fill="url(#paint5_linear_163_561)"/>
<path opacity="0.5" d="M42.7994 60.5596C42.6944 61.3437 41.9766 60.5596 40.8014 60.3252C39.6262 60.0907 39.1557 59.3836 39.6843 58.9128C40.2128 58.442 40.9176 58.0893 41.6242 58.5001C42.3289 58.9128 42.9156 59.6781 42.7994 60.5596Z" fill="#056DB1"/>
<path d="M41.564 55.9135C40.0945 55.9135 39.3898 56.737 38.0384 57.2078C37.2324 57.4872 36.5952 57.1627 36.2109 56.8551C37.8453 55.6885 39.8452 55.002 42.0063 55.002C42.0813 55.002 42.1544 55.002 42.2275 55.0057C42.3306 55.4296 42.2931 55.9135 41.564 55.9135Z" fill="url(#paint6_linear_163_561)"/>
<path opacity="0.45" d="M51.5201 68.06C50.7048 70.6016 48.8998 72.7004 46.5607 73.9028C46.0153 74.1822 45.4417 74.4129 44.8457 74.5911C44.0679 74.8218 43.2507 74.9606 42.4053 74.9925C42.2723 74.9981 42.1392 75 42.0042 75C38.235 75 34.9512 72.9105 33.2512 69.825C32.7751 68.9622 32.4228 68.0206 32.2185 67.0246C32.0854 66.3719 32.0142 65.6948 32.0142 65.0008C32.0142 63.7928 32.2278 62.6355 32.6196 61.5645C33.7498 64.9426 36.3363 69.3017 42.216 70.1101C43.3631 70.2677 44.4352 70.2883 45.4361 70.202C47.8914 69.9863 49.912 69.1273 51.5201 68.06Z" fill="url(#paint7_linear_163_561)"/>
<path opacity="0.45" d="M51.996 65.0007C51.996 66.068 51.8291 67.0959 51.5199 68.06C50.7046 70.6015 48.8996 72.7004 46.5605 73.9027C46.015 74.1822 45.4415 74.4129 44.8455 74.5911C44.0676 74.8218 43.2504 74.9606 42.4051 74.9925C42.272 74.9981 42.139 75 42.004 75C38.2348 75 34.951 72.9105 33.251 69.825C34.9791 70.5359 37.0371 71.0217 39.4774 71.1173C41.8447 71.2111 43.809 70.8453 45.4359 70.2001C48.9333 68.8159 50.8826 66.1374 51.9397 63.9316C51.9678 64.1885 51.9847 64.4511 51.9922 64.7137C51.9941 64.8094 51.996 64.9051 51.996 65.0007Z" fill="url(#paint8_linear_163_561)"/>
<path d="M51.8631 63.3632C51.8631 63.3632 50.4405 58.1488 43.8992 56.4326C39.9781 55.4028 37.2566 56.3313 35.7065 57.2391C40.6566 53.1952 48.2269 54.8007 51.0347 60.7166C51.6869 62.0878 51.8162 63.1719 51.8631 63.3632Z" fill="url(#paint9_linear_163_561)"/>
</g>
<path d="M56.736 48.072V75H64.08V57.864L63.216 54.456L63.504 53.976H63.984C67.776 53.976 69.6 54.552 70.608 55.56C71.568 56.52 71.904 57.912 71.904 60.36V75H79.248V59.736C79.248 57.864 78.912 56.088 78.288 54.408L78.576 53.976H79.152C82.944 53.976 84.768 54.552 85.776 55.56C86.736 56.52 87.072 57.912 87.072 60.36V75H94.416V59.736C94.416 55.8 93.456 52.872 91.584 51C89.616 48.984 86.832 47.976 83.28 47.976C81.936 47.976 80.736 48.12 79.632 48.456L76.608 51.192C74.544 49.032 71.712 47.976 68.16 47.976C67.056 47.976 66.144 48.024 65.232 48.36L62.64 50.808H62.064L61.248 48.072H56.736Z" fill="white"/>
<path d="M97.736 48.072V75H105.08V57.864L104.216 54.456L104.504 53.976H104.984C108.776 53.976 110.6 54.552 111.608 55.56C112.568 56.52 112.904 57.912 112.904 60.36V75H120.248V59.736C120.248 57.864 119.912 56.088 119.288 54.408L119.576 53.976H120.152C123.944 53.976 125.768 54.552 126.776 55.56C127.736 56.52 128.072 57.912 128.072 60.36V75H135.416V59.736C135.416 55.8 134.456 52.872 132.584 51C130.616 48.984 127.832 47.976 124.28 47.976C122.936 47.976 121.736 48.12 120.632 48.456L117.608 51.192C115.544 49.032 112.712 47.976 109.16 47.976C108.056 47.976 107.144 48.024 106.232 48.36L103.64 50.808H103.064L102.248 48.072H97.736Z" fill="white"/>
<path d="M138.304 48.216V63.48C138.304 67.32 139.264 70.344 141.184 72.216C143.2 74.232 145.984 75.24 149.488 75.24C150.592 75.24 151.6 75.096 152.464 74.808L155.008 72.408H155.584L156.448 75.144H160.96V48.216H153.568V65.304L154.48 68.712L154.144 69.24H153.76C149.968 69.24 148 68.616 146.992 67.608C146.032 66.648 145.696 65.208 145.696 62.856V48.216H138.304Z" fill="white"/>
<path d="M164.736 75H172.08V57.864L171.216 54.456L171.504 53.976H171.936C175.728 53.976 177.696 54.552 178.704 55.56C179.664 56.52 180 57.912 180 60.36V75H187.344V59.736C187.344 55.8 186.384 52.872 184.512 51C182.448 48.936 179.808 47.976 176.16 47.976C175.056 47.976 174.144 48.024 173.232 48.36L170.64 50.808H170.064L169.248 48.072H164.736V75Z" fill="white"/>
<path d="M191.072 48.216V75H198.416V48.216L196.304 48.696H193.184L191.072 48.216ZM190.448 38.712V44.952L192.8 44.328H196.688L199.088 44.952V38.712H190.448Z" fill="white"/>
<path d="M219.008 68.904C218.48 68.952 218.144 68.952 217.616 68.952C213.92 68.952 211.808 67.368 211.808 63.288V57.144L210.896 53.736L211.328 53.304L214.736 54.216H219.008V48.312H214.736L211.328 49.224L210.896 48.792L211.808 45.384V40.104H204.56V45.384L205.472 48.792L205.04 49.224L201.824 48.312H200.912V54.216H201.824L205.04 53.304L205.472 53.736L204.56 57.144V63.864C204.56 72.12 209.456 75.336 217.232 75.336C217.952 75.336 218.432 75.288 219.008 75.24V68.904Z" fill="white"/>
<path d="M222.744 82.824C231.144 80.664 235.224 77.112 238.44 66.888L244.2 48.216H236.808L234.12 60.408L233.016 68.328H231.576L230.472 60.408L227.256 48.216H219.768L227.016 70.584L229.08 72.168V73.032C227.544 74.76 224.472 76.392 220.392 77.352L222.744 82.824Z" fill="white"/>
<defs>
<radialGradient id="paint0_radial_163_561" cx="0" cy="0" r="1" gradientUnits="userSpaceOnUse" gradientTransform="translate(42.5004 61.0877) scale(12.1257 12.1346)">
<stop stop-color="#00B3DC"/>
<stop offset="1" stop-color="#056DB0"/>
</radialGradient>
<linearGradient id="paint1_linear_163_561" x1="35.4395" y1="49.5854" x2="37.7349" y2="78.3444" gradientUnits="userSpaceOnUse">
<stop stop-color="#F2F236"/>
<stop offset="1" stop-color="#F2F236" stop-opacity="0"/>
</linearGradient>
<linearGradient id="paint2_linear_163_561" x1="46.6515" y1="48.6905" x2="48.9469" y2="77.4495" gradientUnits="userSpaceOnUse">
<stop stop-color="#F2F236"/>
<stop offset="1" stop-color="#F2F236" stop-opacity="0"/>
</linearGradient>
<linearGradient id="paint3_linear_163_561" x1="47.5416" y1="48.6195" x2="49.837" y2="77.3785" gradientUnits="userSpaceOnUse">
<stop stop-color="#F2F236"/>
<stop offset="1" stop-color="#F2F236" stop-opacity="0"/>
</linearGradient>
<linearGradient id="paint4_linear_163_561" x1="40.5406" y1="49.1782" x2="42.8359" y2="77.9372" gradientUnits="userSpaceOnUse">
<stop stop-color="#F2F236"/>
<stop offset="1" stop-color="#F2F236" stop-opacity="0"/>
</linearGradient>
<linearGradient id="paint5_linear_163_561" x1="44.4096" y1="48.8694" x2="46.705" y2="77.6285" gradientUnits="userSpaceOnUse">
<stop stop-color="#F2F236"/>
<stop offset="1" stop-color="#F2F236" stop-opacity="0"/>
</linearGradient>
<linearGradient id="paint6_linear_163_561" x1="38.7024" y1="49.325" x2="40.9978" y2="78.084" gradientUnits="userSpaceOnUse">
<stop stop-color="#F2F236"/>
<stop offset="1" stop-color="#F2F236" stop-opacity="0"/>
</linearGradient>
<linearGradient id="paint7_linear_163_561" x1="40.4855" y1="77.9454" x2="41.9863" y2="64.2717" gradientUnits="userSpaceOnUse">
<stop stop-color="#00ACD8"/>
<stop offset="1" stop-color="#0983BD"/>
</linearGradient>
<linearGradient id="paint8_linear_163_561" x1="41.4929" y1="77.3575" x2="43.1702" y2="63.0663" gradientUnits="userSpaceOnUse">
<stop stop-color="#056EB1"/>
<stop offset="1" stop-color="#00A9D7" stop-opacity="0.3"/>
</linearGradient>
<linearGradient id="paint9_linear_163_561" x1="49.2606" y1="49.4945" x2="42.9647" y2="61.9008" gradientUnits="userSpaceOnUse">
<stop stop-color="#E2FFB5"/>
<stop offset="1" stop-color="#FFFFB3" stop-opacity="0"/>
</linearGradient>
<clipPath id="clip0_163_561">
<rect width="20" height="20" fill="white" transform="translate(32 55)"/>
</clipPath>
</defs>
</svg>
