<svg width="77" height="76" viewBox="0 0 77 76" fill="none" xmlns="http://www.w3.org/2000/svg">
<g filter="url(#filter0_d_35_246)">
<circle cx="38.5" cy="34" r="28" fill="#FF3D00"/>
</g>
<path d="M51.2107 31.4613H50.1665V31.4075H38.4998V36.5927H45.8258C44.7571 39.6111 41.8851 41.7779 38.4998 41.7779C34.2046 41.7779 30.7221 38.2954 30.7221 34.0001C30.7221 29.7048 34.2046 26.2223 38.4998 26.2223C40.4825 26.2223 42.2863 26.9703 43.6597 28.192L47.3263 24.5254C45.0111 22.3678 41.9143 21.0371 38.4998 21.0371C31.341 21.0371 25.5369 26.8413 25.5369 34.0001C25.5369 41.1589 31.341 46.963 38.4998 46.963C45.6586 46.963 51.4628 41.1589 51.4628 34.0001C51.4628 33.1309 51.3733 32.2825 51.2107 31.4613Z" fill="white"/>
<path d="M27.0315 27.9665L31.2905 31.0899C32.4429 28.2367 35.2338 26.2223 38.4998 26.2223C40.4825 26.2223 42.2863 26.9703 43.6597 28.192L47.3263 24.5254C45.0111 22.3678 41.9143 21.0371 38.4998 21.0371C33.5208 21.0371 29.2028 23.8481 27.0315 27.9665Z" fill="white"/>
<path d="M38.5 46.9629C41.8483 46.9629 44.8907 45.6815 47.191 43.5977L43.179 40.2027C41.8338 41.2258 40.19 41.7791 38.5 41.7777C35.1283 41.7777 32.2655 39.6278 31.1869 36.6276L26.9597 39.8845C29.1051 44.0826 33.4619 46.9629 38.5 46.9629Z" fill="white"/>
<path d="M51.2108 31.4613H50.1667V31.4075H38.5V36.5927H45.826C45.3148 38.0292 44.3938 39.2845 43.177 40.2035L43.179 40.2022L47.191 43.5972C46.9071 43.8552 51.463 40.4815 51.463 34.0001C51.463 33.1309 51.3735 32.2825 51.2108 31.4613Z" fill="white"/>
<defs>
<filter id="filter0_d_35_246" x="0.5" y="0" width="76" height="76" filterUnits="userSpaceOnUse" color-interpolation-filters="sRGB">
<feFlood flood-opacity="0" result="BackgroundImageFix"/>
<feColorMatrix in="SourceAlpha" type="matrix" values="0 0 0 0 0 0 0 0 0 0 0 0 0 0 0 0 0 0 127 0" result="hardAlpha"/>
<feOffset dy="4"/>
<feGaussianBlur stdDeviation="5"/>
<feComposite in2="hardAlpha" operator="out"/>
<feColorMatrix type="matrix" values="0 0 0 0 0.559583 0 0 0 0 0.561411 0 0 0 0 0.566667 0 0 0 0.34 0"/>
<feBlend mode="normal" in2="BackgroundImageFix" result="effect1_dropShadow_35_246"/>
<feBlend mode="normal" in="SourceGraphic" in2="effect1_dropShadow_35_246" result="shape"/>
</filter>
</defs>
</svg>
