<svg width="25" height="24" viewBox="0 0 25 24" fill="none" xmlns="http://www.w3.org/2000/svg">
<path d="M5.16626 12.7663C4.8627 10.6567 4.71092 9.60183 5.14329 8.69996C5.57566 7.79808 6.49595 7.24987 8.33653 6.15345L9.4444 5.4935C11.1158 4.49783 11.9516 4 12.875 4C13.7984 4 14.6342 4.49783 16.3056 5.4935L17.4135 6.15345C19.254 7.24987 20.1743 7.79808 20.6067 8.69996C21.0391 9.60183 20.8873 10.6567 20.5837 12.7663L20.3607 14.3162C19.9708 17.0261 19.7758 18.3811 18.8358 19.1905C17.8957 20 16.5171 20 13.7599 20H11.9901C9.2329 20 7.85427 20 6.91422 19.1905C5.97417 18.3811 5.7792 17.0261 5.38927 14.3162L5.16626 12.7663Z" stroke="#676767" stroke-width="1.5"/>
<path d="M15.2751 16.7998H10.4751" stroke="#676767" stroke-width="1.5" stroke-linecap="round"/>
</svg>
