<svg width="25" height="24" viewBox="0 0 25 24" fill="none" xmlns="http://www.w3.org/2000/svg">
<path d="M5.16626 12.7665C4.8627 10.6569 4.71092 9.60208 5.14329 8.7002C5.57566 7.79833 6.49595 7.25011 8.33653 6.15369L9.4444 5.49374C11.1158 4.49808 11.9516 4.00024 12.875 4.00024C13.7984 4.00024 14.6342 4.49808 16.3056 5.49374L17.4135 6.15369C19.254 7.25011 20.1743 7.79833 20.6067 8.7002C21.0391 9.60208 20.8873 10.6569 20.5837 12.7665L20.3607 14.3164C19.9708 17.0264 19.7758 18.3813 18.8358 19.1908C17.8957 20.0002 16.5171 20.0002 13.7599 20.0002H11.9901C9.2329 20.0002 7.85427 20.0002 6.91422 19.1908C5.97417 18.3813 5.7792 17.0264 5.38927 14.3164L5.16626 12.7665Z" stroke="black" stroke-width="1.5"/>
<path d="M15.2751 16.8H10.4751" stroke="black" stroke-width="1.5" stroke-linecap="round"/>
</svg>
