<svg width="42" height="42" viewBox="0 0 42 42" fill="none" xmlns="http://www.w3.org/2000/svg">
<path fill-rule="evenodd" clip-rule="evenodd" d="M34.3 16.1C34.3 14.1338 34.3 13.1506 33.8281 12.4444C33.6238 12.1387 33.3613 11.8762 33.0556 11.6719C32.4379 11.2591 31.6083 11.2074 30.0944 11.2009C30.1001 11.6089 30.1001 12.0352 30.1 12.4747L30.1 12.6V14.35H31.5C32.0799 14.35 32.55 14.8201 32.55 15.4C32.55 15.9799 32.0799 16.45 31.5 16.45H30.1V18.55H31.5C32.0799 18.55 32.55 19.0201 32.55 19.6C32.55 20.1799 32.0799 20.65 31.5 20.65H30.1V22.75H31.5C32.0799 22.75 32.55 23.2201 32.55 23.8C32.55 24.3799 32.0799 24.85 31.5 24.85H30.1V33.95H28V12.6C28 9.96013 28 8.6402 27.1799 7.8201C26.3598 7 25.0399 7 22.4 7H19.6C16.9601 7 15.6402 7 14.8201 7.8201C14 8.6402 14 9.96013 14 12.6V33.95H11.9V24.85H10.5C9.9201 24.85 9.45 24.3799 9.45 23.8C9.45 23.2201 9.9201 22.75 10.5 22.75H11.9V20.65H10.5C9.9201 20.65 9.45 20.1799 9.45 19.6C9.45 19.0201 9.9201 18.55 10.5 18.55H11.9V16.45H10.5C9.9201 16.45 9.45 15.9799 9.45 15.4C9.45 14.8201 9.9201 14.35 10.5 14.35H11.9V12.6L11.9 12.4747C11.8999 12.0352 11.8999 11.6089 11.9056 11.2009C10.3917 11.2074 9.56211 11.2591 8.9444 11.6719C8.63867 11.8762 8.37617 12.1387 8.17188 12.4444C7.7 13.1506 7.7 14.1338 7.7 16.1V33.95H7C6.4201 33.95 5.95 34.4201 5.95 35C5.95 35.5799 6.4201 36.05 7 36.05H35C35.5799 36.05 36.05 35.5799 36.05 35C36.05 34.4201 35.5799 33.95 35 33.95H34.3V16.1ZM21 10.15C21.5799 10.15 22.05 10.6201 22.05 11.2V12.95H23.8C24.3799 12.95 24.85 13.4201 24.85 14C24.85 14.5799 24.3799 15.05 23.8 15.05H22.05V16.8C22.05 17.3799 21.5799 17.85 21 17.85C20.4201 17.85 19.95 17.3799 19.95 16.8V15.05H18.2C17.6201 15.05 17.15 14.5799 17.15 14C17.15 13.4201 17.6201 12.95 18.2 12.95H19.95V11.2C19.95 10.6201 20.4201 10.15 21 10.15ZM17.15 21C17.15 20.4201 17.6201 19.95 18.2 19.95H23.8C24.3799 19.95 24.85 20.4201 24.85 21C24.85 21.5799 24.3799 22.05 23.8 22.05H18.2C17.6201 22.05 17.15 21.5799 17.15 21ZM17.15 25.2C17.15 24.6201 17.6201 24.15 18.2 24.15H23.8C24.3799 24.15 24.85 24.6201 24.85 25.2C24.85 25.7799 24.3799 26.25 23.8 26.25H18.2C17.6201 26.25 17.15 25.7799 17.15 25.2ZM21 29.75C21.5799 29.75 22.05 30.2201 22.05 30.8V33.95H19.95V30.8C19.95 30.2201 20.4201 29.75 21 29.75Z" fill="#088F42"/>
</svg>
