<svg width="30" height="30" viewBox="0 0 30 30" fill="none" xmlns="http://www.w3.org/2000/svg">
<path d="M15 25.0003C20.5228 25.0003 25 22.9856 25 20.5003C25 19.2337 23.837 18.0892 21.9654 17.2715C20.8233 19.3673 19.0817 21.1738 16.8695 22.1192C15.6804 22.6274 14.3196 22.6274 13.1305 22.1192C10.9183 21.1738 9.17666 19.3673 8.03458 17.2715C6.16295 18.0892 5 19.2337 5 20.5003C5 22.9856 9.47715 25.0003 15 25.0003Z" fill="#088F42"/>
<path fill-rule="evenodd" clip-rule="evenodd" d="M8 11.5146C8 7.9167 11.134 5 15 5C18.866 5 22 7.9167 22 11.5146C22 15.0844 19.7658 19.2499 16.2801 20.7396C15.4675 21.0868 14.5325 21.0868 13.7199 20.7396C10.2342 19.2499 8 15.0844 8 11.5146ZM15 14C16.1046 14 17 13.1046 17 12C17 10.8954 16.1046 10 15 10C13.8954 10 13 10.8954 13 12C13 13.1046 13.8954 14 15 14Z" fill="#088F42"/>
</svg>
