<svg width="289" height="188" viewBox="0 0 289 188" fill="none" xmlns="http://www.w3.org/2000/svg">
<g opacity="0.75">
<path d="M251.592 85.7305C251.553 85.8787 251.513 86.0231 251.474 86.1658C251.245 86.9881 250.993 87.8064 250.717 88.6209C250.716 88.6258 250.715 88.6305 250.712 88.6349C250.666 88.7722 250.619 88.9088 250.571 89.0469C248.808 94.0966 246.138 98.9483 242.508 103.422C237.993 108.983 233.042 113.852 227.723 117.999C224.386 120.602 220.853 122.944 217.155 125.006C214.271 126.613 211.289 128.041 208.228 129.281C207.863 129.429 207.495 129.574 207.125 129.717C206.879 129.812 206.632 129.906 206.385 129.999C206.138 130.091 205.891 130.183 205.643 130.274C194.554 134.322 182.469 135.955 169.692 135.015C169.246 133.36 167.925 130.822 166.333 129.597C165.858 129.232 165.357 128.983 164.847 128.911C162.365 128.561 159.865 128.361 157.359 128.312C149.345 128.147 141.329 129.43 133.455 131.433C131.049 132.046 128.656 132.726 126.281 133.454C123.69 134.245 121.117 135.093 118.577 135.971C117.414 136.373 116.252 136.78 115.09 137.191C111.615 138.422 108.146 139.688 104.669 140.928C101.112 142.193 97.5505 143.424 93.9567 144.559C92.087 145.15 90.2095 145.709 88.3243 146.236C87.6515 146.424 86.9777 146.606 86.3028 146.782C85.5388 146.983 84.7737 147.177 84.0076 147.362C80.4983 148.228 76.9454 148.907 73.3639 149.396C71.7665 149.61 70.2074 149.864 68.6804 150.135C66.5291 150.517 64.442 150.933 62.3971 151.326C59.3337 151.912 56.3673 152.443 53.4251 152.718C47.8819 153.234 42.4294 152.839 36.5936 150.184C27.2524 145.936 19.7941 139.021 14.1148 130.732C12.2153 127.949 10.5123 125.038 9.0182 122.019C7.83618 119.64 6.77384 117.196 5.83041 114.71C3.52841 108.613 1.89794 102.285 0.96775 95.8371C0.739846 94.2691 0.552621 92.6903 0.406073 91.1009C0.330974 90.2849 0.266046 89.4668 0.211286 88.6466C-1.07635 69.2214 3.5571 48.7343 13.6931 32.5482C14.5192 31.2303 15.3815 29.9417 16.2801 28.6826C17.1891 27.4089 18.1359 26.1677 19.1206 24.959C20.5104 23.2537 21.9751 21.6211 23.5146 20.0614C24.4362 19.1309 25.3827 18.2283 26.3543 17.3535C27.7656 16.0887 29.2308 14.8886 30.75 13.7532C31.5609 13.1473 32.387 12.5622 33.2282 11.9979L33.5896 11.7577C35.0118 10.8184 36.4768 9.9389 37.9845 9.11925C38.9159 8.61372 39.863 8.13238 40.8257 7.67522C42.2552 6.99911 43.7197 6.37708 45.219 5.80915C46.1525 5.45497 47.0991 5.12471 48.0587 4.81838C49.8032 4.26085 51.5923 3.77976 53.4259 3.37514C57.6025 2.46565 61.8603 1.97769 66.1349 1.91863C72.2891 1.82033 78.2078 2.72919 84.0084 4.16385C84.7745 4.35316 85.5386 4.55183 86.3005 4.75987C87.1871 4.99963 88.0682 5.24979 88.9438 5.51036C89.6703 5.72411 90.396 5.94437 91.1209 6.17113C92.0664 6.46602 93.0099 6.76897 93.9512 7.07998C94.6083 7.2979 95.2649 7.51737 95.921 7.73841C97.1914 8.16904 98.46 8.60748 99.7268 9.05372C100.608 9.36213 101.489 9.67236 102.37 9.98441L104.664 10.7918L105.57 11.1109C109.503 12.4871 113.45 13.8234 117.449 14.9601C120.352 15.783 123.298 16.4424 126.275 16.9354C133.871 18.2062 141.608 18.4582 149.258 18.0557C154.968 17.7561 160.648 17.0157 166.326 16.3004C168.115 16.0757 169.904 15.8526 171.691 15.6474C172.638 15.5382 173.585 15.4342 174.532 15.3353C175.997 15.1845 177.462 15.0545 178.926 14.9453C179.874 14.8751 180.821 14.816 181.768 14.7682C183.231 14.6956 184.696 14.6519 186.161 14.6473C187.108 14.6415 188.055 14.6543 189.003 14.6855C190.466 14.73 191.93 14.8181 193.396 14.9585C194.343 15.048 195.29 15.159 196.238 15.2916C197.698 15.4997 199.162 15.7636 200.632 16.0835L200.657 16.0897C201.599 16.2978 202.538 16.5227 203.474 16.7645C204.951 17.1437 206.416 17.5644 207.868 18.0268C208.821 18.3295 209.768 18.6501 210.708 18.9887C212.521 19.6398 214.306 20.3563 216.064 21.138C216.43 21.3002 216.792 21.4656 217.151 21.6341C220.473 23.171 223.672 24.9596 226.72 26.9843C227.998 27.8346 229.244 28.7284 230.46 29.6656C234.477 32.7463 238.1 36.3063 241.248 40.266C241.597 40.707 241.94 41.1528 242.277 41.6031C242.465 41.8544 242.65 42.1066 242.832 42.3599C243.322 43.036 243.795 43.7215 244.25 44.4163C245.559 46.4025 246.739 48.4696 247.785 50.6051C248.585 52.2356 249.297 53.8918 249.922 55.5737C253.558 65.3379 254.244 75.8299 251.592 85.7305Z" fill="#F3F5F4"/>
<path d="M0.966293 95.8382C2.2508 104.694 4.90742 113.749 9.01753 122.02C10.5113 125.039 12.2145 127.95 14.1149 130.733C19.7942 139.022 27.2509 145.936 36.5929 150.185C42.4287 152.837 47.8812 153.234 53.4245 152.718V3.37622C51.5908 3.77877 49.802 4.26011 48.058 4.82024C47.0974 5.12657 46.1506 5.45631 45.2176 5.80945C43.7171 6.37583 42.2525 6.99811 40.8235 7.67631C39.8608 8.13346 38.9139 8.6148 37.983 9.12033C36.4758 9.93895 35.0109 10.8184 33.5882 11.7587C33.4672 11.8383 33.3467 11.9187 33.2268 11.9998C32.3861 12.5646 31.5597 13.1494 30.7477 13.7543C29.2285 14.8881 27.7638 16.0885 26.3536 17.3554C25.3805 18.2281 24.4337 19.1305 23.5132 20.0625C21.9747 21.6191 20.51 23.2516 19.1191 24.9601C18.1355 26.1678 17.1887 27.4092 16.2787 28.6845C15.3796 29.942 14.5172 31.2303 13.6917 32.5492C2.29539 50.7497 -2.14406 74.3932 0.966293 95.8382Z" fill="#D3E0DB"/>
<path d="M9.04395 47.9363V111.918H11.8852V37.8304C10.827 41.1366 9.87994 44.5053 9.04395 47.9363Z" fill="#9AB5A9"/>
<path d="M16.2793 28.6844V111.918H19.1198V24.9601C18.1367 26.1677 17.1899 27.4092 16.2793 28.6844Z" fill="#9AB5A9"/>
<path d="M23.5142 20.0626V111.918H26.3546V17.3547C25.3794 18.2274 24.4326 19.1301 23.5142 20.0626Z" fill="#9AB5A9"/>
<path d="M30.7495 13.7545V111.918H33.59V11.7589C32.6231 12.3981 31.6763 13.0633 30.7495 13.7545Z" fill="#9AB5A9"/>
<path d="M37.9836 9.12054V111.918H40.8249V7.67651C39.8611 8.13367 38.914 8.61501 37.9836 9.12054Z" fill="#9AB5A9"/>
<path d="M45.2183 5.8092V111.917H48.0587V4.81921C47.0981 5.12659 46.1513 5.45658 45.2183 5.8092Z" fill="#9AB5A9"/>
<path d="M115.089 38.0575V137.196C116.25 136.784 117.412 136.377 118.575 135.975C121.119 135.099 123.688 134.25 126.278 133.458C128.653 132.73 131.046 132.054 133.452 131.437C141.327 129.432 149.343 128.149 157.357 128.316V38.0552L115.089 38.0575Z" fill="#D3E0DB"/>
<path d="M153.306 47.2094H144.701V54.1861H153.306V47.2094Z" fill="#9AB5A9"/>
<path d="M142.058 47.2094H133.452V54.1861H142.058V47.2094Z" fill="#9AB5A9"/>
<path d="M130.809 47.2094H122.203V51.8574H130.809V47.2094Z" fill="white" stroke="black" stroke-width="16.2267" stroke-miterlimit="10"/>
<path d="M153.306 62.8756H144.701V69.8523H153.306V62.8756Z" fill="#9AB5A9"/>
<path d="M142.058 62.8756H133.452V69.8523H142.058V62.8756Z" fill="#9AB5A9"/>
<path d="M130.809 57.6472H122.203V62.2952H130.809V57.6472Z" fill="white" stroke="black" stroke-width="16.2267" stroke-miterlimit="10"/>
<path d="M153.306 78.5427H144.701V85.5194H153.306V78.5427Z" fill="#9AB5A9"/>
<path d="M142.058 78.5427H133.452V85.5194H142.058V78.5427Z" fill="#9AB5A9"/>
<path d="M130.809 68.0841H122.203V72.7321H130.809V68.0841Z" fill="white" stroke="black" stroke-width="16.2267" stroke-miterlimit="10"/>
<path d="M153.306 94.21H144.701V101.187H153.306V94.21Z" fill="#9AB5A9"/>
<path d="M142.058 94.21H133.452V101.187H142.058V94.21Z" fill="#9AB5A9"/>
<path d="M130.809 78.522H122.203V83.17H130.809V78.522Z" fill="white" stroke="black" stroke-width="16.2267" stroke-miterlimit="10"/>
<path d="M153.306 109.877H144.701V116.854H153.306V109.877Z" fill="#9AB5A9"/>
<path d="M142.058 109.877H133.452V116.854H142.058V109.877Z" fill="#9AB5A9"/>
<path d="M130.809 88.9598H122.203V93.6079H130.809V88.9598Z" fill="white" stroke="black" stroke-width="16.2267" stroke-miterlimit="10"/>
<path d="M115.089 38.0575V137.196C116.25 136.784 117.412 136.377 118.575 135.975C121.119 135.099 123.688 134.25 126.278 133.458C128.653 132.73 131.046 132.054 133.452 131.437V38.0552L115.089 38.0575Z" fill="#9AB5A9"/>
<path d="M250.571 89.0467C248.807 94.0965 246.137 98.9489 242.508 103.421C237.993 108.984 233.047 113.853 227.723 117.999C224.386 120.602 220.853 122.944 217.155 125.006C213.462 127.064 209.612 128.826 205.64 130.276V29.6654H230.461C234.477 32.7461 238.1 36.3061 241.248 40.2658C241.597 40.7058 241.94 41.1518 242.277 41.6038C242.962 42.5254 243.618 43.4631 244.247 44.4169C245.555 46.4032 246.736 48.4703 247.782 50.6057C248.581 52.2362 249.294 53.8924 249.92 55.5744C253.557 65.3377 254.243 75.8281 251.592 85.7303C251.275 86.9146 250.975 87.889 250.571 89.0467Z" fill="#D3E0DB"/>
<path d="M238.067 39.4496H227.72V44.4182H238.067V39.4496Z" fill="#9AB5A9"/>
<path d="M224.541 39.4496H214.194V44.4182H224.541V39.4496Z" fill="white" stroke="black" stroke-width="16.2267" stroke-miterlimit="10"/>
<path d="M241.246 50.6066V55.5752H249.92C249.295 53.8959 248.582 52.2396 247.782 50.6066H241.246Z" fill="#9AB5A9"/>
<path d="M238.067 50.6066H227.72V55.5752H238.067V50.6066Z" fill="#9AB5A9"/>
<path d="M224.541 50.6066H214.194V55.5752H224.541V50.6066Z" fill="white" stroke="black" stroke-width="16.2267" stroke-miterlimit="10"/>
<path d="M251.593 61.7634H241.246V66.7321H251.593V61.7634Z" fill="#9AB5A9"/>
<path d="M238.067 61.7634H227.72V66.7321H238.067V61.7634Z" fill="#9AB5A9"/>
<path d="M224.541 61.7634H214.194V66.7321H224.541V61.7634Z" fill="white" stroke="black" stroke-width="16.2267" stroke-miterlimit="10"/>
<path d="M251.593 72.9213H241.246V77.8899H251.593V72.9213Z" fill="#9AB5A9"/>
<path d="M238.067 72.9213H227.72V77.8899H238.067V72.9213Z" fill="#9AB5A9"/>
<path d="M224.541 72.9213H214.194V77.8899H224.541V72.9213Z" fill="white" stroke="black" stroke-width="16.2267" stroke-miterlimit="10"/>
<path d="M238.067 84.078H227.72V89.0467H238.067V84.078Z" fill="#9AB5A9"/>
<path d="M224.541 84.078H214.194V89.0467H224.541V84.078Z" fill="white" stroke="black" stroke-width="16.2267" stroke-miterlimit="10"/>
<path d="M205.638 29.6675V130.276C209.61 128.826 213.46 127.064 217.152 125.007C220.85 122.945 224.383 120.602 227.72 117.999V29.6675H205.638Z" fill="#B6CEC4"/>
<path d="M216.066 21.1429C214.309 20.3628 212.524 19.6461 210.709 18.9929C209.771 18.6543 208.824 18.3337 207.87 18.031C206.418 17.5691 204.953 17.1481 203.475 16.7679C202.541 16.5266 201.602 16.3019 200.659 16.0939L200.632 16.0884C199.165 15.7639 197.7 15.4997 196.237 15.2958C195.29 15.1622 194.343 15.0511 193.397 14.9627C191.93 14.8233 190.466 14.7321 189.003 14.6889C188.055 14.6577 187.108 14.6468 186.162 14.6507C184.696 14.6553 183.232 14.6998 181.768 14.7724C180.821 14.8197 179.873 14.8787 178.927 14.9494C177.461 15.0576 175.997 15.1876 174.533 15.3395C173.586 15.4362 172.639 15.5403 171.692 15.6516C169.903 15.8567 168.115 16.0799 166.326 16.3045V129.6C167.919 130.825 169.238 133.363 169.685 135.018C182.464 135.954 194.548 134.324 205.636 130.276C209.607 128.827 213.457 127.065 217.149 125.007" fill="#D3E0DB"/>
<path d="M207.867 18.0282V108.289H210.707V18.9901C209.768 18.6515 208.821 18.3309 207.867 18.0282Z" fill="#B6CEC4"/>
<path d="M200.634 16.0851V108.29H203.475V16.7646C202.541 16.5233 201.602 16.2986 200.659 16.0905L200.634 16.0851Z" fill="#B6CEC4"/>
<path d="M193.399 14.96V108.29H196.239V15.2923C195.292 15.1592 194.345 15.0484 193.399 14.96Z" fill="#B6CEC4"/>
<path d="M186.164 14.6477V108.29H189.006V14.686C188.057 14.6548 187.11 14.6438 186.164 14.6477Z" fill="#B6CEC4"/>
<path d="M178.929 14.9459V108.289H181.77V14.7688C180.822 14.8161 179.875 14.8752 178.929 14.9459Z" fill="#B6CEC4"/>
<path d="M171.693 15.6472V108.289H174.535V15.3383C173.588 15.435 172.641 15.538 171.693 15.6472Z" fill="#B6CEC4"/>
<path d="M84.0083 4.16455V147.368C84.7739 147.182 85.5384 146.989 86.302 146.788C88.8678 146.115 91.4173 145.365 93.9534 144.564C97.5433 143.432 101.108 142.198 104.666 140.932C108.142 139.694 111.612 138.428 115.086 137.197C116.247 136.785 117.409 136.378 118.573 135.976C121.117 135.1 123.686 134.251 126.276 133.459V16.9361C123.299 16.4423 120.352 15.7831 117.449 14.9616C113.451 13.8241 109.504 12.4878 105.571 11.1108C105.268 11.0055 104.966 10.8986 104.664 10.7925C103.899 10.5242 103.135 10.255 102.371 9.98511C101.49 9.67306 100.609 9.36283 99.7275 9.05442C98.4591 8.60974 97.1905 8.17131 95.9217 7.73911C95.2661 7.51756 94.6095 7.29808 93.9519 7.08068C93.0131 6.76863 92.0697 6.46568 91.1216 6.17183C90.3972 5.94455 89.6712 5.72403 88.9437 5.51028C88.0644 5.25023 87.1833 5.00033 86.3004 4.76057C85.539 4.55202 84.7749 4.35334 84.0083 4.16455Z" fill="#B6CEC4"/>
<path d="M122.228 19.0869H113.622V25.4902H122.228V19.0869Z" fill="#F3F5F4"/>
<path d="M110.978 19.0869H102.373V25.4902H110.978V19.0869Z" fill="#F3F5F4"/>
<path d="M99.7284 19.0869H91.1233V25.4902H99.7284V19.0869Z" fill="white" stroke="black" stroke-width="16.2267" stroke-miterlimit="10"/>
<path d="M122.228 33.4675H113.622V39.8709H122.228V33.4675Z" fill="#F3F5F4"/>
<path d="M110.978 33.4675H102.373V39.8709H110.978V33.4675Z" fill="#F3F5F4"/>
<path d="M99.7284 33.4675H91.1233V39.8709H99.7284V33.4675Z" fill="white" stroke="black" stroke-width="16.2267" stroke-miterlimit="10"/>
<path d="M122.228 47.8472H113.622V54.2505H122.228V47.8472Z" fill="#F3F5F4"/>
<path d="M110.978 47.8472H102.373V54.2505H110.978V47.8472Z" fill="#F3F5F4"/>
<path d="M99.7284 47.8472H91.1233V54.2505H99.7284V47.8472Z" fill="white" stroke="black" stroke-width="16.2267" stroke-miterlimit="10"/>
<path d="M122.228 62.2258H113.622V68.6291H122.228V62.2258Z" fill="#F3F5F4"/>
<path d="M110.978 62.2258H102.373V68.6291H110.978V62.2258Z" fill="#F3F5F4"/>
<path d="M99.7284 62.2258H91.1233V68.6291H99.7284V62.2258Z" fill="white" stroke="black" stroke-width="16.2267" stroke-miterlimit="10"/>
<path d="M62.3975 11.3835V151.329C65.8935 150.659 69.5162 149.916 73.365 149.401C76.9464 148.911 80.4992 148.232 84.0088 147.368C84.7743 147.183 85.5389 146.989 86.3024 146.789C88.8683 146.115 91.4177 145.366 93.9539 144.564C97.5438 143.433 101.109 142.198 104.666 140.932V11.3835H62.3975Z" fill="#D3E0DB"/>
<path d="M97.5512 13.5289H88.9453V18.177H97.5512V13.5289Z" fill="white" stroke="black" stroke-width="16.2267" stroke-miterlimit="10"/>
<path d="M97.5512 23.9657H88.9453V28.6137H97.5512V23.9657Z" fill="white" stroke="black" stroke-width="16.2267" stroke-miterlimit="10"/>
<path d="M74.8324 22.3623H66.2273V27.0103H74.8324V22.3623Z" fill="#9AB5A9"/>
<path d="M86.0827 22.3623H77.4768V27.0103H86.0827V22.3623Z" fill="#9AB5A9"/>
<path d="M74.8324 32.8002H66.2273V37.4482H74.8324V32.8002Z" fill="#9AB5A9"/>
<path d="M86.0827 32.8002H77.4768V37.4482H86.0827V32.8002Z" fill="#9AB5A9"/>
<path d="M74.8324 43.2371H66.2273V47.8851H74.8324V43.2371Z" fill="#9AB5A9"/>
<path d="M86.0827 43.2371H77.4768V47.8851H86.0827V43.2371Z" fill="#9AB5A9"/>
<path d="M74.8324 53.6748H66.2273V58.3228H74.8324V53.6748Z" fill="#9AB5A9"/>
<path d="M86.0827 53.6748H77.4768V58.3228H86.0827V53.6748Z" fill="#9AB5A9"/>
<path d="M74.8324 64.1116H66.2273V68.7596H74.8324V64.1116Z" fill="#9AB5A9"/>
<path d="M86.0827 64.1116H77.4768V68.7596H86.0827V64.1116Z" fill="#9AB5A9"/>
<path d="M97.5512 34.4036H88.9453V39.0516H97.5512V34.4036Z" fill="white" stroke="black" stroke-width="16.2267" stroke-miterlimit="10"/>
<path d="M86.3003 4.75977V146.787C88.8662 146.114 91.4156 145.364 93.9518 144.563C97.5417 143.431 101.107 142.197 104.664 140.931V10.7925C103.899 10.5242 103.135 10.255 102.371 9.98509C101.49 9.67303 100.609 9.3628 99.7274 9.05439C98.459 8.60971 97.1904 8.17128 95.9216 7.73909C95.266 7.51753 94.6094 7.29805 93.9518 7.08066C93.013 6.7686 92.0696 6.46565 91.1215 6.1718C90.3971 5.94453 89.6711 5.72401 88.9436 5.51025C88.0654 5.25073 87.1843 5.00057 86.3003 4.75977Z" fill="#D3E0DB"/>
<g opacity="0.63">
<path d="M272.667 99.9499C274.577 104.479 275.654 109.44 275.859 111.66C276.703 120.787 271.421 126.589 263.03 129.012C259.588 130.006 255.661 129.749 252.71 127.721C251.145 126.644 249.927 125.138 248.804 123.606C247.402 121.695 246.087 119.66 245.478 117.37C243.899 111.427 249.72 109.478 252.467 105.221C255.19 101 255.504 94.5194 260.271 91.8927C266.393 88.5187 270.561 94.9555 272.667 99.9499Z" fill="#D3E0DB"/>
</g>
<path d="M264.426 84.1155C262.875 85.8786 260.664 86.0908 258.736 81.9007C257.803 79.8724 258.758 77.1825 260.765 76.1909C267.868 72.6811 267.229 80.9302 264.426 84.1155Z" fill="#D3E0DB"/>
<path d="M118.648 10.6221C112.22 9.28181 105.411 6.85559 103.169 2.0531C100.331 -4.03192 122.116 5.27973 124.213 5.97483C132.701 8.78876 141.222 10.3685 150.097 8.18884C151.78 7.77615 162.415 4.79761 163.492 7.08729C163.961 8.0921 161.65 9.17805 160.818 9.62584C151.574 14.5945 137.696 13.209 127.653 12.0154C125.215 11.7205 121.983 11.3179 118.648 10.6221Z" fill="#D3E0DB"/>
<path opacity="0.44" d="M251.592 85.7306C251.554 85.8788 251.514 86.0232 251.474 86.1659C251.246 86.9882 250.993 87.8065 250.718 88.621C250.717 88.6258 250.715 88.6306 250.713 88.635C250.667 88.7723 250.619 88.9089 250.571 89.0469C248.808 94.0967 246.139 98.9484 242.508 103.422C237.994 108.983 233.043 113.852 227.723 117.999C224.386 120.602 220.853 122.944 217.155 125.006C214.271 126.613 211.29 128.041 208.229 129.281C207.864 129.429 207.496 129.574 207.125 129.717C206.879 129.812 206.633 129.906 206.386 129.999C206.138 130.091 205.891 130.183 205.643 130.274C194.554 134.322 182.47 135.955 169.692 135.015C169.246 133.36 167.926 130.822 166.334 129.597C165.858 129.232 165.357 128.983 164.847 128.911C162.366 128.561 159.865 128.361 157.359 128.313C149.346 128.147 141.33 129.43 133.455 131.433C131.049 132.046 128.656 132.727 126.281 133.454C123.69 134.245 121.118 135.093 118.578 135.971C117.415 136.373 116.252 136.78 115.09 137.191C111.615 138.422 108.147 139.688 104.67 140.928C99.0599 140.928 93.6395 143.085 88.3278 146.233C87.655 146.421 86.9812 146.603 86.3064 146.779C85.5423 146.98 84.7773 147.174 84.0111 147.359C80.5009 148.226 76.9469 148.906 73.3643 149.396C71.7669 149.61 70.2078 149.864 68.6808 150.135C66.5295 150.517 64.4424 150.933 62.3975 151.326C59.3341 151.912 56.3677 152.443 53.4255 152.718C47.8823 153.234 42.4298 152.839 36.594 150.184C27.2528 145.936 19.7945 139.021 14.1151 130.732C12.2157 127.949 10.5127 125.038 9.01859 122.019C7.83656 119.641 6.77422 117.196 5.83079 114.71C3.52879 108.614 1.89832 102.285 0.968134 95.8372C0.74023 94.2691 0.553004 92.6904 0.406457 91.101C0.331358 90.285 0.26643 89.4669 0.21167 88.6467C14.2301 92.9975 29.4361 93.3275 44.114 93.5179C69.147 93.8455 94.2199 92.2697 118.936 88.2567C164.329 80.8883 205.567 66.7024 242.829 42.3623C243.319 43.0384 243.792 43.7239 244.247 44.4187C245.556 46.4049 246.737 48.472 247.782 50.6075C248.582 52.238 249.294 53.8942 249.92 55.5762C253.558 65.338 254.244 75.83 251.592 85.7306Z" fill="#9AB5A9"/>
</g>
<path d="M269.041 163.688C275.925 156.374 274.46 143.696 267.499 136.457C264.572 133.414 260.761 131.11 256.582 130.461C252.403 129.812 247.87 130.958 244.84 133.899C244.521 127.952 240.136 122.216 234.269 121.105C228.402 119.994 221.83 124.359 221.303 130.291C224.958 138.072 229.674 144.543 235.576 150.802C238.689 154.102 242.257 157.245 246.643 158.43C250.111 159.366 253.812 158.999 257.324 159.756C259.805 160.294 266.74 162.614 269.041 163.688Z" fill="#BDD3AF"/>
<path d="M190.848 136.797C194.009 143.482 197.237 150.22 201.851 156.003C206.465 161.786 212.647 166.613 219.88 168.236C226.646 169.751 240.359 169.656 245.952 164.82C255.241 156.789 240.163 132.285 230.982 142.865C234.961 138.279 237.233 132.063 236.372 126.059C235.512 120.054 231.24 114.476 225.411 112.743C219.582 111.011 212.547 113.712 209.971 119.207C209.262 115.541 208.53 111.817 206.758 108.532C204.986 105.247 201.98 102.411 198.293 101.782C177.64 98.2562 186.198 126.955 190.848 136.797Z" fill="#A6BD97"/>
<path d="M59.4809 159.454C56.854 161.254 53.2711 159.859 50.1162 160.307C47.9203 160.619 45.9701 161.832 43.8532 162.501C33.6116 165.744 19.9154 163.407 11.8939 156.077C4.61482 149.427 1.73603 122.794 17.9292 128.686C15.0989 121.049 18.2844 111.913 24.6623 106.829C31.0403 101.745 40.0052 100.516 47.8906 102.632C56.3189 104.894 55.7971 109.003 58.5085 115.643C60.9821 121.699 66.5777 125.551 68.6703 132.353C70.7215 139.024 71.2862 146.885 67.0228 152.418C64.2301 156.044 63.2593 156.864 59.4809 159.454Z" fill="#BDD3AF"/>
<path d="M34.5975 142.015C32.4889 138.292 31.7629 133.947 32.5471 129.744C32.7224 128.824 32.9852 127.886 33.5852 127.169C34.9026 125.587 37.4661 125.602 39.2458 126.641C41.0255 127.68 42.2067 129.473 43.323 131.202C45.1082 127.457 50.0507 128.379 52.356 130.882C55.651 134.454 53.6468 139.946 51.6653 143.53C48.235 149.735 41.3134 155.823 34.1258 157.014C27.4302 158.123 20.9475 154.529 19.4815 147.542C17.4366 137.787 29.6089 133.281 34.5975 142.015Z" fill="#A6BD97"/>
<path d="M215.24 121.977C216.032 119.55 217.696 117.501 219.911 116.223C220.974 118.641 221.426 121.399 220.742 123.951C220.023 126.624 218.091 128.688 215.932 130.293C214.932 127.44 214.297 124.901 215.24 121.977Z" fill="#BDD3AF"/>
<path d="M214.863 139.357C216.152 138.113 217.856 137.389 219.648 137.322C219.511 139.167 218.883 141.022 217.621 142.378C216.297 143.799 214.421 144.445 212.557 144.732C212.874 142.639 213.318 140.86 214.863 139.357Z" fill="#BDD3AF"/>
<path d="M243.082 130.365C244.372 129.122 246.076 128.397 247.868 128.33C247.73 130.175 247.103 132.031 245.84 133.386C244.516 134.807 242.641 135.454 240.777 135.741C241.095 133.648 241.537 131.868 243.082 130.365Z" fill="#A6BD97"/>
<path d="M255.229 130.737C256.157 129.207 257.619 128.072 259.334 127.551C259.674 129.369 259.543 131.323 258.67 132.956C257.754 134.666 256.106 135.769 254.377 136.522C254.15 134.418 254.121 132.584 255.229 130.737Z" fill="#BDD3AF"/>
<path d="M263.28 141.959C264.208 140.429 265.67 139.294 267.385 138.772C267.725 140.591 267.594 142.546 266.721 144.178C265.804 145.888 264.157 146.991 262.428 147.744C262.2 145.639 262.172 143.806 263.28 141.959Z" fill="#A6BD97"/>
<path d="M244.549 145.698C245.477 144.167 246.938 143.032 248.654 142.511C248.994 144.33 248.862 146.283 247.989 147.916C247.073 149.627 245.426 150.729 243.696 151.482C243.469 149.377 243.44 147.544 244.549 145.698Z" fill="#A6BD97"/>
<path d="M227.111 112.679C228.602 111.542 230.462 110.993 232.334 111.138C231.969 113.041 231.092 114.896 229.614 116.153C228.066 117.472 226.037 117.919 224.06 117.994C224.649 115.855 225.323 114.056 227.111 112.679Z" fill="#84A05C"/>
<path d="M224.89 136.052C224.958 133.583 225.938 131.227 227.641 129.435C229.293 131.385 230.471 133.824 230.536 136.378C230.605 139.055 229.381 141.499 227.819 143.578C226.108 141.205 224.821 139.021 224.89 136.052Z" fill="#84A05C"/>
<path d="M32.6112 123.487C31.8188 121.061 30.1564 119.012 27.9426 117.733C26.8794 120.151 26.4281 122.91 27.1126 125.461C27.8307 128.135 29.7629 130.199 31.922 131.803C32.9186 128.951 33.5531 126.413 32.6112 123.487Z" fill="#A6BD97"/>
<path d="M32.988 140.868C31.6992 139.625 29.9954 138.9 28.2036 138.833C28.3405 140.678 28.9679 142.533 30.2305 143.889C31.5541 145.31 33.4292 145.956 35.2942 146.244C34.975 144.15 34.5338 142.375 32.988 140.868Z" fill="#BDD3AF"/>
<path d="M20.7392 114.191C19.2473 113.054 17.3875 112.507 15.5159 112.653C15.882 114.555 16.7589 116.41 18.2359 117.668C19.7848 118.986 21.8132 119.433 23.79 119.508C23.2026 117.366 22.5274 115.569 20.7392 114.191Z" fill="#A6BD97"/>
<path d="M22.0298 135.876C21.9782 134.008 21.2369 132.225 19.9481 130.87C18.6965 132.347 17.8078 134.19 17.7577 136.122C17.7053 138.151 18.6315 139.996 19.8136 141.57C21.1082 139.775 22.0822 138.124 22.0298 135.876Z" fill="#84A05C"/>
<path d="M283.492 160.806H5.99097C5.99097 170.852 17.3841 182.144 27.3895 182.144H30.4646L27.3746 182.264C51.9468 185.249 95.3548 187.233 144.8 187.233C194.17 187.233 237.517 185.256 262.11 182.278L258.762 182.144H262.093C273.911 182.144 283.492 172.591 283.492 160.806Z" fill="#B6CEC4"/>
<path d="M144.741 171.445C221.37 171.445 283.491 166.681 283.491 160.805C283.491 154.929 221.37 150.166 144.741 150.166C68.1115 150.166 5.99097 154.929 5.99097 160.805C5.99097 166.681 68.1115 171.445 144.741 171.445Z" fill="#D3E0DB"/>
<path d="M110.493 18.3164H43.6236C41.1476 18.3164 39.1404 20.3181 39.1404 22.7873V155.8C39.1404 158.269 41.1476 160.271 43.6236 160.271H110.493C112.969 160.271 114.976 158.269 114.976 155.8V22.7873C114.976 20.3181 112.969 18.3164 110.493 18.3164Z" fill="#84A05C"/>
<path d="M47.3857 18.3164V160.271H110.492C111.681 160.271 112.822 159.8 113.662 158.961C114.503 158.123 114.976 156.986 114.976 155.8V22.7873C114.976 21.6016 114.503 20.4644 113.662 19.6259C112.822 18.7874 111.681 18.3164 110.492 18.3164H47.3857Z" fill="#60723D"/>
<path d="M112.629 26.0505H49.7327V157.256H112.629V26.0505Z" fill="white"/>
<path d="M49.7327 107.737V157.258H112.628V66.1023C111.737 67.2553 110.843 68.4037 109.946 69.5473C106.795 73.5806 103.63 77.6287 99.9402 81.1768C94.5886 86.3256 88.249 90.3043 81.9579 94.2565C73.7542 99.4053 65.3454 104.638 55.89 106.764C53.8593 107.213 51.8031 107.538 49.7327 107.737Z" fill="#D3E0DB"/>
<path d="M61.9603 45.5646L61.2585 45.8536L65.1489 55.2464L65.8506 54.9574L61.9603 45.5646Z" fill="#84A05C"/>
<path d="M108.806 134.637L94.3931 136.339L94.4827 137.094L108.896 135.393L108.806 134.637Z" fill="#84A05C"/>
<path d="M93.7114 62.4453L94.3709 62.8283L94.41 62.762L97.4116 57.6202L112.629 31.5536V30.0417L96.5128 57.6467L93.7404 62.3954L93.7114 62.4453Z" fill="#84A05C"/>
<path d="M51.1091 42.6976L50.3987 42.9744L55.6495 56.3773L56.3599 56.1005L51.1091 42.6976Z" fill="#84A05C"/>
<path d="M65.5266 79.5035V157.255H66.2901V79.5035C66.2902 79.2729 66.3051 79.0425 66.3347 78.8138C66.4813 77.6785 66.9996 76.6232 67.8093 75.8119L68.2005 75.4218L73.3862 70.2839L73.962 69.7128L85.1986 58.5788L85.2769 58.5007L85.4818 58.2987L85.7165 58.0647L85.6258 57.9734L85.56 57.9079L85.4482 57.7955L85.3746 57.7175L85.1806 57.5225L84.6761 58.0225L68.3444 74.2056L67.2727 75.2681C66.3414 76.1993 65.7456 77.4118 65.5782 78.7163C65.5443 78.9773 65.5271 79.2402 65.5266 79.5035Z" fill="#84A05C"/>
<path d="M70.2644 26.0505L72.7481 31.5629L72.9046 31.9085L73.0611 32.2565L73.2293 32.6302L75.9899 38.7565L76.3028 39.4509L84.6748 58.0266L84.7781 58.2559L84.7867 58.252V58.2513L85.1207 58.1022L85.1551 58.0866L85.3851 57.9829H85.3867L85.4055 57.9743L85.4735 57.9439L85.4336 57.8557L85.425 57.8354H85.4242L85.4195 57.8245L85.3734 57.7215L85.3726 57.7208L71.0991 26.0505H70.2644Z" fill="#84A05C"/>
<path d="M76.1438 38.6785L62.0771 45.4841L62.4101 46.1685L76.4767 39.3629L76.1438 38.6785Z" fill="#84A05C"/>
<path d="M49.6763 142.303L49.7334 142.302L50.439 142.298L64.9088 142.209L65.5268 142.205L65.9094 142.202L66.1089 142.202L66.1049 141.44L65.9094 141.441L65.5268 141.443L65.0942 141.446L49.7334 141.542V142.025H49.6778L49.6763 142.303Z" fill="#84A05C"/>
<path d="M84.7437 58.3303L84.8508 58.3888L85.1989 58.5799L85.2506 58.6088L104.679 69.2623L105.373 69.643L112.134 73.3502L112.483 73.5413L112.565 73.5873L112.629 73.6216L112.631 73.6232L112.914 73.3447V73.3439L112.938 73.2331L112.629 73.1668V72.556L112.5 72.6824L94.4095 62.7622L93.7399 62.3956L85.6769 57.9746L85.5604 57.9098L85.4375 57.8427V57.8419L85.4242 57.8357L85.4141 57.8295L85.1121 57.6641L84.9275 57.9964L84.7867 58.2515L84.7437 58.3303Z" fill="#84A05C"/>
<path d="M107.416 122.248L107.484 122.905L107.524 123.283L107.562 123.656V123.661L108.695 134.652L108.773 135.408L111.025 157.256H111.792L109.803 137.958L109.765 137.578L109.725 137.199L109.703 136.984L108.619 126.475L108.541 125.715L108.177 122.171C106.939 110.211 107.595 98.1307 110.12 86.3734L110.511 84.5642L110.589 84.1898L110.617 84.0634L110.67 83.8137L112.569 74.96L112.63 74.6768L112.915 73.3452L112.939 73.2344L112.626 73.1681L112.563 73.1548L112.19 73.0768L112.131 73.353L109.37 86.2165C108.706 89.3116 108.171 92.4235 107.765 95.5524C107.749 95.6702 107.734 95.7864 107.719 95.9066C107.719 95.9159 107.719 95.9253 107.719 95.9346C107.703 96.061 107.686 96.189 107.671 96.3169C106.611 104.924 106.526 113.622 107.416 122.248Z" fill="#84A05C"/>
<path d="M107.728 96.3325L107.952 95.6054L91.2509 90.5018C91.2298 88.8838 91.0624 84.0798 91.0546 83.8621L91.0452 83.6031L78.5169 79.1844L78.2627 79.9014L90.3012 84.1453C90.3395 85.2703 90.4897 89.7154 90.4897 90.7811V91.0627L107.728 96.3325Z" fill="#84A05C"/>
<path d="M83.7457 81.7698L80.6775 116.258L81.4372 116.325L84.5055 81.8371L83.7457 81.7698Z" fill="#84A05C"/>
<path d="M73.8342 69.4293L73.1426 69.75L78.0463 80.266L78.7379 79.9452L73.8342 69.4293Z" fill="#84A05C"/>
<path d="M104.775 68.9033L99.2256 92.875L99.9688 93.0461L105.518 69.0744L104.775 68.9033Z" fill="#84A05C"/>
<path d="M75.2545 115.879L74.4922 115.903L75.0369 133.482L75.7993 133.458L75.2545 115.879Z" fill="#84A05C"/>
<path d="M93.5318 76.0544L93.2788 76.772L102.838 80.1235L103.091 79.4059L93.5318 76.0544Z" fill="#84A05C"/>
<path d="M94.659 69.657L93.0247 76.3074L93.7655 76.4884L95.3998 69.838L94.659 69.657Z" fill="#84A05C"/>
<path d="M49.7327 43.252L73.0611 32.2569L73.2856 32.1508L73.5007 32.0501L73.338 31.7061L73.3372 31.7053L73.1745 31.3621L72.7481 31.5633L49.7327 42.4095V43.252Z" fill="#84A05C"/>
<path d="M65.5113 97.9309H49.7327V98.6915H65.5113V97.9309Z" fill="#84A05C"/>
<path d="M109.031 137.322L109.099 137.696L109.166 138.071L109.426 138.024L109.803 137.957L112.629 137.452H112.632V136.679H112.629L109.725 137.198L109.484 137.242L109.348 137.266L109.031 137.322Z" fill="#84A05C"/>
<path d="M108.231 125.776L108.38 126.523L108.619 126.475L112.619 125.682L112.629 125.68V124.905L112.618 124.906L108.541 125.714L108.231 125.776Z" fill="#84A05C"/>
<path d="M110.287 84.0821L110.587 84.189L112.577 84.8911L112.629 84.909V83.9393L112.576 83.9417L111.261 84.022L110.615 84.0626L110.287 84.0821Z" fill="#84A05C"/>
<path d="M110.159 84.4414L110.507 84.5638L112.578 85.2948V85.2956L112.629 85.3128V84.5053L112.577 84.4882L111.261 84.0224L110.668 83.8133L110.414 83.7236L110.287 84.0825L110.159 84.4414Z" fill="#84A05C"/>
<path d="M49.5808 155.25L49.6614 155.018L49.7326 154.816V157.256H50.3287L50.4382 142.298L50.4398 142.03L49.7326 142.025H49.677L49.6755 142.303L49.5855 154.621L49.5832 155V155.017L49.5808 155.25Z" fill="#84A05C"/>
<path d="M88.286 149.477L66.0964 150.509L66.132 151.269L88.3215 150.237L88.286 149.477Z" fill="#84A05C"/>
<path d="M86.5007 125.402L86.9709 131.506L88.9547 157.256H89.7198L87.7829 132.112L87.3174 126.072L92.0346 125.511L92.4148 125.465L92.7934 125.42L107.56 123.663H107.562L107.757 123.639L107.711 123.262L107.666 122.884L107.484 122.906L92.7058 124.664L92.3272 124.709L91.947 124.754L86.5007 125.402Z" fill="#84A05C"/>
<path d="M93.7615 143.561L94.6674 152.498L96.7725 152.246L97.8559 152.116L100.739 151.77L101.294 157.256H102.06L101.421 150.921L97.5407 151.387L97.0752 151.443L95.3479 151.65L94.6415 144.681L94.5203 143.484L93.7615 143.561Z" fill="#84A05C"/>
<path d="M49.7327 110.448V111.209C54.0853 111.339 60.2661 111.526 63.518 111.62C64.4943 111.649 65.207 111.669 65.5261 111.678H65.71V110.917H65.5261C64.2142 110.882 56.2866 110.645 49.7327 110.448Z" fill="#84A05C"/>
<path d="M49.5837 155V155.016H49.662C49.6364 155.009 49.6102 155.003 49.5837 155Z" fill="#84A05C"/>
<path d="M49.5808 155.248L49.659 155.014L49.7294 154.811L49.7842 154.655C49.7663 154.649 49.748 154.644 49.7294 154.641C49.6809 154.631 49.6318 154.623 49.5824 154.618V154.997V155.013L49.5808 155.248Z" fill="#84A05C"/>
<path d="M59.9704 66.587L49.7327 66.4193V67.1807L59.9579 67.3477L59.9704 66.587Z" fill="#84A05C"/>
<path d="M93.3814 136.681L94.1081 136.447L94.1152 136.472C94.0041 135.937 92.2956 121.142 91.6471 115.487L91.6072 115.141L66.3943 115.765L66.4131 116.526L90.929 115.916C91.6651 122.335 93.2828 136.372 93.3814 136.681Z" fill="#84A05C"/>
<path d="M97.8507 23.6753C96.8228 23.5653 85.5861 23.6277 78.2202 23.6979C77.9841 23.7002 77.7567 23.6088 77.5882 23.444C77.4196 23.2791 77.3236 23.0542 77.3213 22.8187C77.319 22.5833 77.4107 22.3565 77.576 22.1884C77.7413 22.0203 77.9669 21.9246 78.203 21.9223C78.2515 21.9223 83.1055 21.8763 87.9533 21.8537C97.9305 21.8069 98.1386 21.8896 98.3788 21.9855C98.5737 22.0603 98.736 22.2011 98.8374 22.3832C98.9388 22.5653 98.9727 22.7772 98.9333 22.9817C98.8939 23.1863 98.7836 23.3705 98.6217 23.5021C98.4598 23.6338 98.2567 23.7044 98.0479 23.7018C97.9813 23.7007 97.9152 23.6918 97.8507 23.6753Z" fill="#84A05C"/>
<path d="M64.3141 23.6158H72.6477C72.8838 23.6158 73.1102 23.5223 73.2772 23.3558C73.4441 23.1893 73.5379 22.9635 73.5379 22.728C73.5379 22.4925 73.4441 22.2667 73.2772 22.1002C73.1102 21.9337 72.8838 21.8402 72.6477 21.8402H64.3141C64.0779 21.8402 63.8515 21.9337 63.6846 22.1002C63.5176 22.2667 63.4238 22.4925 63.4238 22.728C63.4238 22.9635 63.5176 23.1893 63.6846 23.3558C63.8515 23.5223 64.0779 23.6158 64.3141 23.6158Z" fill="#84A05C"/>
<path d="M61.2483 123.197C61.1485 122.921 60.9936 122.669 60.793 122.454C59.0532 120.698 58.6566 125.772 58.4814 127.001C58.2029 128.951 58.152 130.923 58.1919 132.888C58.2115 133.831 59.0305 137.922 58.5189 138.605C60.2149 136.342 60.5176 131.974 61.1857 129.252C61.6785 127.24 62.2809 123.338 60.5208 121.772C60.1132 121.409 59.485 121.234 59.011 121.504C58.5995 121.738 58.4149 122.228 58.2952 122.685C57.4566 125.884 58.2881 129.282 57.9478 132.573C57.6999 134.97 56.8354 137.417 57.5184 139.728C57.7268 139.567 57.8951 139.36 58.0101 139.123C58.125 138.886 58.1835 138.626 58.181 138.363" fill="#111111"/>
<path d="M90.6965 123.848C90.6965 123.848 87.2607 124.706 83.8257 130.792C83.8257 130.792 83.2476 118.941 86.6513 118.941C86.6513 118.944 89.3095 118.777 90.6965 123.848Z" fill="#070208"/>
<path d="M143.697 157.92C149.478 157.92 154.164 151.506 154.164 143.595C154.164 135.684 149.478 129.27 143.697 129.27C137.916 129.27 133.23 135.684 133.23 143.595C133.23 151.506 137.916 157.92 143.697 157.92Z" fill="#530905"/>
<path d="M133.544 143.545C133.544 149.902 135.948 155.055 138.912 155.055C141.876 155.055 144.279 149.902 144.279 143.545C144.279 137.189 141.876 132.035 138.912 132.035C135.948 132.035 133.544 137.189 133.544 143.545Z" fill="#530905"/>
<path d="M58.2812 138.917C58.2812 150.735 61.9368 160.315 66.4467 160.315C70.9565 160.315 74.6129 150.735 74.6129 138.917C74.6129 127.099 70.9565 117.519 66.4467 117.519C61.9368 117.519 58.2812 127.1 58.2812 138.917Z" fill="#72120C"/>
<path d="M59.8105 139.372C59.8105 147.279 61.2507 153.688 63.0265 153.688C64.8023 153.688 66.2425 147.279 66.2425 139.372C66.2425 131.465 64.8023 125.056 63.0265 125.056C61.2507 125.056 59.8105 131.465 59.8105 139.372Z" fill="#F28B0F"/>
<path d="M60.0161 139.845C60.0161 145.146 60.9815 149.441 62.1721 149.441C63.3627 149.441 64.328 145.144 64.328 139.845C64.328 134.546 63.3627 130.25 62.1721 130.25C60.9815 130.25 60.0161 134.545 60.0161 139.845Z" fill="#F3F5F4"/>
<path d="M191.404 163.778C199.63 163.778 206.3 154.65 206.3 143.391C206.3 132.132 199.63 123.005 191.404 123.005C183.177 123.005 176.507 132.132 176.507 143.391C176.507 154.65 183.177 163.778 191.404 163.778Z" fill="#530905"/>
<path d="M178.881 144.239C178.881 153.777 182.892 161.509 187.839 161.509C192.786 161.509 196.798 153.777 196.798 144.239C196.798 134.702 192.787 126.97 187.839 126.97C182.891 126.97 178.881 134.702 178.881 144.239Z" fill="#72120C"/>
<path d="M181.001 145.271C181.001 151.733 183.331 156.973 186.204 156.973C189.077 156.973 191.408 151.736 191.408 145.271C191.408 138.807 189.078 133.569 186.204 133.569C183.33 133.569 181.001 138.81 181.001 145.271Z" fill="#B6CEC4"/>
<path d="M81.0835 143.12C81.0831 144.202 81.1403 145.284 81.2548 146.361C81.29 146.701 81.333 147.015 81.369 147.297C81.4551 147.913 81.5594 148.518 81.6819 149.111C82.5518 153.371 84.3276 157.035 86.6705 159.601C88.911 162.055 91.6724 163.502 94.6592 163.502C100.34 163.502 105.207 158.259 107.23 150.82C107.903 148.307 108.24 145.717 108.233 143.116C108.233 138.835 107.355 134.865 105.854 131.585C103.407 126.236 99.3059 122.73 94.6592 122.73C93.9014 122.73 93.1466 122.823 92.4117 123.007C91.8022 123.161 91.2086 123.373 90.639 123.638C90.5428 123.684 90.4458 123.73 90.3496 123.779C89.1457 124.383 88.0176 125.234 86.9921 126.292C85.8718 127.444 84.8736 128.843 84.0303 130.435C83.8927 130.695 83.7594 130.96 83.6306 131.23C83.6303 131.233 83.6303 131.236 83.6306 131.239C82.0254 134.587 81.0835 138.688 81.0835 143.12Z" fill="#72120C"/>
<path d="M83.1584 143.017C83.1584 151.02 86.1045 157.508 89.7382 157.508C93.3719 157.508 96.3188 151.02 96.3188 143.017C96.3188 135.015 93.3727 128.526 89.7382 128.526C86.1037 128.526 83.1584 135.014 83.1584 143.017Z" fill="#F28B0F"/>
<path d="M84.0024 142.983C84.0024 149.354 86.3493 154.519 89.2437 154.519C92.1382 154.519 94.485 149.354 94.485 142.983C94.485 136.612 92.1382 131.448 89.2437 131.448C86.3493 131.448 84.0024 136.612 84.0024 142.983Z" fill="#F3F5F4"/>
<path d="M170.445 82.5C170.17 82.2696 169.896 82.0426 169.624 81.819C169.895 82.0436 170.17 82.2699 170.445 82.5Z" fill="white"/>
<path d="M170.445 82.5C170.17 82.2696 169.896 82.0426 169.624 81.819C169.895 82.0436 170.17 82.2699 170.445 82.5Z" stroke="black" stroke-width="16.2267" stroke-miterlimit="10"/>
<path d="M166.379 79.2063C166.057 78.9543 165.739 78.7078 165.428 78.4714C165.739 78.7086 166.056 78.9536 166.379 79.2063Z" fill="white"/>
<path d="M166.379 79.2063C166.057 78.9543 165.739 78.7078 165.428 78.4714C165.739 78.7086 166.056 78.9536 166.379 79.2063Z" stroke="black" stroke-width="16.2267" stroke-miterlimit="10"/>
<path d="M165.428 78.4717C165.104 78.2247 164.787 77.9862 164.478 77.7563C164.787 77.9867 165.104 78.2252 165.428 78.4717Z" fill="white"/>
<path d="M165.428 78.4717C165.104 78.2247 164.787 77.9862 164.478 77.7563C164.787 77.9867 165.104 78.2252 165.428 78.4717Z" stroke="black" stroke-width="16.2267" stroke-miterlimit="10"/>
<path d="M164.209 77.5585C163.948 77.3651 163.693 77.1804 163.443 77.0046C163.692 77.182 163.947 77.3666 164.209 77.5585Z" fill="white"/>
<path d="M164.209 77.5585C163.948 77.3651 163.693 77.1804 163.443 77.0046C163.692 77.182 163.947 77.3666 164.209 77.5585Z" stroke="black" stroke-width="16.2267" stroke-miterlimit="10"/>
<path d="M163.259 76.874C162.83 76.5703 162.423 76.2936 162.038 76.0439C162.422 76.2936 162.829 76.5703 163.259 76.874Z" fill="white"/>
<path d="M163.259 76.874C162.83 76.5703 162.423 76.2936 162.038 76.0439C162.422 76.2936 162.829 76.5703 163.259 76.874Z" stroke="black" stroke-width="16.2267" stroke-miterlimit="10"/>
<path d="M162.038 76.0435C161.928 75.9709 161.82 75.9007 161.715 75.8359C161.82 75.903 161.928 75.9717 162.038 76.0435Z" fill="white"/>
<path d="M162.038 76.0435C161.928 75.9709 161.82 75.9007 161.715 75.8359C161.82 75.903 161.928 75.9717 162.038 76.0435Z" stroke="black" stroke-width="16.2267" stroke-miterlimit="10"/>
<path d="M68.8411 92.2214C68.8927 92.0771 68.9459 91.9343 68.9975 91.7924" stroke="black" stroke-width="16.2267" stroke-miterlimit="10"/>
<path d="M68.999 91.7926L69.0953 91.5398" stroke="black" stroke-width="16.2267" stroke-miterlimit="10"/>
<path d="M69.095 91.54L69.1615 91.3684" stroke="black" stroke-width="16.2267" stroke-miterlimit="10"/>
<path d="M70.5304 88.2815C70.0555 89.2371 69.5877 90.2747 69.1614 91.3685C71.2243 86.0924 74.2579 82.1403 74.2579 82.1403C74.3174 82.0623 74.3753 81.9843 74.4347 81.9062C74.3753 81.9843 74.315 82.0623 74.2564 82.1403C74.2532 82.1403 72.35 84.625 70.5304 88.2815Z" fill="white"/>
<path d="M70.5304 88.2815C70.0555 89.2371 69.5877 90.2747 69.1614 91.3685C71.2243 86.0924 74.2579 82.1403 74.2579 82.1403C74.3174 82.0623 74.3753 81.9843 74.4347 81.9062C74.3753 81.9843 74.315 82.0623 74.2564 82.1403C74.2532 82.1403 72.35 84.625 70.5304 88.2815Z" stroke="black" stroke-width="16.2267" stroke-miterlimit="10"/>
<path d="M94.0271 71.5395C94.0068 71.5395 93.9489 71.5341 93.8582 71.5317L94.0146 71.5411L94.0271 71.5395Z" fill="white"/>
<path d="M94.0271 71.5395C94.0068 71.5395 93.9489 71.5341 93.8582 71.5317L94.0146 71.5411L94.0271 71.5395Z" stroke="black" stroke-width="16.2267" stroke-miterlimit="10"/>
<path d="M92.6113 71.5396C93.2074 71.5084 93.6361 71.517 93.8583 71.5271C93.6424 71.5193 93.2129 71.51 92.6113 71.5396Z" fill="white"/>
<path d="M92.6113 71.5396C93.2074 71.5084 93.6361 71.517 93.8583 71.5271C93.6424 71.5193 93.2129 71.51 92.6113 71.5396Z" stroke="black" stroke-width="16.2267" stroke-miterlimit="10"/>
<path d="M92.5996 71.5396L92.4431 71.5481" stroke="black" stroke-width="16.2267" stroke-miterlimit="10"/>
<g opacity="0.55">
<path d="M86.6689 159.602C88.9094 162.057 91.6708 163.503 94.6576 163.503C100.339 163.503 105.205 158.261 107.229 150.821C108.888 150.869 110.705 150.919 112.656 150.97C112.285 143.991 110.295 136.954 105.85 131.586C105.811 131.537 105.772 131.487 105.728 131.437C102.332 127.399 97.4988 123.984 92.4085 123.012C91.799 123.166 91.2055 123.377 90.6359 123.643C90.5397 123.688 90.4427 123.734 90.3464 123.783C89.1425 124.388 88.0145 125.238 86.9889 126.296C86.9991 126.331 87.0108 126.366 87.021 126.402C87.301 127.318 87.5576 128.242 87.7907 129.171C87.9952 129.981 88.1816 130.795 88.3501 131.614C89.7835 138.555 89.937 145.698 88.803 152.694C88.7107 153.262 88.6074 153.833 88.4901 154.402C88.3169 155.243 88.0975 156.074 87.833 156.891C87.5346 157.831 87.1448 158.739 86.6689 159.602Z" fill="#530905"/>
</g>
<path d="M56.7377 137.393C57.0396 138.864 57.5466 140.187 58.3273 141.241C58.3273 141.241 58.224 139.271 58.1661 136.596C58.0347 130.52 58.1333 120.807 60.1907 122.294C60.4599 122.568 60.7007 122.868 60.9096 123.191C61.4112 123.941 61.8308 124.743 62.1612 125.582C62.7988 127.161 63.3957 129.368 63.6006 132.331C63.6116 132.476 63.621 132.624 63.6288 132.773C63.6734 133.575 63.6882 134.431 63.6687 135.341C63.6634 136.704 63.74 138.065 63.8979 139.418C63.9879 140.183 64.1107 140.999 64.2812 141.809C64.609 143.363 65.1096 144.898 65.8739 146.03C66.4865 146.936 67.268 147.583 68.2661 147.773L73.7836 148.325L81.6846 149.113H81.7183C81.5695 148.514 81.4543 147.907 81.3733 147.294C81.3334 147.011 81.295 146.698 81.2591 146.358C80.7448 141.2 81.5607 135.996 83.6294 131.24C83.6291 131.237 83.6291 131.234 83.6294 131.232C83.6927 131.086 83.7577 130.941 83.8241 130.794C83.8241 130.794 83.8241 130.787 83.8241 130.772C83.8241 130.694 83.832 130.46 83.8468 130.096C83.9431 127.819 84.3944 120.699 86.3001 119.359C86.4345 119.26 86.5888 119.192 86.7522 119.159C87.3781 119.036 88.1408 119.482 89.0623 120.769C89.369 121.197 89.4065 121.45 89.9165 122.686C89.9236 122.703 89.9306 122.721 89.9385 122.739C90.0662 123.051 90.2026 123.399 90.3476 123.784C90.3671 123.838 90.3883 123.892 90.4086 123.947C91.0911 125.779 91.6753 127.646 92.1586 129.539C92.5215 130.955 92.8626 132.513 93.1466 134.186C93.2506 134.799 93.3476 135.429 93.4337 136.072C93.8449 139.092 93.9938 142.142 93.8788 145.188L93.9054 145.279C93.9453 145.457 94.0619 145.876 94.2402 146.424C94.2778 146.537 94.3185 146.658 94.3615 146.778L94.3724 146.81C94.6572 147.615 95.0765 148.594 95.6366 149.445C95.8773 149.821 96.1568 150.171 96.4705 150.489C96.4705 150.489 100.582 150.634 107.228 150.825L107.915 150.844C109.385 150.886 110.971 150.929 112.655 150.974H112.668L114.188 151.013H114.299C120.282 151.169 127.375 151.325 134.942 151.449H135.01C137.549 151.489 140.141 151.527 142.762 151.557C145.93 151.595 149.143 151.623 152.355 151.642C161.092 151.691 169.834 151.659 177.728 151.486C178.389 151.472 179.045 151.457 179.694 151.44C180.392 151.422 181.083 151.403 181.766 151.383C184.954 151.29 187.964 151.17 190.735 151.02C192.666 150.916 194.479 150.797 196.156 150.661C197.056 150.587 197.915 150.509 198.733 150.427C199.066 150.392 199.392 150.359 199.711 150.323C199.981 150.294 200.245 150.264 200.504 150.233C200.894 150.187 201.272 150.139 201.636 150.09C202.601 149.959 203.476 149.817 204.253 149.67C204.253 149.67 205.513 147.663 206.23 145.347C206.297 145.13 206.359 144.908 206.416 144.686C206.617 143.91 206.741 143.125 206.72 142.385C206.72 142.276 206.71 142.169 206.701 142.063C206.701 142.063 206.636 123.511 201.938 115.972C201.938 115.972 201.995 114.46 201.547 112.4C201.299 111.247 200.927 110.125 200.436 109.052V109.045C199.933 107.943 199.284 106.913 198.506 105.983C198.072 105.469 197.598 104.991 197.086 104.553C197.012 104.49 196.938 104.429 196.863 104.367L196.749 104.275C196.635 104.183 196.515 104.092 196.397 104.004L196.277 103.916C196.236 103.887 196.199 103.858 196.154 103.829L196.031 103.743C195.94 103.681 195.848 103.619 195.754 103.558C195.676 103.507 195.598 103.457 195.52 103.407L195.387 103.329C195.301 103.277 195.212 103.226 195.122 103.173L195.111 103.167L194.996 103.102L194.84 103.015C194.811 102.999 194.783 102.985 194.754 102.971C193.919 102.532 193.043 102.177 192.139 101.909C192.139 101.909 189.877 99.7704 186.519 96.6881L186.426 96.6031C186.342 96.5251 186.256 96.4471 186.17 96.3691C186.058 96.2661 185.945 96.1616 185.83 96.057C185.152 95.4329 184.435 94.7799 183.69 94.1067C183.617 94.0396 183.541 93.9725 183.468 93.9046C183.305 93.7574 183.141 93.6087 182.976 93.4584L182.317 92.8624C181.602 92.2164 180.867 91.5549 180.118 90.8847L179.672 90.4877C179.508 90.3402 179.343 90.1928 179.178 90.0469L178.69 89.6116C178.244 89.2179 177.796 88.8221 177.346 88.4242L176.945 88.0716C176.444 87.6316 175.941 87.1919 175.438 86.7524C175.367 86.6915 175.296 86.6291 175.224 86.5667C175.128 86.4825 175.032 86.3987 174.934 86.3155C174.864 86.2539 174.795 86.1938 174.724 86.133C174.439 85.8854 174.154 85.6391 173.869 85.3942L173.486 85.0657C172.715 84.4034 171.947 83.752 171.192 83.1154L170.948 82.9095L170.46 82.5022L170.107 82.2097L170.049 82.1605L169.98 82.1036L169.641 81.8227C169.077 81.3547 168.524 80.9032 167.981 80.4684L167.633 80.1907L167.407 80.0081L167.182 79.8295C166.916 79.6189 166.654 79.4113 166.395 79.2054C166.35 79.1711 166.305 79.1352 166.26 79.1001C166.216 79.065 166.189 79.0462 166.154 79.0182C165.997 78.8941 165.835 78.7709 165.679 78.6507L165.444 78.4713L165.202 78.2872L164.962 78.107C164.806 77.9876 164.649 77.8729 164.493 77.7559L164.422 77.7036L164.225 77.5578L164.029 77.415L163.646 77.138L163.458 77.0039C163.396 76.9602 163.334 76.9157 163.273 76.8736L163.113 76.7612L162.957 76.6512L162.8 76.5428C162.748 76.5085 162.697 76.4726 162.644 76.4383C162.542 76.3688 162.442 76.301 162.342 76.2354C162.242 76.1699 162.146 76.1051 162.05 76.0427C162.028 76.0295 162.008 76.0154 161.986 76.0014C161.898 75.9444 161.811 75.8898 161.727 75.836C160.67 75.1674 159.816 74.7321 159.232 74.5971C159.232 74.5971 129.617 70.8822 94.047 71.5367H94.0298L93.932 71.5305C93.914 71.5305 93.8937 71.5305 93.8702 71.5305H93.7826H93.6817H93.6738C93.5354 71.5305 93.3609 71.5258 93.1435 71.5305C93.0864 71.5305 93.0269 71.5305 92.9651 71.5359H92.8869L92.7406 71.5422L92.6248 71.5484C92.5794 71.5484 92.5325 71.5531 92.4856 71.5562C89.2 71.759 81.2528 73.1999 74.4493 81.9156L74.3601 82.0302C74.3304 82.0685 74.3014 82.1083 74.2725 82.1465L74.2522 82.1722C74.2412 82.1871 74.2295 82.2019 74.2185 82.2175C74.2076 82.2331 74.1841 82.2619 74.1677 82.2846C74.1512 82.3072 74.1466 82.3127 74.1372 82.3267C74.1278 82.3407 74.1027 82.3704 74.0863 82.393C74.0844 82.3951 74.0828 82.3975 74.0816 82.4C70.7374 86.8468 68.2255 91.7343 66.1493 96.8114C66.0111 97.1489 65.8747 97.487 65.7402 97.8256C65.6056 98.1641 65.4682 98.5038 65.3279 98.8444C65.2442 99.0621 65.1621 99.2805 65.0799 99.4982C64.8395 100.136 64.6048 100.777 64.3759 101.42C63.944 102.628 63.5268 103.842 63.1242 105.063C61.5456 109.854 60.157 114.705 58.6566 119.438C58.6605 119.44 55.2537 130.189 56.7377 137.393Z" fill="#FDB23D"/>
<path d="M67.924 95.2598C67.7449 96.0001 67.5978 96.7529 67.4915 97.5112C67.5986 96.7529 67.7457 96.0001 67.924 95.2598Z" fill="white"/>
<path d="M67.924 95.2598C67.7449 96.0001 67.5978 96.7529 67.4915 97.5112C67.5986 96.7529 67.7457 96.0001 67.924 95.2598Z" stroke="black" stroke-width="16.2267" stroke-miterlimit="10"/>
<path d="M67.4595 97.7515C67.4697 97.6735 67.4806 97.59 67.4916 97.5089C67.4798 97.5869 67.4705 97.6579 67.4603 97.732C67.4596 97.7385 67.4594 97.745 67.4595 97.7515Z" fill="white"/>
<path d="M67.4595 97.7515C67.4697 97.6735 67.4806 97.59 67.4916 97.5089C67.4798 97.5869 67.4705 97.6579 67.4603 97.732C67.4596 97.7385 67.4594 97.745 67.4595 97.7515Z" stroke="black" stroke-width="16.2267" stroke-miterlimit="10"/>
<path d="M186.6 96.6039L189.126 98.8546L190.762 98.3085L190.353 96.1397C187.12 90.8036 182.316 92.6018 182.316 92.6018L186.6 96.6039Z" fill="#530905"/>
<path d="M80.9382 76.3985C80.9382 76.3985 91.668 68.4833 91.4638 77.2473C91.4638 77.2473 89.5738 100.027 85.8267 103.699C85.8267 103.699 69.9253 100.587 67.5933 98.0097C66.7516 97.0798 74.0862 80.3031 80.9382 76.3985Z" fill="#72120C"/>
<path d="M76.5435 95.8987C76.5435 95.8987 77.059 96.2225 77.8499 96.6281C79.7187 97.5854 83.1287 98.9919 84.924 97.6314C85.1465 97.454 85.3422 97.2457 85.5053 97.0128C85.9817 96.3645 86.4346 95.4026 86.8524 94.2878C86.8524 94.2792 86.8586 94.2706 86.8625 94.2612C86.879 94.2183 86.8954 94.1739 86.911 94.1294C87.2318 93.2595 87.5306 92.3023 87.8044 91.3318C88.0258 90.5423 88.2307 89.7443 88.4153 88.9766C88.661 87.9625 88.8714 86.9951 89.0412 86.1744C89.1914 85.4473 89.3095 84.8318 89.3909 84.3941C89.4761 83.9346 89.5215 83.6694 89.5215 83.6694C89.6473 82.8682 89.7298 82.0609 89.7687 81.251C89.8759 79.0775 89.6905 76.1614 87.9882 75.7214C87.9882 75.7214 86.5934 75.4546 85.8448 75.613C85.6562 75.6527 85.5084 75.7191 85.4341 75.8236C84.9287 76.5351 84.3991 77.3277 83.8554 78.1991C83.5879 78.6292 83.3172 79.078 83.0434 79.5456C82.6319 80.2477 82.2166 80.9974 81.8043 81.7846C81.3501 82.6474 80.9013 83.5576 80.458 84.515C80.4561 84.518 80.4545 84.5211 80.4533 84.5244C79.6945 86.172 78.967 87.957 78.2981 89.8597C78.2606 89.9682 78.2199 90.075 78.1862 90.1843C77.5428 92.0604 76.9945 93.9676 76.5435 95.8987Z" fill="#D3E0DB"/>
<path d="M70.7866 93.7581C70.7866 93.7581 72.8033 94.5195 74.2795 94.9002C74.3311 94.9135 74.3812 94.9268 74.4313 94.9385C75.0892 95.1 75.6141 95.1725 75.7611 95.0485C75.9372 94.8979 76.5067 93.1902 77.3132 90.8717C77.4556 90.4597 77.6065 90.0283 77.7653 89.5829C77.7912 89.5049 77.8185 89.4323 77.8436 89.3566C77.9218 89.1421 78 88.9244 78.0783 88.7044C78.4021 87.8003 78.7495 86.8563 79.114 85.9108C79.3393 85.3249 79.5716 84.7406 79.8094 84.1617C80.7333 81.9111 81.7323 79.8016 82.7109 78.4028C82.7109 78.4028 82.9519 78.0424 82.9863 77.7467C83.016 77.4963 82.9002 77.2911 82.3698 77.384L82.33 77.4066C82.0108 77.5891 79.8564 78.8662 77.4493 81.3673C77.1544 81.6739 76.8548 81.9992 76.5559 82.3425C76.3682 82.5578 76.1804 82.7786 75.9919 83.0087C75.7202 83.341 75.4501 83.689 75.1815 84.0525L75.176 84.0603C74.4356 85.0644 73.7694 86.1209 73.1827 87.2214C72.9027 87.7441 72.6364 88.2902 72.384 88.8597C72.1134 89.4713 71.8599 90.1079 71.6283 90.771C71.2866 91.7486 71.0055 92.7462 70.7866 93.7581Z" fill="#D3E0DB"/>
<path d="M157.695 75.8593C155.042 75.3327 112.401 73.1187 95.1078 74.3919C94.4037 74.4442 94.0008 75.2633 93.9852 75.9764C93.8905 80.4114 93.8193 97.1959 97.4444 95.7964C97.4444 95.7964 160.813 95.4843 178.32 96.0881C179.862 96.1412 180.678 94.258 179.592 93.1486C174.568 88.0185 164.56 78.3893 157.98 75.9389C157.887 75.9047 157.792 75.8781 157.695 75.8593Z" fill="#72120C"/>
<path d="M96.3213 80.5543C96.3651 86.0153 96.8579 94.8682 99.5646 93.9297C99.5646 93.9297 109.265 93.8868 121.881 93.8689C128.106 93.861 135.042 93.8579 141.875 93.8689C155.152 93.8923 168.037 93.9711 174.557 94.1637L174.836 94.1723C176.273 94.2168 177.032 92.6401 176.022 91.7118C171.344 87.4211 162.03 79.3561 155.905 77.3051C155.819 77.276 155.731 77.2536 155.641 77.238C154.698 77.0695 148.333 76.6919 139.926 76.3572C130.705 75.9851 119.028 75.6551 109.359 75.6855C104.752 75.7004 100.597 75.7971 97.3899 76.0093C96.7343 76.053 96.3596 76.7395 96.3447 77.3355C96.3275 78.072 96.3142 79.2102 96.3213 80.5543Z" fill="#D3E0DB"/>
<path d="M114.188 151.01C138.527 151.634 181.367 152.355 199.714 150.324L199.894 149.95C200.184 149.028 200.111 148.031 199.69 147.161C199.019 145.825 198.438 143.948 197.948 143.64L197.85 143.598C197.343 143.492 196.313 125.857 187.729 123.925C187.729 123.925 179.29 120.581 173.538 118.991C171.15 118.331 169.226 117.977 168.557 118.283C166.276 119.335 145.256 118.421 145.256 118.421C145.256 118.421 144.144 118.572 142.386 118.908C136.704 119.993 124.263 123 120.729 129.021C120.729 129.021 115.586 138.803 115.276 144.006L114.188 151.01Z" fill="#72120C"/>
<path d="M190.628 104.425C191.175 104.4 195.96 105.542 198.5 105.985C197.06 104.277 195.019 102.774 192.126 101.909C192.126 101.909 189.865 99.7709 186.507 96.6886L186.233 96.5084L96.3315 95.7283C95.4241 97.6926 99.3323 100.459 99.3323 100.459" fill="#FFC83E"/>
<path d="M114.188 151.01C138.527 151.638 181.367 152.355 199.714 150.325L199.894 149.949C200.184 149.028 200.11 148.031 199.689 147.161C199.019 145.824 198.438 143.949 197.948 143.639L197.85 143.598L193.317 144.918C189.128 146.14 184.795 146.806 180.432 146.9C172.144 147.076 163.855 147.239 155.565 147.388C146.911 147.539 137.971 147.485 129.346 146.972C124.693 146.695 119.858 145.035 115.276 144.008L114.662 147.774L114.188 151.01Z" fill="#530905"/>
<path d="M138.44 131.195C138.44 131.837 138.567 132.473 138.813 133.067C139.06 133.66 139.421 134.199 139.876 134.654C140.332 135.108 140.873 135.468 141.468 135.714C142.063 135.96 142.7 136.087 143.345 136.087H173.731C174.38 136.095 175.025 135.975 175.627 135.732C176.229 135.49 176.777 135.131 177.239 134.676C177.702 134.221 178.069 133.679 178.319 133.081C178.569 132.484 178.698 131.843 178.698 131.195C178.698 130.547 178.569 129.906 178.319 129.309C178.069 128.711 177.702 128.169 177.239 127.714C176.777 127.259 176.229 126.9 175.627 126.658C175.025 126.416 174.38 126.295 173.731 126.303H143.345C142.044 126.303 140.796 126.819 139.877 127.736C138.957 128.653 138.44 129.898 138.44 131.195Z" fill="#530905"/>
<path d="M138.441 131.195C138.34 131.689 138.362 132.2 138.505 132.684C138.647 133.168 138.906 133.61 139.259 133.971C139.612 134.332 140.047 134.602 140.529 134.758C141.01 134.913 141.522 134.948 142.02 134.862H172.406C173.018 135.076 173.669 135.153 174.315 135.088C174.96 135.023 175.583 134.817 176.139 134.484C176.696 134.152 177.172 133.701 177.534 133.165C177.896 132.628 178.135 132.018 178.234 131.379C178.333 130.74 178.289 130.087 178.107 129.466C177.924 128.845 177.606 128.272 177.177 127.788C176.747 127.304 176.215 126.92 175.62 126.663C175.024 126.407 174.379 126.285 173.731 126.305H143.345C142.044 126.305 140.797 126.82 139.878 127.737C138.958 128.654 138.441 129.898 138.441 131.195Z" fill="#D6630D"/>
<path d="M63.1282 105.064C63.5543 105.571 64.0574 106.007 64.6192 106.358C66.2714 107.427 68.2584 108.023 70.1593 108.453C78.6439 110.371 87.9539 108.724 96.2687 106.806C96.2687 106.806 96.7569 104.471 97.5618 103.4C96.4518 104.878 89.6553 103.965 88.2527 103.839C80.0896 103.114 73.3401 100.056 66.1392 96.8058C65.0291 99.5144 64.0458 102.277 63.1282 105.064Z" fill="#FFC83E"/>
<path d="M93.4341 136.07C93.8453 139.09 93.9942 142.14 93.8792 145.186L93.9058 145.278C93.9457 145.455 94.0622 145.875 94.2406 146.422C94.2781 146.535 94.3188 146.656 94.3619 146.776L94.3728 146.808C94.6576 147.613 95.0769 148.593 95.637 149.444C95.8774 149.82 96.1566 150.17 96.4701 150.488C96.4701 150.488 100.582 150.633 107.227 150.824L107.915 150.843C109.385 150.885 110.97 150.928 112.655 150.973H112.667L114.187 151.012L115.274 144.541C115.289 144.291 115.315 144.03 115.352 143.76C114.801 143.812 114.249 143.848 113.694 143.868C109.743 144.006 105.816 143.199 102.241 141.514C98.6667 139.829 95.5484 137.316 93.147 134.183C93.251 134.797 93.348 135.427 93.4341 136.07Z" fill="#F28B0F"/>
<path d="M196.729 138.557C197.406 141.686 197.667 144.096 197.85 144.135L197.948 144.174C198.439 144.486 199.019 146.359 199.69 147.697C200.401 149.124 199.746 150.314 199.746 150.314L200.505 150.236C200.896 150.19 201.27 150.142 201.635 150.092C202.6 149.962 203.474 149.82 204.252 149.673C204.252 149.673 205.511 147.665 206.229 145.35C206.296 145.132 206.358 144.911 206.415 144.688C206.616 143.913 206.739 143.128 206.718 142.388C205.196 142.395 203.705 141.955 202.432 141.123C199.851 139.406 198.349 136.448 197.557 133.455C197.549 133.891 197.52 134.326 197.468 134.76C197.326 136.02 197.025 137.291 196.729 138.557Z" fill="#F28B0F"/>
<path d="M114.189 151.013L115.275 144.541C115.29 144.292 115.317 144.03 115.353 143.761C116.07 138.422 120.73 129.557 120.73 129.557C125.357 121.673 145.257 118.959 145.257 118.959C145.257 118.959 166.277 119.871 168.558 118.82C170.839 117.768 187.73 124.462 187.73 124.462C193.157 125.683 195.565 133.18 196.726 138.558C197.404 141.687 197.665 144.097 197.848 144.136L197.946 144.176C198.436 144.488 199.017 146.36 199.688 147.699C200.399 149.125 199.744 150.315 199.744 150.315L200.503 150.237L201.619 150.124L201.633 150.094C201.711 149.895 202.051 148.781 201.149 146.973C200.932 146.542 200.717 146.025 200.509 145.526C200.061 144.453 199.733 143.668 199.245 143.153C199.187 142.855 199.114 142.426 199.046 142.032C198.733 140.215 198.273 137.544 197.466 134.762C195.979 129.635 193.312 124.132 188.214 122.904C186.242 122.124 173.31 117.079 169.271 117.079C168.708 117.079 168.248 117.165 167.863 117.342C167.721 117.391 166.561 117.698 160.482 117.698C153.824 117.698 145.404 117.335 145.319 117.332L145.172 117.326L145.027 117.344C144.182 117.46 124.282 120.265 119.309 128.734C119.065 129.196 114.303 138.303 113.687 143.869C113.668 144.036 113.653 144.199 113.642 144.36L112.662 150.974L112.654 151.029L114.189 151.013Z" fill="#530905"/>
<g opacity="0.51">
<path d="M96.2675 107.513C96.8737 110.483 97.2844 114.785 100.472 115.825C104.675 117.195 109.952 117.312 114.344 117.715C132.64 119.394 127.54 117.813 130.826 116.58C130.826 116.58 125.672 112.257 118.145 108.461C116.363 107.556 114.263 106.796 111.799 106.288C111.799 106.288 105.77 104.514 102.746 103.217C100.919 102.432 98.777 102.772 97.3486 104.153C96.8644 104.621 96.4748 105.192 96.2964 105.882C96.1594 106.416 96.1495 106.975 96.2675 107.513Z" fill="#530905"/>
</g>
<path d="M142.386 118.908C143.647 119.084 144.663 119.317 145.253 119.624C148.387 121.255 158.675 131.973 169.034 119.88C169.034 119.88 171.016 119.467 173.541 118.991C171.153 118.331 169.229 117.977 168.56 118.283C166.279 119.335 145.259 118.421 145.259 118.421C145.259 118.421 144.144 118.572 142.386 118.908Z" fill="#530905"/>
<path d="M185.74 109.937C185.74 109.937 166.373 110.78 164.842 110.268C164.842 110.268 158.096 103.848 148.695 110.167C148.695 110.167 122.839 109.962 120.54 109.555C120.54 109.555 126.16 114.26 126.978 117.25C126.978 117.25 142.12 116.791 145.254 118.42C148.389 120.049 158.676 130.768 169.035 118.675C169.035 118.675 181.367 116.11 183.684 116.382C183.679 116.384 184.374 114.017 185.74 109.937Z" fill="#72120C"/>
<g opacity="0.51">
<path d="M183.55 117.311L190.417 117.34C193.107 117.351 196.615 117.973 199.223 117.34C204.035 116.17 200.391 109.259 198.461 106.989C197.445 105.795 196.213 104.802 194.828 104.064C194.149 103.702 193.358 103.609 192.613 103.802C191.869 103.996 191.224 104.462 190.808 105.107C190.008 106.34 188.944 107.862 187.895 108.996H187.89C187.576 109.346 187.236 109.672 186.873 109.97C185.733 110.881 184.777 112 184.057 113.267C183.073 115.002 179.407 116.557 178.881 116.855C179.627 116.855 182.804 117.308 183.55 117.311Z" fill="#530905"/>
</g>
<path d="M181.313 116.258L183.55 116.266L190.417 116.295C193.107 116.307 196.615 116.93 199.223 116.295C202.984 115.379 201.579 110.959 199.865 107.987C199.457 107.267 198.987 106.583 198.461 105.944C198.159 105.588 197.838 105.249 197.498 104.93C196.695 104.178 195.798 103.534 194.828 103.015C194.148 102.654 193.358 102.561 192.613 102.755C191.868 102.948 191.223 103.414 190.807 104.06C190.008 105.292 188.943 106.815 187.895 107.949H187.89C187.576 108.299 187.236 108.624 186.873 108.922C185.733 109.833 184.777 110.952 184.056 112.219C183.603 113.017 183.098 113.874 182.632 114.593L182.559 114.706C182.043 115.498 181.582 116.105 181.313 116.258Z" fill="#D3E0DB"/>
<path d="M96.2681 106.805C96.8744 109.775 97.2851 114.077 100.473 115.117C104.676 116.487 109.938 116.858 114.343 117.006C118.749 117.154 123.17 117.283 127.541 117.813C127.541 117.813 126.1 112.983 120.657 109.237C119.856 108.686 119.018 108.191 118.148 107.754C116.366 106.849 114.267 106.089 111.802 105.581C111.802 105.581 105.773 103.808 102.749 102.51C100.922 101.729 98.7808 102.065 97.3516 103.446C97.1262 103.66 96.926 103.9 96.7547 104.16C96.5474 104.47 96.3935 104.813 96.2994 105.174C96.1616 105.708 96.1509 106.266 96.2681 106.805Z" fill="#D3E0DB"/>
<path d="M63.8975 139.418C63.9874 140.182 64.1102 140.998 64.2808 141.808C64.6086 143.362 65.1092 144.897 65.8735 146.029C66.486 146.935 67.2675 147.583 68.2657 147.773L73.7831 148.325L81.6842 149.112H81.7178C81.569 148.513 81.4539 147.906 81.3728 147.294C81.3329 147.011 81.2946 146.697 81.2586 146.358C80.7443 141.199 81.5602 135.995 83.6289 131.24C83.6286 131.237 83.6286 131.234 83.6289 131.231C83.6923 131.085 83.7572 130.94 83.8237 130.793C83.8237 130.793 83.8237 130.786 83.8237 130.772C83.8237 130.694 83.8315 130.46 83.8464 130.095C81.6341 133.05 78.4815 135.301 75.0661 136.772C71.538 138.289 67.7314 139.038 63.8975 139.418Z" fill="#F28B0F"/>
<path d="M73.5801 100.892C73.4056 101.31 73.25 101.735 73.1037 102.163C73.0309 102.377 72.9558 102.59 72.8886 102.805L72.7845 103.127L72.6859 103.452C72.427 104.317 72.1806 105.184 71.9756 106.063L71.8974 106.39L71.8192 106.72L71.6682 107.379L71.5305 108.04C71.4851 108.26 71.4382 108.48 71.3991 108.703C71.2333 109.587 71.0705 110.473 70.943 111.364C70.8781 111.809 70.8092 112.254 70.7592 112.701C70.7091 113.148 70.6403 113.593 70.6027 114.041L70.5331 114.712C70.5096 114.935 70.4854 115.159 70.469 115.383L70.3579 116.728L70.2742 118.074C70.2577 118.298 70.2531 118.523 70.2429 118.748L70.2171 119.422C70.21 119.646 70.1959 119.871 70.192 120.096L70.1795 120.771L70.1678 121.445L70.1623 121.782V122.119L70.167 123.469C70.1725 123.918 70.1912 124.369 70.2022 124.818L70.2194 125.493C70.2272 125.717 70.2413 125.942 70.2515 126.167L70.3188 127.516C70.4424 129.31 70.5863 131.104 70.803 132.899C71.2239 136.481 71.8348 140.043 72.5592 143.595C71.4802 140.126 70.6641 136.582 70.1177 132.991L70.0129 132.317C69.9793 132.093 69.9409 131.869 69.9143 131.643L69.7477 130.289C69.7211 130.064 69.6906 129.838 69.6695 129.612L69.6061 128.933L69.4817 127.574C69.355 125.759 69.2682 123.94 69.2775 122.118C69.2869 120.296 69.3597 118.476 69.5208 116.662C69.682 114.847 69.9268 113.04 70.2664 111.251C70.5958 109.459 71.0283 107.688 71.5618 105.946L71.7683 105.295L71.9882 104.649C72.0586 104.433 72.1446 104.221 72.2166 104.007C72.2885 103.793 72.373 103.581 72.4591 103.37C72.7811 102.522 73.1554 101.694 73.5801 100.892Z" fill="#72120C"/>
<g opacity="0.33">
<path opacity="0.54" d="M80.4541 84.524L86.9111 94.129C87.2318 93.2592 87.5306 92.3019 87.8044 91.3314C88.0258 90.5419 88.2308 89.7439 88.4154 88.9762C88.661 87.9621 88.8714 86.9947 89.0412 86.174C87.5197 82.9411 85.2174 78.9008 83.8555 78.1971C83.5879 78.6273 83.3172 79.0761 83.0434 79.5437C82.632 80.2458 82.2166 80.9955 81.8043 81.7826C81.3501 82.6455 80.9013 83.5556 80.458 84.5131C80.4563 84.5166 80.455 84.5202 80.4541 84.524Z" fill="white"/>
</g>
<g opacity="0.33">
<path opacity="0.54" d="M71.6267 90.7685L74.4312 94.9391C75.0891 95.1006 75.614 95.1731 75.7611 95.0491C75.9371 94.8985 76.5066 93.1908 77.3131 90.8723C77.4555 90.4604 77.6065 90.029 77.7653 89.5835C77.7911 89.5055 77.8185 89.4329 77.8435 89.3573C77.054 87.5414 76.1645 85.7704 75.179 84.0524L75.1736 84.0602C74.4332 85.0643 73.767 86.1208 73.1803 87.2213C72.9003 87.744 72.634 88.29 72.3816 88.8595C72.1117 89.4688 71.8583 90.107 71.6267 90.7685Z" fill="white"/>
</g>
<path d="M87.8653 99.058L87.0048 101.504C87.0048 101.504 73.002 103.101 69.3589 98.65C69.3589 98.65 68.4053 88.5271 83.5299 91.9237C85.1915 92.2974 83.5979 98.7179 83.5979 98.7179C83.5979 98.7179 86.3625 99.5339 87.8653 99.058Z" fill="#530905"/>
<g opacity="0.54">
<path d="M109.359 75.6875L141.875 93.8708C155.152 93.8942 168.037 93.973 174.557 94.1657C167.913 90.7682 153.514 83.3999 139.925 76.3592C130.705 75.9863 119.028 75.6571 109.359 75.6875Z" fill="white"/>
<path d="M96.3208 80.5543C96.3646 86.0152 96.8575 94.8682 99.5641 93.9297C99.5641 93.9297 109.264 93.8868 121.88 93.8688C112.715 89.1381 103.33 84.2631 96.3208 80.5543Z" fill="white"/>
</g>
<path d="M97.4089 106.367C105.175 109.186 113.256 111.691 121.314 111.446C120.512 110.896 119.674 110.401 118.804 109.964C117.022 109.059 114.923 108.299 112.458 107.79C112.458 107.79 106.429 106.017 103.406 104.719C101.578 103.939 99.4366 104.275 98.0082 105.655C97.7821 105.869 97.5811 106.108 97.4089 106.367Z" fill="white"/>
<path d="M182.774 115.332C187.032 113.689 191.039 111.461 194.678 108.711C195.756 107.896 196.829 106.947 197.713 105.895C196.906 105.167 196.009 104.546 195.043 104.048C193.64 103.32 191.89 103.767 191.023 105.056C190.224 106.245 189.159 107.715 188.111 108.81H188.106C187.791 109.148 187.451 109.46 187.089 109.747C185.955 110.619 184.999 111.699 184.272 112.929C183.82 113.699 183.313 114.526 182.848 115.22C182.824 115.261 182.799 115.297 182.774 115.332Z" fill="white"/>
<path d="M120.518 40.0478C120.552 44.5382 128.194 56.3705 128.253 56.4625H129.887V53.7266C132.097 49.9039 135.763 43.084 135.739 39.9331C135.704 35.4247 132.27 31.7955 128.067 31.8267C123.864 31.8579 120.486 35.5394 120.518 40.0478ZM124.96 39.6491C124.947 37.8743 126.353 36.4248 128.101 36.4116C129.85 36.3983 131.278 37.8267 131.292 39.6023C131.305 41.3779 129.898 42.8305 128.152 42.8399C126.406 42.8492 124.973 41.4263 124.96 39.6491Z" fill="#AC2A03"/>
<path d="M126.594 39.6499C126.581 37.8751 127.987 36.4248 129.736 36.4116C131.484 36.3983 132.912 37.8267 132.926 39.6023C132.94 41.3779 131.533 42.8266 129.784 42.8399C128.036 42.8531 126.607 41.4263 126.594 39.6499ZM122.152 40.0478C122.186 44.5561 129.887 56.4625 129.887 56.4625C129.887 56.4625 132.931 51.5968 135.137 46.8958C136.398 44.2074 137.386 41.5729 137.373 39.9331C137.339 35.4247 133.904 31.7955 129.701 31.8267C128.814 31.833 127.936 32.0044 127.113 32.3323C124.195 33.4908 122.129 36.5153 122.152 40.0478Z" fill="#F26027"/>
<path d="M119.979 63.7997H136.94C137.367 63.7997 137.783 63.9332 138.13 64.1812C138.477 64.4293 138.738 64.7796 138.875 65.1829L140.623 70.3138C140.727 70.6206 140.757 70.9478 140.709 71.2683C140.662 71.5889 140.538 71.8935 140.349 72.1569C140.16 72.4203 139.911 72.635 139.622 72.783C139.333 72.9311 139.012 73.0084 138.687 73.0083H117.298C116.947 73.0083 116.602 72.9179 116.295 72.746C115.989 72.5741 115.733 72.3264 115.55 72.0268C115.368 71.7272 115.266 71.3859 115.255 71.0357C115.244 70.6855 115.323 70.3383 115.485 70.0275L118.167 64.8965C118.339 64.5659 118.6 64.2888 118.919 64.0954C119.239 63.902 119.605 63.7998 119.979 63.7997Z" fill="#FFC83E"/>
<path d="M122.299 66.9426H121.116V65.9004H124.747V66.9426H123.543V70.525H122.299V66.9426Z" fill="#72120C"/>
<path d="M126.055 69.4523L125.794 70.5219H124.508L125.849 65.9004H127.507L128.888 70.525H127.547L127.252 69.4555L126.055 69.4523ZM127.08 68.5404L126.867 67.7103C126.799 67.4497 126.71 67.0659 126.632 66.7983H126.618C126.549 67.0659 126.481 67.4497 126.419 67.7103L126.22 68.5404H127.08Z" fill="#72120C"/>
<path d="M131.673 70.5252L131.337 69.7708C131.199 69.4759 131.096 69.2357 130.979 68.9688H130.969C130.887 69.2357 130.776 69.4759 130.666 69.7646L130.353 70.5252H128.945L130.251 68.1848L128.994 65.9014H130.421L130.734 66.6347C130.851 66.9093 130.941 67.1355 131.047 67.4031H131.061C131.164 67.1012 131.24 66.8953 131.337 66.6417L131.618 65.9014H133.035L131.776 68.1575L133.112 70.5252H131.673Z" fill="#72120C"/>
<path d="M134.869 65.9004V70.525H133.624V65.9035L134.869 65.9004Z" fill="#72120C"/>
<path d="M288.066 147.249C288.097 147.249 288.127 147.237 288.149 147.215C288.171 147.193 288.183 147.163 288.183 147.132C288.183 147.101 288.171 147.071 288.149 147.049C288.127 147.027 288.097 147.015 288.066 147.015C288.034 147.015 288.005 147.027 287.983 147.049C287.961 147.071 287.948 147.101 287.948 147.132C287.948 147.163 287.961 147.193 287.983 147.215C288.005 147.237 288.034 147.249 288.066 147.249Z" fill="black"/>
</svg>
