<svg width="20" height="20" viewBox="0 0 20 20" fill="none" xmlns="http://www.w3.org/2000/svg">
<path fill-rule="evenodd" clip-rule="evenodd" d="M9.99984 3.33325C7.05432 3.33325 4.6665 6.00164 4.6665 8.99992C4.6665 11.9747 6.36872 15.2082 9.02455 16.4495C9.64367 16.7389 10.356 16.7389 10.9751 16.4495C13.631 15.2082 15.3332 11.9747 15.3332 8.99992C15.3332 6.00164 12.9454 3.33325 9.99984 3.33325ZM9.99984 9.99992C10.7362 9.99992 11.3332 9.40296 11.3332 8.66658C11.3332 7.93021 10.7362 7.33325 9.99984 7.33325C9.26346 7.33325 8.6665 7.93021 8.6665 8.66658C8.6665 9.40296 9.26346 9.99992 9.99984 9.99992Z" fill="#077335"/>
</svg>
