<svg width="42" height="42" viewBox="0 0 42 42" fill="none" xmlns="http://www.w3.org/2000/svg">
<path fill-rule="evenodd" clip-rule="evenodd" d="M8.45665 7.40933C7.90958 7.21699 7.31017 7.50456 7.11783 8.05163C6.92549 8.59871 7.21306 9.19812 7.76013 9.39046L8.12582 9.51903C9.06048 9.84763 9.67473 10.0654 10.1267 10.2872C10.5512 10.4955 10.7384 10.6641 10.8616 10.8445C10.988 11.0294 11.0856 11.2834 11.1407 11.7921C11.1983 12.3244 11.1997 13.0177 11.1997 14.0536L11.1997 17.696C11.1997 21.8141 11.2882 23.1732 12.5012 24.4526C13.7142 25.7319 15.6664 25.732 19.5709 25.732H26.9949C29.1803 25.732 30.273 25.732 31.0455 25.1025C31.8179 24.4731 32.0384 23.4028 32.4796 21.2624L33.1793 17.8678C33.6652 15.4331 33.9082 14.2158 33.2867 13.4079C32.6652 12.6 30.5417 12.6 28.1828 12.6H13.2893C13.2799 12.2215 13.2621 11.8772 13.2285 11.5661C13.1532 10.8712 12.9903 10.2374 12.5955 9.65966C12.1976 9.07745 11.6686 8.70458 11.0518 8.40189C10.4748 8.11881 9.74175 7.86111 8.87861 7.55768L8.45665 7.40933ZM18.5352 16.6246C18.4384 16.0528 17.8964 15.6678 17.3246 15.7647C16.7529 15.8616 16.3679 16.4036 16.4647 16.9753L17.2042 21.3403C17.3011 21.9121 17.8431 22.2971 18.4148 22.2002C18.9866 22.1033 19.3716 21.5613 19.2747 20.9896L18.5352 16.6246ZM26.115 15.7647C25.5433 15.6678 25.0013 16.0528 24.9044 16.6246L24.1649 20.9896C24.0681 21.5613 24.4531 22.1033 25.0248 22.2002C25.5966 22.2971 26.1386 21.9121 26.2354 21.3403L26.9749 16.9753C27.0718 16.4036 26.6868 15.8616 26.115 15.7647ZM14.7 29.3999C15.8598 29.3999 16.8 30.3401 16.8 31.4999C16.8 32.6597 15.8598 33.5999 14.7 33.5999C13.5402 33.5999 12.6 32.6597 12.6 31.4999C12.6 30.3401 13.5402 29.3999 14.7 29.3999ZM27.3 29.4001C28.4598 29.4001 29.4 30.3403 29.4 31.5C29.4 32.6598 28.4598 33.6 27.3 33.6C26.1402 33.6 25.2 32.6598 25.2 31.5001C25.2 30.3403 26.1402 29.4001 27.3 29.4001Z" fill="#088F42"/>
</svg>
