<svg width="52" height="48" viewBox="0 0 52 48" fill="none" xmlns="http://www.w3.org/2000/svg">
<path d="M18.1355 36.8574C25.7127 36.8574 31.8553 31.101 31.8553 24.0002C31.8553 16.8994 25.7127 11.1431 18.1355 11.1431C10.5583 11.1431 4.41577 16.8994 4.41577 24.0002C4.41577 31.101 10.5583 36.8574 18.1355 36.8574Z" fill="#F52825"/>
<path d="M34.5993 36.8574C42.1765 36.8574 48.319 31.101 48.319 24.0002C48.319 16.8994 42.1765 11.1431 34.5993 11.1431C27.0221 11.1431 20.8795 16.8994 20.8795 24.0002C20.8795 31.101 27.0221 36.8574 34.5993 36.8574Z" fill="#FCB031"/>
<path fill-rule="evenodd" clip-rule="evenodd" d="M26.3674 13.7144C23.0318 16.0767 20.8795 19.8051 20.8795 24.0001C20.8795 28.195 23.0318 31.9234 26.3674 34.2858C29.703 31.9234 31.8553 28.195 31.8553 24.0001C31.8553 19.8051 29.703 16.0767 26.3674 13.7144Z" fill="#FF7814"/>
</svg>
