<svg width="30" height="30" viewBox="0 0 30 30" fill="none" xmlns="http://www.w3.org/2000/svg">
<path d="M21.6357 18.6701L23.3521 13.5208C24.8516 9.02242 25.6013 6.77322 24.414 5.58595C23.2268 4.39869 20.9776 5.14842 16.4792 6.64788L11.3299 8.36432C7.69923 9.57453 5.88392 10.1796 5.36806 11.067C4.87731 11.9111 4.87731 12.9537 5.36806 13.7978C5.88392 14.6852 7.69923 15.2903 11.3299 16.5005C11.7798 16.6505 12.286 16.5434 12.6229 16.2096L18.1286 10.755C18.4383 10.4481 18.9382 10.4504 19.245 10.7602C19.5519 11.0699 19.5496 11.5698 19.2398 11.8766L13.8231 17.2432C13.4518 17.6111 13.3342 18.1742 13.4995 18.6701C14.7097 22.3007 15.3148 24.1161 16.2022 24.6319C17.0463 25.1227 18.0889 25.1227 18.933 24.6319C19.8204 24.1161 20.4255 22.3008 21.6357 18.6701Z" fill="#088F42"/>
</svg>
