<svg width="24" height="24" viewBox="0 0 24 24" fill="none" xmlns="http://www.w3.org/2000/svg">
<path d="M17.6 10.1633V9.6C17.6 6.50721 15.0928 4 12 4C8.9072 4 6.39999 6.50721 6.39999 9.6V10.1633C6.39999 10.8393 6.1999 11.5001 5.82493 12.0626L4.90604 13.4409C4.06674 14.6999 4.70748 16.4111 6.16725 16.8092C9.98601 17.8507 14.014 17.8507 17.8327 16.8092C19.2925 16.4111 19.9333 14.6999 19.0939 13.4409L18.1751 12.0626C17.8001 11.5001 17.6 10.8393 17.6 10.1633Z" stroke="#1C274C" stroke-width="1.5"/>
<path d="M8.39999 17.6C8.92402 18.9982 10.338 20 12 20C13.662 20 15.076 18.9982 15.6 17.6" stroke="#1C274C" stroke-width="1.5" stroke-linecap="round"/>
</svg>
