<svg width="50" height="51" viewBox="0 0 50 51" fill="none" xmlns="http://www.w3.org/2000/svg">
<g filter="url(#filter0_d_127_701)">
<circle cx="23" cy="23.4285" r="15" fill="white"/>
</g>
<path d="M19 22.9999C19 23.8836 18.2837 24.5999 17.4 24.5999C16.5164 24.5999 15.8 23.8836 15.8 22.9999C15.8 22.1162 16.5164 21.3999 17.4 21.3999C18.2837 21.3999 19 22.1162 19 22.9999Z" fill="#1C274C"/>
<path d="M24.6 22.9999C24.6 23.8836 23.8837 24.5999 23 24.5999C22.1164 24.5999 21.4 23.8836 21.4 22.9999C21.4 22.1162 22.1164 21.3999 23 21.3999C23.8837 21.3999 24.6 22.1162 24.6 22.9999Z" fill="#1C274C"/>
<path d="M30.2 22.9999C30.2 23.8836 29.4837 24.5999 28.6 24.5999C27.7164 24.5999 27 23.8836 27 22.9999C27 22.1162 27.7164 21.3999 28.6 21.3999C29.4837 21.3999 30.2 22.1162 30.2 22.9999Z" fill="#1C274C"/>
<defs>
<filter id="filter0_d_127_701" x="0" y="0.428467" width="50" height="50" filterUnits="userSpaceOnUse" color-interpolation-filters="sRGB">
<feFlood flood-opacity="0" result="BackgroundImageFix"/>
<feColorMatrix in="SourceAlpha" type="matrix" values="0 0 0 0 0 0 0 0 0 0 0 0 0 0 0 0 0 0 127 0" result="hardAlpha"/>
<feOffset dx="2" dy="2"/>
<feGaussianBlur stdDeviation="5"/>
<feComposite in2="hardAlpha" operator="out"/>
<feColorMatrix type="matrix" values="0 0 0 0 0 0 0 0 0 0 0 0 0 0 0 0 0 0 0.2 0"/>
<feBlend mode="normal" in2="BackgroundImageFix" result="effect1_dropShadow_127_701"/>
<feBlend mode="normal" in="SourceGraphic" in2="effect1_dropShadow_127_701" result="shape"/>
</filter>
</defs>
</svg>
