<svg width="30" height="31" viewBox="0 0 30 31" fill="none" xmlns="http://www.w3.org/2000/svg">
<path d="M24 20.3292V14.6625C24 13.6189 24 13.0971 23.7169 12.7043C23.4881 12.3869 23.1212 12.2183 22.4667 11.9912C22.3328 13.5974 21.8009 15.2377 20.9655 16.6734C19.9928 18.345 18.5484 19.8395 16.697 20.6472C15.618 21.1179 14.382 21.1179 13.303 20.6472C11.4516 19.8395 10.0072 18.345 9.03449 16.6734C8.40086 15.5844 7.9418 14.3778 7.69862 13.1575C7.31607 13.1012 7.0225 13.1301 6.76917 13.2714C6.66809 13.3278 6.57388 13.3957 6.48841 13.4738C6 13.9199 6 14.7493 6 16.4082V21.3379C6 22.3815 6 22.9033 6.28314 23.2961C6.56627 23.689 7.06129 23.854 8.05132 24.184L8.43488 24.3118L8.43489 24.3118C10.0119 24.8375 10.8004 25.1003 11.6069 25.1018C11.8498 25.1023 12.0924 25.0851 12.3328 25.0503C13.131 24.9347 13.8809 24.5597 15.3806 23.8099C16.5299 23.2352 17.1046 22.9479 17.715 22.8146C17.9292 22.7678 18.1463 22.7352 18.3648 22.7169C18.9875 22.6648 19.6157 22.7695 20.8721 22.9789C22.1455 23.1911 22.7821 23.2972 23.247 23.0303C23.4048 22.9396 23.5449 22.821 23.6603 22.6802C24 22.2655 24 21.6201 24 20.3292Z" fill="#088F42"/>
<path fill-rule="evenodd" clip-rule="evenodd" d="M15 5.5C11.6863 5.5 9 8.05211 9 11.2003C9 14.3238 10.915 17.9687 13.9028 19.2721C14.5993 19.576 15.4007 19.576 16.0972 19.2721C19.085 17.9687 21 14.3238 21 11.2003C21 8.05211 18.3137 5.5 15 5.5ZM15 13.5C16.1046 13.5 17 12.6046 17 11.5C17 10.3954 16.1046 9.5 15 9.5C13.8954 9.5 13 10.3954 13 11.5C13 12.6046 13.8954 13.5 15 13.5Z" fill="#088F42"/>
</svg>
