<svg width="20" height="20" viewBox="0 0 20 20" fill="none" xmlns="http://www.w3.org/2000/svg">
<path fill-rule="evenodd" clip-rule="evenodd" d="M8.66683 3.33325H8.00016C6.11454 3.33325 5.17174 3.33325 4.58595 3.91904C4.00016 4.50482 4.00016 5.44763 4.00016 7.33325V16.1666H3.3335C3.05735 16.1666 2.8335 16.3904 2.8335 16.6666C2.8335 16.9427 3.05735 17.1666 3.3335 17.1666H13.5002C13.7763 17.1666 14.0002 16.9427 14.0002 16.6666C14.0002 16.3904 13.7763 16.1666 13.5002 16.1666H12.6668V13.8333H13.7144C13.9643 13.8333 14.1668 14.0358 14.1668 14.2857V14.3333C14.1668 15.1617 14.8384 15.8333 15.6668 15.8333C16.4953 15.8333 17.1668 15.1617 17.1668 14.3333V7.06777C17.1668 6.96332 17.1668 6.89127 17.1629 6.82099C17.1258 6.16034 16.8283 5.54135 16.3356 5.09967C16.2832 5.05269 16.2269 5.00768 16.1453 4.94244L15.3125 4.27617C15.0969 4.10366 14.7822 4.13863 14.6097 4.35426C14.4372 4.56989 14.4722 4.88453 14.6878 5.05704L15.5099 5.71468C15.6062 5.79174 15.6392 5.81837 15.6681 5.84427C15.9637 6.10928 16.1422 6.48068 16.1645 6.87707C16.1666 6.91581 16.1668 6.95821 16.1668 7.08157V7.33325H15.6668C15.1145 7.33325 14.6668 7.78097 14.6668 8.33325V9.94583C14.6668 10.3763 14.9423 10.7584 15.3506 10.8945L16.1668 11.1666V14.3333C16.1668 14.6094 15.943 14.8333 15.6668 14.8333C15.3907 14.8333 15.1668 14.6094 15.1668 14.3333V14.2857C15.1668 13.4835 14.5166 12.8333 13.7144 12.8333H12.6668V7.33325C12.6668 5.44763 12.6668 4.50482 12.081 3.91904C11.4953 3.33325 10.5524 3.33325 8.66683 3.33325ZM8.59074 8.23784C8.82753 8.37991 8.90432 8.68704 8.76224 8.92383L8.21659 9.83325H9.3335C9.51363 9.83325 9.67984 9.93015 9.7686 10.0869C9.85735 10.2437 9.85492 10.436 9.76224 10.5905L8.76224 12.2572C8.62017 12.494 8.31304 12.5707 8.07625 12.4287C7.83946 12.2866 7.76268 11.9795 7.90475 11.7427L8.4504 10.8333H7.3335C7.15336 10.8333 6.98715 10.7364 6.8984 10.5796C6.80964 10.4228 6.81207 10.2305 6.90475 10.076L7.90475 8.40934C8.04682 8.17255 8.35395 8.09576 8.59074 8.23784Z" fill="#088F42"/>
</svg>
