<svg width="30" height="30" viewBox="0 0 30 30" fill="none" xmlns="http://www.w3.org/2000/svg">
<circle cx="15" cy="15" r="15" fill="white"/>
<circle cx="15" cy="15" r="14.875" stroke="black" stroke-opacity="0.35" stroke-width="0.25"/>
<path d="M16.8567 20.8332C16.6134 20.8332 16.3717 20.7274 16.2067 20.5224L12.1834 15.5224C11.9351 15.2132 11.9384 14.7716 12.1926 14.4666L16.3592 9.46657C16.6534 9.11324 17.1792 9.06574 17.5334 9.35991C17.8867 9.65407 17.9342 10.1799 17.6392 10.5332L13.9101 15.0091L17.5059 19.4774C17.7942 19.8357 17.7376 20.3607 17.3784 20.6491C17.2251 20.7732 17.0401 20.8332 16.8567 20.8332Z" fill="#383B46"/>
<mask id="mask0_149_756" style="mask-type:luminance" maskUnits="userSpaceOnUse" x="11" y="9" width="7" height="12">
<path d="M16.8567 20.8332C16.6134 20.8332 16.3717 20.7274 16.2067 20.5224L12.1834 15.5224C11.9351 15.2132 11.9384 14.7716 12.1926 14.4666L16.3592 9.46657C16.6534 9.11324 17.1792 9.06574 17.5334 9.35991C17.8867 9.65407 17.9342 10.1799 17.6392 10.5332L13.9101 15.0091L17.5059 19.4774C17.7942 19.8357 17.7376 20.3607 17.3784 20.6491C17.2251 20.7732 17.0401 20.8332 16.8567 20.8332Z" fill="white"/>
</mask>
<g mask="url(#mask0_149_756)">
</g>
</svg>
