<svg width="30" height="30" viewBox="0 0 30 30" fill="none" xmlns="http://www.w3.org/2000/svg">
<circle cx="15" cy="15" r="14.875" fill="white" stroke="#C7C7C7" stroke-width="0.25"/>
<path d="M11 14.9999C11 15.8836 10.2837 16.5999 9.40005 16.5999C8.51639 16.5999 7.80005 15.8836 7.80005 14.9999C7.80005 14.1162 8.51639 13.3999 9.40005 13.3999C10.2837 13.3999 11 14.1162 11 14.9999Z" fill="#1C274C"/>
<path d="M16.6 14.9999C16.6 15.8836 15.8837 16.5999 15 16.5999C14.1164 16.5999 13.4 15.8836 13.4 14.9999C13.4 14.1162 14.1164 13.3999 15 13.3999C15.8837 13.3999 16.6 14.1162 16.6 14.9999Z" fill="#1C274C"/>
<path d="M22.2 14.9999C22.2 15.8836 21.4837 16.5999 20.6 16.5999C19.7164 16.5999 19 15.8836 19 14.9999C19 14.1162 19.7164 13.3999 20.6 13.3999C21.4837 13.3999 22.2 14.1162 22.2 14.9999Z" fill="#1C274C"/>
</svg>
