<svg width="24" height="24" viewBox="0 0 24 24" fill="none" xmlns="http://www.w3.org/2000/svg">
<path fill-rule="evenodd" clip-rule="evenodd" d="M13.8231 4.12179C13.5268 4 13.1512 4 12.4 4C11.6489 4 11.2733 4 10.977 4.12179C10.582 4.28418 10.2681 4.59566 10.1045 4.98771C10.0298 5.16667 10.0006 5.3748 9.98913 5.67839C9.97232 6.12454 9.74177 6.53752 9.35218 6.76074C8.96259 6.98397 8.48696 6.97563 8.08924 6.76701C7.81859 6.62504 7.62236 6.5461 7.42884 6.52081C7.00492 6.46543 6.57619 6.57943 6.23697 6.83776C5.98256 7.0315 5.79476 7.35432 5.41917 7.99995C5.04358 8.64557 4.85578 8.96839 4.81393 9.28392C4.75812 9.70464 4.87299 10.1301 5.13329 10.4668C5.25209 10.6204 5.41907 10.7496 5.67821 10.9112C6.05918 11.1488 6.30431 11.5535 6.30428 12C6.30426 12.4465 6.05914 12.8511 5.67821 13.0887C5.41902 13.2503 5.25203 13.3795 5.13321 13.5332C4.87291 13.8698 4.75804 14.2953 4.81385 14.716C4.85571 15.0316 5.0435 15.3544 5.41909 16C5.79468 16.6456 5.98248 16.9684 6.23689 17.1622C6.57611 17.4205 7.00484 17.5345 7.42876 17.4791C7.62227 17.4538 7.81849 17.3749 8.08911 17.233C8.48686 17.0243 8.96253 17.016 9.35214 17.2392C9.74176 17.4625 9.97232 17.8755 9.98913 18.3217C10.0006 18.6252 10.0298 18.8333 10.1045 19.0123C10.2681 19.4043 10.582 19.7158 10.977 19.8782C11.2733 20 11.6489 20 12.4 20C13.1512 20 13.5268 20 13.8231 19.8782C14.2181 19.7158 14.532 19.4043 14.6956 19.0123C14.7703 18.8333 14.7995 18.6252 14.811 18.3216C14.8278 17.8754 15.0583 17.4625 15.4479 17.2392C15.8375 17.016 16.3132 17.0243 16.7109 17.2329C16.9815 17.3749 17.1778 17.4538 17.3713 17.4791C17.7952 17.5345 18.2239 17.4205 18.5631 17.1621C18.8175 16.9684 19.0053 16.6456 19.3809 15.9999C19.7565 15.3543 19.9443 15.0315 19.9862 14.716C20.042 14.2953 19.9271 13.8698 19.6668 13.5331C19.548 13.3794 19.381 13.2503 19.1218 13.0886C18.7409 12.8511 18.4958 12.4464 18.4958 11.9999C18.4958 11.5535 18.7409 11.1489 19.1218 10.9114C19.3811 10.7497 19.5481 10.6205 19.6669 10.4668C19.9272 10.1302 20.0421 9.7047 19.9862 9.28398C19.9444 8.96844 19.7566 8.64563 19.381 8C19.0054 7.35437 18.8176 7.03156 18.5632 6.83781C18.224 6.57949 17.7953 6.46548 17.3713 6.52087C17.1778 6.54615 16.9816 6.62509 16.711 6.76704C16.3132 6.97567 15.8376 6.98401 15.448 6.76077C15.0583 6.53752 14.8278 6.12453 14.811 5.67835C14.7995 5.37478 14.7703 5.16666 14.6956 4.98771C14.532 4.59566 14.2181 4.28418 13.8231 4.12179ZM12.4 14.4C13.7356 14.4 14.8183 13.3255 14.8183 12C14.8183 10.6745 13.7356 9.6 12.4 9.6C11.0645 9.6 9.98177 10.6745 9.98177 12C9.98177 13.3255 11.0645 14.4 12.4 14.4Z" fill="#1C274C"/>
</svg>
