<svg width="16" height="17" viewBox="0 0 16 17" fill="none" xmlns="http://www.w3.org/2000/svg">
<path d="M6.48177 4.98455C7.15732 3.77268 7.49509 3.16675 8.00008 3.16675C8.50507 3.16675 8.84285 3.77268 9.51839 4.98455L9.69317 5.29807C9.88513 5.64245 9.98112 5.81463 10.1308 5.92824C10.2804 6.04186 10.4668 6.08403 10.8396 6.16837L11.179 6.24516C12.4908 6.54198 13.1467 6.69038 13.3028 7.1922C13.4588 7.69402 13.0117 8.21692 12.1174 9.26271L11.886 9.53327C11.6319 9.83045 11.5048 9.97904 11.4476 10.1629C11.3905 10.3467 11.4097 10.5449 11.4481 10.9414L11.4831 11.3024C11.6183 12.6977 11.6859 13.3954 11.2773 13.7055C10.8688 14.0157 10.2547 13.7329 9.02639 13.1674L8.70862 13.0211C8.35959 12.8604 8.18507 12.78 8.00008 12.78C7.81509 12.78 7.64057 12.8604 7.29154 13.0211L6.97377 13.1674C5.74551 13.7329 5.13137 14.0157 4.72283 13.7055C4.31428 13.3954 4.38188 12.6977 4.51709 11.3024L4.55207 10.9414C4.59049 10.5449 4.60971 10.3467 4.55254 10.1629C4.49538 9.97904 4.36831 9.83045 4.11417 9.53327L3.8828 9.26271C2.98848 8.21692 2.54132 7.69402 2.69737 7.1922C2.85342 6.69038 3.50934 6.54198 4.82117 6.24516L5.16055 6.16837C5.53334 6.08403 5.71973 6.04186 5.86938 5.92824C6.01904 5.81463 6.11503 5.64245 6.307 5.29807L6.48177 4.98455Z" fill="#088F42"/>
</svg>
