<svg width="37" height="37" viewBox="0 0 37 37" fill="none" xmlns="http://www.w3.org/2000/svg">
<g clip-path="url(#clip0_136_1373)">
<path fill-rule="evenodd" clip-rule="evenodd" d="M36.9999 18.7565C36.9999 16.1254 35.7255 14.0493 33.2896 14.0493C30.8435 14.0493 29.3635 16.1254 29.3635 18.736C29.3635 21.8296 31.1108 23.3918 33.6185 23.3918C34.8416 23.3918 35.7666 23.1143 36.4654 22.7237V20.6682C35.7665 21.0176 34.9649 21.2335 33.9474 21.2335C32.9504 21.2335 32.0665 20.884 31.9535 19.6712H36.9793C36.9794 19.5376 36.9999 19.0031 36.9999 18.7565ZM31.9227 17.7801C31.9227 16.6187 32.6319 16.1356 33.2794 16.1356C33.9063 16.1356 34.5744 16.6187 34.5744 17.7801H31.9227Z" fill="#635BFF"/>
<path fill-rule="evenodd" clip-rule="evenodd" d="M25.3965 14.0493C24.3893 14.0493 23.7417 14.5221 23.382 14.851L23.2484 14.2138H20.9873V26.1977L23.5568 25.653L23.567 22.7444C23.937 23.0116 24.4817 23.3919 25.3862 23.3919C27.2259 23.3919 28.9012 21.9119 28.9012 18.6538C28.891 15.6732 27.1951 14.0493 25.3965 14.0493ZM24.7798 21.1307C24.1734 21.1307 23.8137 20.9149 23.567 20.6476L23.5568 16.8345C23.824 16.5365 24.194 16.3309 24.7798 16.3309C25.7151 16.3309 26.3626 17.3793 26.3626 18.7257C26.3626 20.1029 25.7254 21.1307 24.7798 21.1307Z" fill="#635BFF"/>
<path fill-rule="evenodd" clip-rule="evenodd" d="M17.4517 13.4431L20.0314 12.8881V10.8018L17.4517 11.3465V13.4431Z" fill="#635BFF"/>
<path d="M20.0314 14.2241H17.4517V23.2172H20.0314V14.2241Z" fill="#635BFF"/>
<path fill-rule="evenodd" clip-rule="evenodd" d="M14.6869 14.9849L14.5225 14.2244H12.3025V23.2174H14.8719V17.1227C15.4783 16.3313 16.5061 16.4752 16.8247 16.5882V14.2244C16.4958 14.1011 15.2933 13.875 14.6869 14.9849Z" fill="#635BFF"/>
<path fill-rule="evenodd" clip-rule="evenodd" d="M9.5481 11.9941L7.04029 12.5286L7.03003 20.7611C7.03003 22.2822 8.17084 23.4025 9.69197 23.4025C10.5348 23.4025 11.1514 23.2483 11.4906 23.0633V20.9769C11.1617 21.1105 9.53784 21.5833 9.53784 20.0622V16.4136H11.4906V14.2245H9.53784L9.5481 11.9941Z" fill="#635BFF"/>
<path fill-rule="evenodd" clip-rule="evenodd" d="M2.6003 16.8345C2.6003 16.4337 2.92917 16.2796 3.47389 16.2796C4.25498 16.2796 5.24165 16.5159 6.02282 16.9374V14.5221C5.16975 14.1829 4.32695 14.0493 3.47389 14.0493C1.38752 14.0493 0 15.1388 0 16.9579C0 19.7946 3.90559 19.3424 3.90559 20.5654C3.90559 21.0382 3.49448 21.1923 2.91891 21.1923C2.06585 21.1923 0.976415 20.8429 0.113091 20.3701V22.8162C1.06891 23.2273 2.03507 23.4021 2.91891 23.4021C5.05666 23.4021 6.52641 22.3434 6.52641 20.5038C6.51615 17.441 2.6003 17.9857 2.6003 16.8345Z" fill="#635BFF"/>
</g>
<defs>
<clipPath id="clip0_136_1373">
<rect width="37" height="37" fill="white"/>
</clipPath>
</defs>
</svg>
