<svg width="94" height="92" viewBox="0 0 94 92" fill="none" xmlns="http://www.w3.org/2000/svg">
<path fill-rule="evenodd" clip-rule="evenodd" d="M47.0001 0.142578C21.4377 0.142578 0.714355 20.6741 0.714355 45.9997C0.714355 71.3254 21.4377 91.8569 47.0001 91.8569C72.5624 91.8569 93.2858 71.3254 93.2858 45.9997C93.2858 20.6741 72.5624 0.142578 47.0001 0.142578ZM67.0628 38.2457C67.4323 37.8273 67.7135 37.34 67.89 36.8123C68.0665 36.2847 68.1348 35.7274 68.0907 35.1732C68.0466 34.619 67.8911 34.0792 67.6333 33.5855C67.3755 33.0917 67.0207 32.6541 66.5896 32.2982C66.1586 31.9423 65.6601 31.6755 65.1234 31.5133C64.5868 31.3511 64.0228 31.2969 63.4647 31.3539C62.9065 31.4109 62.3656 31.5778 61.8735 31.845C61.3815 32.1122 60.9484 32.4741 60.5997 32.9096L42.5061 54.4166L33.1438 45.1368C32.3502 44.3774 31.2873 43.9572 30.184 43.9667C29.0808 43.9762 28.0254 44.4146 27.2452 45.1876C26.4651 45.9605 26.0226 47.0061 26.013 48.0991C26.0034 49.1922 26.4275 50.2453 27.194 51.0315L39.8174 63.538C40.2308 63.9474 40.7258 64.2669 41.2708 64.4762C41.8158 64.6856 42.3988 64.7801 42.9828 64.7538C43.5667 64.7276 44.1387 64.581 44.6623 64.3236C45.1859 64.0662 45.6496 63.7035 46.0239 63.2587L67.0628 38.2457Z" fill="#0AB051"/>
</svg>
