<svg width="25" height="24" viewBox="0 0 25 24" fill="none" xmlns="http://www.w3.org/2000/svg">
<circle cx="6.775" cy="6.4" r="2.4" fill="black"/>
<circle cx="17.975" cy="17.6002" r="2.4" fill="black"/>
<path fill-rule="evenodd" clip-rule="evenodd" d="M10.9749 6.3998C10.9749 6.06843 11.2436 5.7998 11.5749 5.7998H15.6804C17.8814 5.7998 18.7185 8.67421 16.8616 9.85586L8.53255 15.1561C7.68851 15.6933 8.06898 16.9998 9.06942 16.9998H11.7264L11.5507 16.8241C11.3164 16.5898 11.3164 16.2099 11.5507 15.9755C11.785 15.7412 12.1649 15.7412 12.3992 15.9755L13.5992 17.1755C13.8335 17.4099 13.8335 17.7898 13.5992 18.0241L12.3992 19.2241C12.1649 19.4584 11.785 19.4584 11.5507 19.2241C11.3164 18.9898 11.3164 18.6099 11.5507 18.3755L11.7264 18.1998H9.06942C6.86843 18.1998 6.03142 15.3254 7.8883 14.1437L16.2173 8.84347C17.0614 8.30635 16.6809 6.9998 15.6804 6.9998H11.5749C11.2436 6.9998 10.9749 6.73118 10.9749 6.3998Z" fill="black"/>
</svg>
