<svg width="25" height="24" viewBox="0 0 25 24" fill="none" xmlns="http://www.w3.org/2000/svg">
<circle cx="6.775" cy="6.4" r="2.4" fill="#676767"/>
<circle cx="17.9752" cy="17.6" r="2.4" fill="#676767"/>
<path fill-rule="evenodd" clip-rule="evenodd" d="M10.9752 6.40005C10.9752 6.06868 11.2438 5.80005 11.5752 5.80005H15.6807C17.8817 5.80005 18.7187 8.67445 16.8618 9.8561L8.5328 15.1564C7.68875 15.6935 8.06923 17 9.06967 17H11.7266L11.5509 16.8243C11.3166 16.59 11.3166 16.2101 11.5509 15.9758C11.7852 15.7415 12.1651 15.7415 12.3994 15.9758L13.5994 17.1758C13.8338 17.4101 13.8338 17.79 13.5994 18.0243L12.3994 19.2243C12.1651 19.4586 11.7852 19.4586 11.5509 19.2243C11.3166 18.99 11.3166 18.6101 11.5509 18.3758L11.7266 18.2H9.06967C6.86868 18.2 6.03167 15.3256 7.88855 14.144L16.2176 8.84371C17.0616 8.30659 16.6811 7.00005 15.6807 7.00005H11.5752C11.2438 7.00005 10.9752 6.73142 10.9752 6.40005Z" fill="#676767"/>
</svg>
