<svg width="24" height="24" viewBox="0 0 24 24" fill="none" xmlns="http://www.w3.org/2000/svg">
<path fill-rule="evenodd" clip-rule="evenodd" d="M10.0739 4.96022C9.8791 5.12624 9.78168 5.20926 9.67765 5.27899C9.43917 5.43883 9.17134 5.54977 8.88968 5.60538C8.76681 5.62964 8.63923 5.63982 8.38406 5.66018C7.74296 5.71134 7.4224 5.73692 7.15497 5.83138C6.53641 6.04986 6.04986 6.53641 5.83138 7.15497C5.73692 7.4224 5.71134 7.74296 5.66018 8.38406C5.63982 8.63923 5.62964 8.76681 5.60538 8.88968C5.54977 9.17134 5.43883 9.43917 5.27899 9.67765C5.20926 9.78169 5.12625 9.8791 4.96022 10.0739C4.54307 10.5634 4.33448 10.8082 4.21217 11.0641C3.92928 11.656 3.92928 12.344 4.21217 12.9359C4.33448 13.1918 4.54306 13.4366 4.96022 13.9261C5.12623 14.1209 5.20926 14.2183 5.27899 14.3224C5.43883 14.5608 5.54977 14.8287 5.60538 15.1103C5.62964 15.2332 5.63982 15.3608 5.66018 15.6159C5.71134 16.257 5.73692 16.5776 5.83138 16.845C6.04986 17.4636 6.53641 17.9501 7.15496 18.1686C7.4224 18.2631 7.74296 18.2887 8.38406 18.3398C8.63923 18.3602 8.76681 18.3704 8.88968 18.3946C9.17134 18.4502 9.43917 18.5612 9.67765 18.721C9.78168 18.7907 9.8791 18.8738 10.0739 19.0398C10.5634 19.4569 10.8082 19.6655 11.0641 19.7878C11.656 20.0707 12.344 20.0707 12.9359 19.7878C13.1918 19.6655 13.4366 19.4569 13.9261 19.0398C14.1209 18.8738 14.2183 18.7907 14.3224 18.721C14.5608 18.5612 14.8287 18.4502 15.1103 18.3946C15.2332 18.3704 15.3608 18.3602 15.6159 18.3398C16.257 18.2887 16.5776 18.2631 16.845 18.1686C17.4636 17.9501 17.9501 17.4636 18.1686 16.845C18.2631 16.5776 18.2887 16.257 18.3398 15.6159C18.3602 15.3608 18.3704 15.2332 18.3946 15.1103C18.4502 14.8287 18.5612 14.5608 18.721 14.3224C18.7907 14.2183 18.8738 14.1209 19.0398 13.9261C19.4569 13.4366 19.6655 13.1918 19.7878 12.9359C20.0707 12.344 20.0707 11.656 19.7878 11.0641C19.6655 10.8082 19.4569 10.5634 19.0398 10.0739C18.8738 9.8791 18.7907 9.78168 18.721 9.67765C18.5612 9.43917 18.4502 9.17134 18.3946 8.88968C18.3704 8.76681 18.3602 8.63923 18.3398 8.38406C18.2887 7.74296 18.2631 7.4224 18.1686 7.15496C17.9501 6.53641 17.4636 6.04986 16.845 5.83138C16.5776 5.73692 16.257 5.71134 15.6159 5.66018C15.3608 5.63982 15.2332 5.62964 15.1103 5.60538C14.8287 5.54977 14.5608 5.43883 14.3224 5.27899C14.2183 5.20926 14.1209 5.12625 13.9261 4.96022C13.4366 4.54306 13.1918 4.33448 12.9359 4.21217C12.344 3.92928 11.656 3.92928 11.0641 4.21217C10.8082 4.33448 10.5634 4.54307 10.0739 4.96022ZM15.4988 10.2905C15.7531 10.0362 15.7531 9.624 15.4988 9.36973C15.2445 9.11547 14.8323 9.11547 14.578 9.36973L10.6978 13.2499L9.42197 11.9741C9.1677 11.7198 8.75546 11.7198 8.50119 11.9741C8.24692 12.2283 8.24692 12.6406 8.50119 12.8949L10.2374 14.6311C10.4917 14.8854 10.9039 14.8854 11.1582 14.6311L15.4988 10.2905Z" fill="#0AB051"/>
</svg>
