<svg width="37" height="37" viewBox="0 0 37 37" fill="none" xmlns="http://www.w3.org/2000/svg">
<g clip-path="url(#clip0_136_1350)">
<path d="M37 28.7929C37 29.5513 36.3859 30.1655 35.6274 30.1655H1.37227C0.614346 30.1655 0 29.5513 0 28.7929V8.20696C0 7.44903 0.614346 6.83447 1.37227 6.83447H35.6275C36.3859 6.83447 37.0001 7.44903 37.0001 8.20696L37 28.7929Z" fill="#21246E"/>
<path d="M14.0627 13.5897L9.94591 23.4134H7.25885L5.23438 15.5744C5.10972 15.0909 5.00319 14.9151 4.6295 14.7098C4.01739 14.3788 3.01043 14.0683 2.12134 13.875L2.18352 13.5898H6.50662C7.05799 13.5898 7.55367 13.9576 7.67833 14.5916L8.74878 20.2773L11.3928 13.5898L14.0627 13.5897ZM24.5879 20.2045C24.5999 17.6133 21.0023 17.4722 21.0282 16.3129C21.0352 15.9591 21.3706 15.5846 22.1051 15.4901C22.4699 15.4415 23.4736 15.406 24.6113 15.9282L25.0573 13.8461C24.4451 13.6239 23.6583 13.4111 22.6804 13.4111C20.1688 13.4111 18.4006 14.7471 18.3857 16.6586C18.3692 18.0722 19.6472 18.8609 20.6112 19.3317C21.601 19.8134 21.9319 20.121 21.9285 20.553C21.922 21.2123 21.1387 21.5005 20.4081 21.5134C19.1302 21.5333 18.3889 21.168 17.797 20.8923L17.3369 23.0462C17.9298 23.3184 19.0276 23.5548 20.1638 23.5687C22.8332 23.5686 24.5795 22.2469 24.5879 20.2045ZM31.2206 23.4134H33.5716L31.5202 13.5897H29.3499C28.8623 13.5897 28.4512 13.8741 28.268 14.3098L24.457 23.4133H27.1244L27.6539 21.9462H30.9145L31.2206 23.4134ZM28.3849 19.9328L29.7231 16.2442L30.493 19.9328H28.3849ZM17.6944 13.5897L15.5918 23.4134H13.0501L15.1532 13.5897H17.6944V13.5897Z" fill="white"/>
</g>
<defs>
<clipPath id="clip0_136_1350">
<rect width="37" height="37" fill="white"/>
</clipPath>
</defs>
</svg>
