<svg width="16" height="17" viewBox="0 0 16 17" fill="none" xmlns="http://www.w3.org/2000/svg">
<path d="M9.6 4.50008C9.6 5.23646 9.00305 5.83341 8.26667 5.83341C7.53029 5.83341 6.93333 5.23646 6.93333 4.50008C6.93333 3.7637 7.53029 3.16675 8.26667 3.16675C9.00305 3.16675 9.6 3.7637 9.6 4.50008Z" fill="#088F42"/>
<path fill-rule="evenodd" clip-rule="evenodd" d="M7.4289 7.04259C7.53548 7.03681 7.63823 7.03342 7.73333 7.03342C8.02886 7.03342 8.34873 7.06625 8.63669 7.10761C9.44818 7.22417 10.0626 7.82299 10.3082 8.55964C10.3638 8.72646 10.5325 8.82804 10.7059 8.79913L11.6676 8.63886C11.8855 8.60254 12.0916 8.74975 12.1279 8.96766C12.1642 9.18556 12.017 9.39165 11.7991 9.42797L10.8375 9.58825C10.2757 9.68187 9.7293 9.3529 9.54921 8.81262C9.38533 8.32098 8.99304 7.96701 8.52296 7.89949C8.38019 7.87898 8.23486 7.86164 8.09368 7.84987L7.94907 9.29599C7.90429 9.74384 7.89907 9.86205 7.9293 9.96769C7.95953 10.0733 8.02649 10.1709 8.30142 10.5272L10.6636 13.5891C10.7985 13.764 10.7661 14.0152 10.5912 14.1501C10.4163 14.2851 10.1651 14.2527 10.0302 14.0777L7.66801 11.0159C7.65526 10.9994 7.64266 10.9831 7.6302 10.967C7.41119 10.6836 7.23791 10.4594 7.16017 10.1878C7.08243 9.91615 7.11089 9.63423 7.14685 9.27793C7.1489 9.25766 7.15097 9.23715 7.15304 9.21639L7.28855 7.86132C6.39612 8.00727 5.73333 8.84629 5.73333 9.83342C5.73333 10.0543 5.55425 10.2334 5.33333 10.2334C5.11242 10.2334 4.93333 10.0543 4.93333 9.83342C4.93333 8.42504 5.95403 7.12252 7.4289 7.04259ZM7.01178 11.0412C7.2284 11.0845 7.36889 11.2952 7.32557 11.5119C7.13487 12.4654 6.61407 13.3211 5.85477 13.9285L5.58321 14.1458C5.41071 14.2838 5.15899 14.2558 5.02099 14.0833C4.88298 13.9108 4.91095 13.6591 5.08346 13.5211L5.35501 13.3038C5.96733 12.814 6.38732 12.1239 6.5411 11.355C6.58443 11.1383 6.79516 10.9979 7.01178 11.0412Z" fill="#088F42"/>
</svg>
