<svg width="24" height="24" viewBox="0 0 24 24" fill="none" xmlns="http://www.w3.org/2000/svg">
<path d="M18.0802 21.4261C17.3685 21.9305 12.802 18.7328 11.9275 18.7257C11.0529 18.7187 6.43505 21.843 5.73167 21.3272C5.02828 20.8114 6.68192 15.5136 6.41838 14.6861C6.15483 13.8585 1.73356 10.4658 2.01053 9.64261C2.2875 8.8194 7.87597 8.74292 8.58765 8.23848C9.29933 7.73404 11.1847 2.51302 12.0593 2.52003C12.9338 2.52703 14.734 7.77756 15.4374 8.29333C16.1408 8.80911 21.7273 8.97506 21.9909 9.8026C22.2544 10.6301 17.7785 13.9516 17.5016 14.7748C17.2246 15.598 18.7919 20.9216 18.0802 21.4261Z" fill="#FBC108"/>
</svg>
